<svg xmlns="http://www.w3.org/2000/svg" xmlns:xlink="http://www.w3.org/1999/xlink" xml:space="preserve" width="1280" height="640" viewBox="0 0 960 480"><defs><linearGradient id="a"><stop offset="0" stop-color="#fff"/></linearGradient><linearGradient id="b"><stop offset=".118" stop-color="#d14000"/><stop offset=".417" stop-color="#b58900"/><stop offset=".58" stop-color="#749923"/><stop offset=".908" stop-color="#0084c8"/></linearGradient><linearGradient xlink:href="#a" id="h" x1="223.88" x2="288.12" y1="289.436" y2="289.436" gradientUnits="userSpaceOnUse"/><linearGradient xlink:href="#a" id="i" x1="320.021" x2="359.777" y1="160.282" y2="160.282" gradientUnits="userSpaceOnUse"/><linearGradient xlink:href="#a" id="j" x1="384.258" x2="424.015" y1="160.282" y2="160.282" gradientUnits="userSpaceOnUse"/><linearGradient xlink:href="#a" id="k" x1="275.658" x2="468.377" y1="230.334" y2="230.334" gradientUnits="userSpaceOnUse"/><linearGradient xlink:href="#a" id="l" x1="275.658" x2="468.378" y1="313.581" y2="313.581" gradientUnits="userSpaceOnUse"/><linearGradient xlink:href="#a" id="m" x1="275.658" x2="468.377" y1="271.957" y2="271.957" gradientUnits="userSpaceOnUse"/><linearGradient xlink:href="#a" id="n" x1="219.894" x2="292.106" y1="160.282" y2="160.282" gradientUnits="userSpaceOnUse"/><linearGradient xlink:href="#a" id="o" x1="-111.667" x2="197" y1="164.667" y2="164.667" gradientTransform="translate(83.596 164.552)scale(.4205044)" gradientUnits="userSpaceOnUse"/><linearGradient xlink:href="#a" id="p" x1="113.228" x2="185.439" y1="356.667" y2="356.667" gradientUnits="userSpaceOnUse"/><linearGradient xlink:href="#a" id="q" x1="27.562" x2="475.044" y1="257.744" y2="257.744" gradientUnits="userSpaceOnUse"/><linearGradient xlink:href="#a" id="r" x1="113.228" x2="185.439" y1="356.667" y2="356.667" gradientTransform="translate(223.843)" gradientUnits="userSpaceOnUse"/><linearGradient xlink:href="#b" id="c" x1="0" x2="960" y1="240" y2="240" gradientUnits="userSpaceOnUse"/><filter id="g" width="1.031" height="1.024" x="-.015" y="0" color-interpolation-filters="sRGB"><feTurbulence baseFrequency="0.2 0.2" numOctaves="3" result="turbulence" seed="48" type="fractalNoise"/><feDisplacementMap in="SourceGraphic" in2="turbulence" scale="1.732" xChannelSelector="R" yChannelSelector="G"/></filter><filter id="f" width="1" height="1" x="0" y="0" color-interpolation-filters="sRGB"><feTurbulence baseFrequency="2 2" numOctaves="3" result="turbulence" seed="146" type="fractalNoise"/><feDisplacementMap in="SourceGraphic" in2="turbulence" scale=".6" xChannelSelector="R" yChannelSelector="G"/></filter><filter id="d" width="1" height="1" x="0" y="0" color-interpolation-filters="sRGB"><feTurbulence baseFrequency="3.2862219036697251 2" numOctaves="3" result="turbulence" seed="633" type="fractalNoise"/><feDisplacementMap in="SourceGraphic" in2="turbulence" scale="100" xChannelSelector="R" yChannelSelector="G"/></filter></defs><path fill="url(#c)" d="M0 0h960v480H0z" filter="url(#d)" paint-order="fill markers stroke" style="font-variation-settings:&quot;opsz&quot;32,&quot;wght&quot;800"/><g fill="#fff" stroke-width=".172" aria-label="transical" filter="url(#f)" font-family="Noto Color Emoji" font-size="36" letter-spacing="-1.035" paint-order="fill markers stroke" style="-inkscape-font-specification:&quot;Noto Color Emoji, Normal&quot;" transform="translate(130.755 127.326)scale(3.6504217)"><path d="M64.98 19.857v4.676H51.939v-4.676zm-3.814-7.193V32.18q0 .896.352 1.23.351.334 1.371.334h2.092v4.676h-3.428q-3.34 0-4.904-1.248-1.547-1.266-1.547-3.973V16.87Z" font-family="Inter" style="-inkscape-font-specification:&quot;Inter, @opsz=32,wght=800&quot;;font-feature-settings:&quot;ss03&quot;;font-variation-settings:&quot;opsz&quot;32,&quot;wght&quot;800"/><path d="M66.372 38.42V19.857h5.853v3.27h.053q.51-1.775 1.582-2.549 1.09-.79 2.953-.79.492 0 .879.017.404 0 .773.017v4.992q-.334-.017-1.037-.035-.685-.017-1.353-.017-1.072 0-1.899.492-.826.475-1.3 1.406-.457.932-.457 2.25v9.51zm18.675.316q-1.863 0-3.304-.597-1.424-.616-2.25-1.828-.809-1.23-.809-3.077 0-1.564.563-2.619.562-1.072 1.547-1.74 1.001-.668 2.302-1.002 1.319-.352 2.795-.475 1.653-.14 2.654-.298 1.002-.176 1.442-.475.44-.316.44-.879v-.088q0-.562-.317-.967-.316-.421-.897-.65-.58-.246-1.37-.246-.844 0-1.46.264-.615.246-.966.72-.352.457-.422 1.09H79.37q.14-2.021 1.177-3.445 1.038-1.442 2.918-2.197 1.899-.774 4.588-.774 2.022 0 3.569.44 1.564.421 2.636 1.265 1.073.826 1.618 2.04.544 1.195.544 2.724V38.42h-5.906v-2.602h-.07q-.563 1.002-1.318 1.653-.756.633-1.758.949t-2.32.316m1.846-3.955q1.002 0 1.81-.386.827-.387 1.301-1.055.475-.686.475-1.6v-1.687q-.246.105-.58.21-.334.106-.756.194-.404.088-.896.176-.493.088-1.055.193-.809.123-1.441.387-.616.264-.985.703-.351.422-.351 1.037 0 .58.316.984.316.405.861.633.563.211 1.301.211m17.914-6.45V38.42H98.76V19.857h5.977v4.975h-.896q.86-2.46 2.496-3.92 1.634-1.459 4.306-1.459 2.022 0 3.446.879 1.423.861 2.18 2.496.755 1.635.755 3.92V38.42h-6.047V28.014q0-1.653-.79-2.514-.792-.879-2.233-.879-.95 0-1.67.404-.703.405-1.09 1.23-.387.81-.387 2.075m22.749 10.546q-2.567 0-4.553-.773-1.987-.774-3.164-2.215-1.178-1.442-1.354-3.41h5.96q.14 1.019.913 1.634.791.598 2.11.598 1.248 0 1.95-.44.704-.439.704-1.142 0-.615-.58-.984-.563-.387-1.67-.58l-3.357-.598q-2.743-.492-4.184-1.881-1.424-1.389-1.424-3.586 0-1.828.984-3.182 1.002-1.353 2.866-2.091 1.88-.756 4.465-.756 2.601 0 4.5.79 1.898.774 2.953 2.216 1.072 1.423 1.125 3.41h-5.573q-.017-.985-.808-1.617-.774-.65-1.987-.65-1.177 0-1.845.456-.65.457-.65 1.143 0 .58.527.967.527.386 1.476.562l3.727.686q2.883.527 4.236 1.757 1.371 1.23 1.371 3.305 0 1.899-1.107 3.34-1.09 1.441-3.059 2.25-1.95.791-4.552.791" font-family="Inter" style="-inkscape-font-specification:&quot;Inter, @opsz=32,wght=800&quot;;font-variation-settings:&quot;opsz&quot;32,&quot;wght&quot;800"/><path d="M137.82 38.42v-4.094h2.576V24.068h-2.806V20.02h8.694v14.306h2.3v4.094z" font-family="Rokkitt" font-size="46" style="-inkscape-font-specification:&quot;Rokkitt, @wght=725&quot;;font-variation-settings:&quot;wght&quot;725"/><path d="M158.153 38.842q-2.865 0-5.027-1.213-2.162-1.23-3.375-3.41-1.196-2.18-1.196-5.08 0-2.883 1.196-5.063 1.213-2.197 3.375-3.41 2.162-1.23 5.027-1.23 1.934 0 3.55.562 1.636.563 2.83 1.6 1.214 1.02 1.917 2.443.703 1.406.808 3.111h-5.835q-.07-.65-.317-1.195-.246-.545-.668-.932-.404-.386-.95-.58-.544-.21-1.212-.21-1.125 0-1.934.597-.808.58-1.23 1.688-.422 1.107-.422 2.619 0 1.511.422 2.619.422 1.107 1.23 1.705.809.58 1.934.58.668 0 1.213-.193.545-.211.932-.598.404-.404.65-.95.246-.562.334-1.23h5.853q-.052 1.705-.738 3.13-.685 1.405-1.898 2.46-1.213 1.037-2.865 1.617-1.635.563-3.604.563m16.589-.106q-1.863 0-3.305-.597-1.424-.616-2.25-1.828-.808-1.23-.808-3.077 0-1.564.562-2.619.563-1.072 1.547-1.74 1.002-.668 2.303-1.002 1.318-.352 2.795-.475 1.652-.14 2.654-.298 1.002-.176 1.441-.475.44-.316.44-.879v-.088q0-.562-.317-.967-.316-.421-.896-.65-.58-.246-1.371-.246-.844 0-1.46.264-.614.246-.966.72-.352.457-.422 1.09h-5.625q.14-2.021 1.178-3.445 1.037-1.442 2.918-2.197 1.898-.774 4.588-.774 2.021 0 3.568.44 1.565.421 2.637 1.265 1.072.826 1.617 2.04.545 1.195.545 2.724V38.42h-5.906v-2.602h-.07q-.563 1.002-1.319 1.653-.756.633-1.758.949t-2.32.316m1.846-3.955q1.001 0 1.81-.386.826-.387 1.3-1.055.475-.686.475-1.6v-1.687q-.246.105-.58.21-.334.106-.755.194-.405.088-.897.176t-1.055.193q-.808.123-1.441.387-.615.264-.984.703-.352.422-.352 1.037 0 .58.316.984.317.405.862.633.562.211 1.3.211m17.914-22.552v26.19h-6.047V12.23Z" font-family="Inter" style="-inkscape-font-specification:&quot;Inter, @opsz=32,wght=800&quot;;font-variation-settings:&quot;opsz&quot;32,&quot;wght&quot;800"/><circle cx="143.291" cy="14.063" r="3.473" style="font-variation-settings:&quot;opsz&quot;32,&quot;wght&quot;800"/></g><g filter="url(#g)" transform="translate(108.455 123.31)scale(.39489882)"><path fill="url(#h)" d="M238.936 223.667h49.184v131.538h-64.24V239.082a15.056 15.415 0 0 1 15.056-15.415"/><path fill="none" stroke="url(#i)" stroke-width="13.333" d="M336.725 132.871h6.348c5.56 0 10.037 4.528 10.037 10.153v34.517c0 5.624-4.476 10.152-10.037 10.152h-6.348c-5.561 0-10.038-4.528-10.038-10.152v-34.517c0-5.625 4.477-10.153 10.038-10.153z"/><path fill="none" stroke="url(#j)" stroke-width="13.333" d="M400.963 132.871h6.348c5.56 0 10.037 4.528 10.037 10.153v34.517c0 5.624-4.477 10.152-10.037 10.152h-6.348c-5.561 0-10.038-4.528-10.038-10.152v-34.517c0-5.625 4.477-10.153 10.038-10.153z"/><path fill="none" stroke="url(#k)" stroke-width="13.333" d="M275.658 230.334h192.72"/><path fill="none" stroke="url(#l)" stroke-width="13.333" d="M275.658 313.581h192.72"/><path fill="none" stroke="url(#m)" stroke-width="13.333" d="M275.658 271.957h192.72"/><ellipse cx="256" cy="160.282" fill="url(#n)" rx="36.106" ry="36.518"/><path fill="none" stroke="url(#o)" stroke-width="13.333" d="m143.592 187.162-88.207 89.215a62.8 62.8 0 0 0 46.152 20.213 62.795 62.795 0 0 0 62.797-62.795 62.8 62.8 0 0 0-20.742-46.633z" paint-order="fill markers stroke"/><circle cx="149.333" cy="356.667" r="29.772" fill="none" stroke="url(#p)" stroke-width="12.667" paint-order="fill markers stroke"/><path fill="none" stroke="url(#q)" stroke-width="13.333" d="M179.07 355.205h249.159a40.15 40.609 0 0 0 40.149-40.608V200.89a40.15 40.609 0 0 0-40.15-40.608h-10.88v17.26c0 5.624-4.476 10.151-10.036 10.151h-6.35c-5.56 0-10.036-4.527-10.036-10.15v-17.26H353.11v17.26c0 5.623-4.476 10.15-10.036 10.15h-6.35c-5.56 0-10.036-4.527-10.036-10.15v-17.26H186.8a40.15 40.609 0 0 0-28.392 11.893L45.988 285.88a40.15 40.609 0 0 0 28.39 69.325h45.219"/><path fill="none" stroke="url(#r)" stroke-width="12.667" d="M402.913 355.205a30 30 0 0 1 .035 1.462 29.77 29.77 0 0 1-29.772 29.772 29.77 29.77 0 0 1-29.772-29.772 30 30 0 0 1 .036-1.462" paint-order="fill markers stroke"/></g><g font-family="Inter" font-size="44.394" font-style="italic" letter-spacing="0" paint-order="fill markers stroke"><path fill="#1f00ff" d="M106.451 333.856q-2.774 0-4.834-1.17-2.037-1.192-3.143-3.317t-1.105-4.942q0-2.688.867-5.267.888-2.58 2.536-4.661 1.669-2.103 3.988-3.338 2.32-1.236 5.203-1.236 1.95 0 3.533.607 1.604.585 2.731 1.67 1.15 1.061 1.734 2.514.607 1.452.542 3.186h-3.728q-.022-1.019-.325-1.864-.304-.845-.91-1.452-.586-.629-1.496-.976t-2.19-.347q-2.08 0-3.706.933-1.626.932-2.753 2.536-1.127 1.582-1.713 3.555-.585 1.972-.585 4.053 0 1.908.607 3.295t1.82 2.146q1.236.737 3.036.737 1.278 0 2.34-.325 1.063-.325 1.908-.932.867-.629 1.496-1.474.65-.867 1.105-1.908h3.794q-.52 1.691-1.54 3.143-1.018 1.453-2.427 2.537t-3.143 1.69q-1.713.607-3.642.607m23.194 0q-2.818 0-4.855-1.192-2.016-1.214-3.122-3.36-1.084-2.146-1.084-4.985 0-2.732.89-5.311.888-2.58 2.535-4.617 1.67-2.06 3.989-3.252 2.32-1.214 5.159-1.214 2.818 0 4.834 1.214 2.037 1.214 3.121 3.382 1.084 2.167 1.084 5.029 0 2.753-.889 5.332-.888 2.558-2.557 4.596-1.648 2.016-3.967 3.208-2.298 1.17-5.138 1.17m.109-3.338q2.146 0 3.771-.954 1.648-.975 2.753-2.58 1.128-1.625 1.691-3.576.564-1.972.564-3.945 0-1.93-.629-3.317t-1.864-2.124q-1.214-.759-2.991-.759-2.081 0-3.707.954t-2.753 2.558-1.734 3.598q-.586 1.973-.586 4.032 0 2.84 1.388 4.487 1.409 1.626 4.097 1.626m13.136 11.879 5.289-31.952h3.598l-.52 3.317h.022q.91-1.322 2.146-2.146t2.644-1.214q1.41-.39 2.84-.39 2.623 0 4.487 1.17 1.886 1.15 2.883 3.23 1.019 2.081 1.019 4.9 0 2.665-.824 5.245-.802 2.58-2.341 4.66t-3.728 3.317-4.964 1.236q-1.54 0-2.84-.456-1.3-.455-2.298-1.344-.997-.91-1.604-2.276h-.022l-2.102 12.703zm12.074-11.944q2.08 0 3.685-.954 1.626-.953 2.731-2.536 1.106-1.604 1.67-3.577.563-1.994.563-4.053 0-2.991-1.453-4.509-1.452-1.517-3.901-1.517-2.103 0-3.75.975-1.626.954-2.775 2.558-1.127 1.583-1.713 3.533-.585 1.951-.585 3.902 0 2.883 1.452 4.53 1.453 1.648 4.076 1.648m12.312 11.944.542-3.252h2.254q.716 0 1.323-.303.607-.282 1.149-.889.563-.607 1.083-1.56l1.778-3.252-5.094-22.696h3.815l2.753 13.18q.347 1.647.65 3.295.325 1.647.607 3.295h-.975q.823-1.648 1.69-3.295l1.735-3.295 7.045-13.18h4.096l-15.043 27.14q-.824 1.474-1.973 2.558-1.127 1.083-2.47 1.669-1.323.585-2.71.585zm48.925-31.952-.52 3.165h-12.4l.52-3.165zm-7.284-6.242h3.685l-3.902 23.584q-.216 1.322.239 1.864.477.52 1.886.52h2.124l-.52 3.165h-2.471q-2.948 0-4.184-1.279-1.236-1.3-.824-3.88zm7.327 29.133 3.793-22.89h3.512l-.607 3.598h.087q.932-1.778 2.47-2.862 1.54-1.083 3.686-1.083.499 0 .91.043t.629.087l-.607 3.685q-.217-.065-.824-.152-.585-.108-1.387-.108-1.257 0-2.45.585-1.17.585-2.015 1.82t-1.17 3.187l-2.342 14.09zm22.544.434q-2.97 0-4.964-1.496-1.994-1.517-2.797-4.184-.78-2.688-.216-6.2.585-3.533 2.254-6.199 1.69-2.688 4.184-4.183 2.493-1.496 5.462-1.496 1.496 0 2.797.433 1.322.412 2.297 1.258.997.845 1.518 2.124h.043l.564-3.382h3.598l-3.793 22.891h-3.599l.564-3.468h-.044q-1.04 1.322-2.297 2.19-1.258.866-2.667 1.278-1.409.434-2.904.434m1.105-3.317q2.125 0 3.859-1.062t2.904-2.991 1.583-4.51q.433-2.6-.109-4.53-.52-1.929-1.907-2.991-1.366-1.062-3.49-1.062-1.973 0-3.663.975-1.691.976-2.883 2.883-1.171 1.908-1.648 4.726-.455 2.796.087 4.704.563 1.907 1.929 2.883 1.366.975 3.338.975m21.2-10.383-2.19 13.266h-3.684l3.771-22.89h3.599l-.91 5.549-1.063-.109q1.648-3.1 3.815-4.487 2.19-1.387 4.813-1.387 2.362 0 4.14 1.04 1.799 1.04 2.644 3.1.846 2.038.326 5.094l-2.32 14.09h-3.685l2.32-14.09q.498-2.97-.63-4.4-1.105-1.453-3.597-1.453-1.713 0-3.252.716-1.539.693-2.623 2.167-1.084 1.475-1.474 3.794m26.51 13.786q-2.34 0-4.183-.693-1.82-.716-2.883-2.146-1.04-1.431-1.04-3.599v-.455l.043-.477h3.642q-.13 2.038.975 3.122 1.127 1.084 3.425 1.084 1.583 0 2.948-.52 1.366-.52 2.211-1.475.867-.954.867-2.232 0-.998-.78-1.583-.759-.607-2.081-.932l-3.555-.867q-2.71-.672-4.14-2.081-1.41-1.409-1.41-3.512 0-2.297 1.28-3.988 1.279-1.713 3.381-2.645 2.125-.932 4.574-.932 3.36 0 5.463 1.67 2.102 1.668 2.102 4.595 0 .282-.021.542t-.065.563h-3.599q.304-1.972-.824-3.078-1.127-1.127-3.121-1.127-1.582 0-2.84.585-1.235.586-1.95 1.561-.716.954-.716 2.081 0 .997.759 1.626.78.607 2.21.954l3.534.867q2.775.672 4.14 2.016 1.366 1.322 1.366 3.36 0 1.842-.78 3.273-.78 1.43-2.146 2.427t-3.122 1.496q-1.734.52-3.663.52m12.985-.52 3.794-22.89h3.685l-3.794 22.89zm6.373-27.356q-1.04 0-1.647-.737t-.456-1.777q.174-1.04 1.02-1.778.866-.737 1.907-.737t1.647.737q.629.737.456 1.778-.152 1.04-1.02 1.777-.866.737-1.907.737m16.995 4.465-.52 3.165h-12.4l.52-3.165zm-7.284-6.242h3.685l-3.901 23.584q-.217 1.322.238 1.864.477.52 1.886.52h2.124l-.52 3.165h-2.471q-2.948 0-4.184-1.279-1.235-1.3-.824-3.88zm26.533 29.653q-2.341 0-4.184-.693-1.82-.716-2.883-2.146-1.04-1.431-1.04-3.599v-.455l.043-.477h3.642q-.13 2.038.975 3.122 1.127 1.084 3.425 1.084 1.582 0 2.948-.52t2.211-1.475q.867-.954.867-2.232 0-.998-.78-1.583-.759-.607-2.081-.932l-3.555-.867q-2.71-.672-4.14-2.081-1.41-1.409-1.41-3.512 0-2.297 1.28-3.988 1.278-1.713 3.381-2.645 2.124-.932 4.574-.932 3.36 0 5.462 1.67 2.103 1.668 2.103 4.595 0 .282-.022.542t-.065.563h-3.598q.303-1.972-.824-3.078-1.127-1.127-3.121-1.127-1.583 0-2.84.585-1.235.586-1.95 1.561-.716.954-.716 2.081 0 .997.759 1.626.78.607 2.21.954l3.534.867q2.775.672 4.14 2.016 1.366 1.322 1.366 3.36 0 1.842-.78 3.273-.78 1.43-2.147 2.427-1.365.998-3.121 1.496-1.734.52-3.663.52m22.565 0q-2.774 0-4.834-1.17-2.037-1.192-3.143-3.317t-1.105-4.942q0-2.688.867-5.267.888-2.58 2.536-4.661 1.669-2.103 3.988-3.338 2.32-1.236 5.203-1.236 1.95 0 3.533.607 1.604.585 2.731 1.67 1.15 1.061 1.735 2.514.606 1.452.541 3.186h-3.728q-.022-1.019-.325-1.864-.304-.845-.91-1.452-.586-.629-1.496-.976t-2.19-.347q-2.08 0-3.706.933-1.626.932-2.753 2.536-1.127 1.582-1.713 3.555-.585 1.972-.585 4.053 0 1.908.607 3.295t1.82 2.146q1.236.737 3.036.737 1.278 0 2.34-.325 1.063-.325 1.908-.932.867-.629 1.496-1.474.65-.867 1.105-1.908h3.794q-.52 1.691-1.54 3.143-1.018 1.453-2.427 2.537t-3.143 1.69q-1.713.607-3.642.607m19.51-13.916-2.212 13.396h-3.685l5.354-32.298h3.685l-2.492 14.957h-1.128q1.106-2.06 2.428-3.382t2.883-1.95q1.56-.651 3.36-.651 2.32 0 4.097 1.019 1.8.997 2.645 3.013.867 2.016.346 5.072l-2.362 14.22h-3.685l2.319-13.96q.499-2.97-.694-4.465-1.17-1.518-3.75-1.518-1.669 0-3.165.672-1.474.672-2.514 2.125-1.04 1.43-1.43 3.75m27.962 13.916q-2.644 0-4.682-1.018-2.016-1.02-3.165-3.187-1.127-2.168-1.127-5.57 0-3.187.954-5.789.954-2.622 2.666-4.487 1.734-1.864 4.054-2.861 2.32-1.019 5.029-1.019 2.34 0 4.075.759 1.756.737 2.731 2.168.976 1.43.976 3.468 0 2.08-1.106 3.533-1.084 1.43-3.295 2.298-2.19.867-5.527 1.279-3.339.39-7.847.39l.52-3.121q3.967 0 6.59-.26t4.14-.78q1.539-.543 2.168-1.367.65-.823.65-1.929 0-1.452-1.127-2.276t-3.317-.824q-2.298 0-3.945.933-1.647.91-2.71 2.47-1.04 1.561-1.539 3.534t-.498 4.097q0 1.604.455 3.035.477 1.43 1.69 2.32 1.215.888 3.404.888 2.515 0 4.292-1.127 1.8-1.128 2.601-2.905h3.685q-1.192 3.273-3.988 5.31-2.797 2.038-6.807 2.038m22.74-.086q-3.924 0-6.157-2.558t-2.233-6.742q0-2.688.802-5.245.824-2.58 2.363-4.661t3.728-3.316q2.212-1.236 4.964-1.236 1.54 0 2.883.455 1.344.434 2.342 1.322 1.018.867 1.539 2.146h.021l2.125-12.897h3.685l-5.333 32.298h-3.598l.542-3.403h-.022q-1.04 1.366-2.276 2.21-1.214.846-2.58 1.236-1.365.39-2.796.39m.65-3.317q2.059 0 3.685-.932t2.774-2.493q1.149-1.582 1.756-3.533t.607-3.989q0-2.883-1.452-4.53-1.431-1.67-4.076-1.67-2.08 0-3.685.955-1.604.953-2.71 2.557-1.105 1.583-1.69 3.577-.564 1.973-.564 4.054 0 2.97 1.453 4.487 1.452 1.517 3.902 1.517m23.887 3.317q-2.297 0-4.053-.997-1.756-1.02-2.558-3.035-.802-2.038-.304-5.073l2.363-14.22h3.685l-2.32 13.96q-.476 2.97.694 4.487 1.193 1.496 3.75 1.496 1.67 0 3.144-.672 1.495-.672 2.536-2.124 1.062-1.453 1.43-3.75l2.212-13.397h3.685l-3.794 22.891h-3.598l.91-5.55h1.04q-1.625 3.079-3.88 4.531-2.232 1.453-4.942 1.453m24.994-32.732-5.355 32.298h-3.685l5.355-32.298zm9.69 32.818q-2.645 0-4.683-1.018-2.016-1.02-3.165-3.187-1.127-2.168-1.127-5.57 0-3.187.954-5.789.953-2.622 2.666-4.487 1.734-1.864 4.054-2.861 2.319-1.019 5.029-1.019 2.34 0 4.075.759 1.756.737 2.731 2.168.975 1.43.975 3.468 0 2.08-1.105 3.533-1.084 1.43-3.295 2.298-2.19.867-5.527 1.279-3.339.39-7.847.39l.52-3.121q3.967 0 6.59-.26t4.14-.78q1.539-.543 2.167-1.367.65-.823.65-1.929 0-1.452-1.126-2.276-1.128-.824-3.317-.824-2.298 0-3.945.933-1.648.91-2.71 2.47-1.04 1.561-1.539 3.534t-.498 4.097q0 1.604.455 3.035.477 1.43 1.69 2.32 1.215.888 3.404.888 2.514 0 4.292-1.127 1.8-1.128 2.601-2.905h3.685q-1.192 3.273-3.988 5.31-2.797 2.038-6.807 2.038m21.958 0q-2.341 0-4.184-.693-1.82-.716-2.883-2.146-1.04-1.431-1.04-3.599v-.455l.043-.477h3.642q-.13 2.038.975 3.122 1.127 1.084 3.425 1.084 1.582 0 2.948-.52t2.211-1.475q.867-.953.867-2.232 0-.998-.78-1.583-.759-.607-2.081-.932l-3.555-.867q-2.71-.672-4.14-2.081-1.41-1.409-1.41-3.512 0-2.297 1.28-3.988 1.278-1.713 3.381-2.645 2.124-.932 4.574-.932 3.36 0 5.462 1.67Q528 313.262 528 316.19q0 .282-.022.542t-.065.563h-3.598q.303-1.972-.824-3.078-1.127-1.127-3.121-1.127-1.583 0-2.84.585-1.235.586-1.95 1.561-.716.954-.716 2.081 0 .997.759 1.626.78.607 2.21.954l3.534.867q2.775.672 4.14 2.016 1.366 1.322 1.366 3.36 0 1.842-.78 3.273-.78 1.43-2.147 2.427-1.365.998-3.121 1.496-1.734.52-3.663.52m37.847-23.41-.52 3.164h-12.4l.521-3.165zm-7.283-6.243h3.685l-3.902 23.584q-.217 1.322.239 1.864.476.52 1.885.52h2.125l-.52 3.165h-2.472q-2.948 0-4.183-1.279-1.236-1.3-.824-3.88zm16.474 29.653q-2.818 0-4.855-1.192-2.016-1.214-3.122-3.36-1.084-2.146-1.084-4.985 0-2.732.89-5.311.888-2.58 2.535-4.617 1.67-2.06 3.989-3.252 2.32-1.214 5.159-1.214 2.818 0 4.834 1.214 2.037 1.214 3.121 3.382 1.084 2.167 1.084 5.029 0 2.753-.889 5.332-.888 2.558-2.558 4.596-1.647 2.016-3.966 3.208-2.298 1.17-5.138 1.17m.109-3.338q2.146 0 3.771-.954 1.648-.975 2.753-2.58 1.128-1.625 1.691-3.576.564-1.972.564-3.945 0-1.93-.629-3.317t-1.864-2.124q-1.214-.759-2.992-.759-2.08 0-3.706.954t-2.753 2.558-1.734 3.598q-.586 1.973-.586 4.032 0 2.84 1.388 4.487 1.409 1.626 4.097 1.626m24.408 11.879.542-3.252h2.254q.715 0 1.322-.303.607-.282 1.15-.889.563-.607 1.083-1.56l1.777-3.252-5.094-22.696h3.815l2.753 13.18q.347 1.647.65 3.295.326 1.647.608 3.295h-.976q.824-1.648 1.691-3.295l1.734-3.295 7.045-13.18h4.097l-15.044 27.14q-.823 1.474-1.972 2.558-1.127 1.083-2.471 1.669-1.323.585-2.71.585zm32.775-8.54q-2.818 0-4.856-1.193-2.016-1.214-3.121-3.36-1.084-2.146-1.084-4.985 0-2.732.889-5.311.889-2.58 2.536-4.617 1.67-2.06 3.988-3.252 2.32-1.214 5.16-1.214 2.818 0 4.833 1.214 2.038 1.214 3.122 3.382 1.084 2.167 1.084 5.029 0 2.753-.889 5.332-.889 2.558-2.558 4.596-1.647 2.016-3.967 3.208-2.297 1.17-5.137 1.17m.108-3.339q2.146 0 3.772-.954 1.647-.975 2.753-2.58 1.127-1.625 1.69-3.576.564-1.972.564-3.945 0-1.93-.628-3.317-.629-1.387-1.864-2.124-1.214-.759-2.992-.759-2.08 0-3.707.954-1.625.954-2.753 2.558-1.127 1.604-1.734 3.598-.585 1.973-.585 4.032 0 2.84 1.387 4.487 1.41 1.626 4.097 1.626m23 3.252q-2.298 0-4.054-.997-1.756-1.02-2.558-3.035-.802-2.038-.304-5.073l2.363-14.22h3.685l-2.32 13.96q-.476 2.97.694 4.487 1.193 1.496 3.75 1.496 1.67 0 3.144-.672 1.495-.672 2.536-2.124 1.062-1.453 1.43-3.75l2.212-13.397h3.685l-3.794 22.891h-3.598l.91-5.55h1.04q-1.625 3.079-3.88 4.531-2.232 1.453-4.942 1.453m15.953-.434 3.794-22.89h3.511l-.606 3.598h.086q.932-1.778 2.471-2.862 1.54-1.083 3.685-1.083.499 0 .91.043.413.043.63.087l-.607 3.685q-.217-.065-.824-.152-.585-.108-1.387-.108-1.258 0-2.45.585-1.17.585-2.016 1.82-.845 1.236-1.17 3.187l-2.342 14.09zm34.987.52q-2.775 0-4.834-1.17-2.038-1.192-3.143-3.317-1.106-2.124-1.106-4.942 0-2.688.867-5.267.889-2.58 2.536-4.661 1.67-2.103 3.989-3.338 2.32-1.236 5.202-1.236 1.951 0 3.534.607 1.604.585 2.73 1.67 1.15 1.061 1.735 2.514.607 1.452.542 3.186h-3.728q-.022-1.019-.326-1.864-.303-.845-.91-1.452-.585-.629-1.496-.976-.91-.347-2.189-.347-2.081 0-3.707.933-1.626.932-2.753 2.536-1.127 1.582-1.712 3.555-.585 1.972-.585 4.053 0 1.908.606 3.295.607 1.387 1.821 2.146 1.236.737 3.035.737 1.279 0 2.341-.325t1.908-.932q.867-.629 1.495-1.474.65-.867 1.106-1.908h3.793q-.52 1.691-1.539 3.143-1.018 1.453-2.427 2.537t-3.144 1.69q-1.712.607-3.641.607m22.283-.086q-2.97 0-4.964-1.496-1.994-1.517-2.796-4.184-.78-2.688-.217-6.2.586-3.533 2.255-6.199 1.69-2.688 4.183-4.183 2.493-1.496 5.463-1.496 1.496 0 2.796.433 1.323.412 2.298 1.258.997.845 1.517 2.124h.044l.563-3.382h3.599l-3.794 22.891h-3.598l.563-3.468h-.043q-1.04 1.322-2.298 2.19-1.257.866-2.666 1.278-1.409.434-2.905.434m1.106-3.317q2.124 0 3.858-1.062 1.735-1.062 2.905-2.991t1.583-4.51q.433-2.6-.109-4.53-.52-1.929-1.907-2.991-1.366-1.062-3.49-1.062-1.973 0-3.664.975-1.69.976-2.883 2.883-1.17 1.908-1.647 4.726-.455 2.796.086 4.704.564 1.907 1.93 2.883 1.365.975 3.338.975m24.365-29.415-5.355 32.298h-3.685l5.355-32.298zm9.69 32.818q-2.645 0-4.683-1.018-2.016-1.02-3.165-3.187-1.127-2.168-1.127-5.57 0-3.187.954-5.789.953-2.622 2.666-4.487 1.734-1.864 4.054-2.861 2.319-1.019 5.029-1.019 2.34 0 4.075.759 1.756.737 2.731 2.168.975 1.43.975 3.468 0 2.08-1.105 3.533-1.084 1.43-3.295 2.298-2.19.867-5.527 1.279-3.339.39-7.847.39l.52-3.121q3.967 0 6.59-.26t4.14-.78q1.539-.543 2.167-1.367.65-.823.65-1.929 0-1.452-1.126-2.276-1.128-.824-3.317-.824-2.298 0-3.945.933-1.648.91-2.71 2.47-1.04 1.561-1.539 3.534t-.498 4.097q0 1.604.455 3.035.477 1.43 1.69 2.32 1.215.888 3.404.888 2.514 0 4.292-1.127 1.8-1.128 2.601-2.905h3.685q-1.192 3.273-3.988 5.31-2.797 2.038-6.807 2.038m19.725-13.786-2.19 13.266h-3.684l3.771-22.89h3.599l-.91 5.549-1.063-.109q1.648-3.1 3.815-4.487 2.19-1.387 4.812-1.387 2.363 0 4.14 1.04 1.8 1.04 2.645 3.1.846 2.038.325 5.094l-2.319 14.09h-3.685l2.32-14.09q.498-2.97-.63-4.4-1.105-1.452-3.598-1.452-1.712 0-3.251.715-1.54.694-2.623 2.168t-1.474 3.793m27.291 13.7q-3.924 0-6.156-2.558-2.233-2.558-2.233-6.742 0-2.688.802-5.245.824-2.58 2.363-4.661t3.728-3.316q2.211-1.236 4.964-1.236 1.54 0 2.883.455 1.344.434 2.341 1.322 1.02.868 1.54 2.146h.021l2.124-12.897h3.685l-5.332 32.298h-3.598l.542-3.403h-.022q-1.04 1.366-2.276 2.21-1.214.846-2.58 1.236-1.365.39-2.796.39m.65-3.317q2.06 0 3.685-.932t2.775-2.493q1.149-1.582 1.756-3.533t.607-3.989q0-2.883-1.453-4.53-1.43-1.67-4.075-1.67-2.08 0-3.685.955-1.604.953-2.71 2.557-1.105 1.583-1.69 3.577-.564 1.973-.564 4.054 0 2.97 1.452 4.487 1.453 1.517 3.902 1.517m24.213 3.317q-2.97 0-4.964-1.496-1.994-1.517-2.796-4.184-.78-2.688-.217-6.2.585-3.533 2.255-6.199 1.69-2.688 4.183-4.183 2.493-1.496 5.463-1.496 1.495 0 2.796.433 1.322.412 2.298 1.258.997.845 1.517 2.124h.044l.563-3.382h3.598l-3.793 22.891h-3.598l.563-3.468h-.043q-1.04 1.322-2.298 2.19-1.257.866-2.666 1.278-1.41.434-2.905.434m1.106-3.317q2.124 0 3.858-1.062t2.905-2.991 1.582-4.51q.434-2.6-.108-4.53-.52-1.929-1.908-2.991-1.365-1.062-3.49-1.062-1.972 0-3.663.975-1.69.976-2.883 2.883-1.17 1.908-1.647 4.726-.456 2.796.086 4.704.564 1.907 1.93 2.883 1.365.975 3.338.975m15.325 2.883 3.794-22.89h3.511l-.607 3.598h.087q.932-1.778 2.471-2.862 1.54-1.083 3.685-1.083.499 0 .91.043.413.043.63.087l-.608 3.685q-.216-.065-.823-.152-.586-.108-1.388-.108-1.257 0-2.45.585-1.17.585-2.015 1.82t-1.17 3.187l-2.342 14.09zm16.128-8.67 3.641-23.628h4.032l-4.205 23.627zm.477 9.039q-1.214 0-1.93-.867-.715-.868-.52-2.081.174-1.063.997-1.756.846-.716 1.908-.716 1.214 0 1.93.868.714.867.52 2.08-.174 1.063-1.02 1.778-.823.694-1.885.694" aria-label="copy transit schedules to your calendar!" opacity=".173" style="-inkscape-font-specification:&quot;Inter Italic&quot;;font-variation-settings:&quot;opsz&quot;32;mix-blend-mode:color-burn" transform="translate(-.479)"/><path fill="#fff" d="M105.273 332.678q-2.774 0-4.834-1.17-2.037-1.192-3.143-3.317t-1.105-4.942q0-2.688.867-5.267.888-2.58 2.536-4.661 1.669-2.103 3.988-3.338 2.32-1.236 5.203-1.236 1.95 0 3.533.607 1.604.585 2.731 1.67 1.15 1.061 1.734 2.514.607 1.452.542 3.186h-3.728q-.022-1.019-.325-1.864-.304-.845-.91-1.452-.586-.629-1.496-.976t-2.19-.347q-2.08 0-3.706.933-1.626.932-2.753 2.536-1.127 1.582-1.713 3.555-.585 1.972-.585 4.053 0 1.908.607 3.295t1.82 2.146q1.236.737 3.036.737 1.278 0 2.34-.325 1.063-.325 1.908-.932.867-.629 1.496-1.474.65-.867 1.105-1.908h3.794q-.52 1.691-1.54 3.143-1.018 1.453-2.427 2.537t-3.143 1.69q-1.713.607-3.642.607m23.194 0q-2.818 0-4.855-1.192-2.016-1.214-3.122-3.36-1.084-2.146-1.084-4.985 0-2.732.89-5.311.888-2.58 2.535-4.617 1.67-2.06 3.989-3.252 2.32-1.214 5.159-1.214 2.818 0 4.834 1.214 2.037 1.214 3.121 3.382 1.084 2.167 1.084 5.029 0 2.753-.889 5.332-.888 2.558-2.558 4.596-1.647 2.016-3.966 3.208-2.298 1.17-5.138 1.17m.109-3.338q2.146 0 3.771-.954 1.648-.975 2.753-2.58 1.128-1.625 1.691-3.576.564-1.972.564-3.945 0-1.93-.629-3.317t-1.864-2.124q-1.214-.759-2.991-.759-2.081 0-3.707.954t-2.753 2.558-1.734 3.598q-.586 1.973-.586 4.032 0 2.84 1.388 4.487 1.409 1.626 4.097 1.626m13.136 11.879L147 309.267h3.598l-.52 3.317h.022q.91-1.322 2.146-2.146t2.644-1.214q1.41-.39 2.84-.39 2.623 0 4.487 1.17 1.886 1.15 2.883 3.23 1.019 2.081 1.019 4.9 0 2.665-.824 5.245-.802 2.58-2.341 4.66-1.539 2.082-3.728 3.317t-4.964 1.236q-1.54 0-2.84-.456-1.3-.455-2.298-1.344-.997-.91-1.604-2.276h-.022l-2.102 12.703zm12.074-11.944q2.08 0 3.685-.954 1.626-.953 2.731-2.536 1.106-1.604 1.67-3.577.563-1.994.563-4.053 0-2.991-1.453-4.509-1.452-1.517-3.901-1.517-2.103 0-3.75.975-1.626.954-2.775 2.558-1.127 1.583-1.713 3.533-.585 1.951-.585 3.902 0 2.883 1.452 4.53 1.453 1.648 4.076 1.648m12.312 11.944.542-3.252h2.254q.716 0 1.323-.303.607-.282 1.149-.889.563-.607 1.083-1.56l1.778-3.252-5.094-22.696h3.815l2.753 13.18q.347 1.647.65 3.295.325 1.647.607 3.295h-.975q.823-1.648 1.69-3.295l1.735-3.295 7.045-13.18h4.096l-15.043 27.14q-.824 1.474-1.973 2.558-1.127 1.083-2.47 1.669-1.323.585-2.71.585zm48.925-31.952-.52 3.165h-12.4l.52-3.165zm-7.284-6.242h3.685l-3.902 23.584q-.216 1.322.239 1.864.477.52 1.886.52h2.124l-.52 3.165h-2.471q-2.948 0-4.184-1.279-1.236-1.3-.824-3.88zm7.327 29.133 3.793-22.89h3.512l-.607 3.598h.087q.932-1.778 2.47-2.862 1.54-1.083 3.686-1.083.498 0 .91.043t.629.087l-.607 3.685q-.217-.065-.824-.152-.585-.108-1.387-.108-1.257 0-2.45.585-1.17.585-2.015 1.82t-1.171 3.187l-2.341 14.09zm22.544.434q-2.97 0-4.964-1.496-1.994-1.517-2.797-4.184-.78-2.688-.216-6.2.585-3.533 2.254-6.199 1.69-2.688 4.184-4.183 2.493-1.496 5.462-1.496 1.496 0 2.797.433 1.322.412 2.297 1.258.997.845 1.518 2.124h.043l.564-3.382h3.598l-3.793 22.891h-3.599l.564-3.468h-.044q-1.04 1.322-2.297 2.19-1.258.866-2.667 1.278-1.409.434-2.904.434m1.105-3.317q2.125 0 3.859-1.062t2.904-2.991 1.583-4.51q.433-2.6-.109-4.53-.52-1.929-1.907-2.991-1.366-1.062-3.49-1.062-1.973 0-3.663.975-1.691.976-2.883 2.883-1.171 1.908-1.648 4.726-.455 2.796.087 4.704.563 1.907 1.929 2.883 1.366.975 3.338.975m21.2-10.383-2.19 13.266h-3.684l3.771-22.89h3.599l-.91 5.549-1.063-.109q1.648-3.1 3.815-4.487 2.19-1.387 4.813-1.387 2.362 0 4.14 1.04 1.799 1.04 2.644 3.1.846 2.038.326 5.094l-2.32 14.09h-3.685l2.32-14.09q.498-2.97-.63-4.4-1.105-1.453-3.597-1.453-1.713 0-3.252.716-1.539.693-2.623 2.167-1.084 1.475-1.474 3.794m26.51 13.786q-2.34 0-4.183-.693-1.82-.716-2.883-2.146-1.04-1.431-1.04-3.599v-.455l.043-.477h3.642q-.13 2.038.975 3.122 1.127 1.084 3.425 1.084 1.582 0 2.948-.52t2.211-1.475q.867-.953.867-2.232 0-.998-.78-1.583-.759-.607-2.081-.932l-3.555-.867q-2.71-.672-4.14-2.081-1.41-1.409-1.41-3.512 0-2.297 1.28-3.988 1.279-1.713 3.381-2.645 2.124-.932 4.574-.932 3.36 0 5.462 1.67 2.103 1.668 2.103 4.595 0 .282-.022.542t-.065.563h-3.598q.304-1.972-.824-3.078-1.127-1.127-3.121-1.127-1.582 0-2.84.585-1.235.586-1.95 1.561-.716.954-.716 2.081 0 .997.759 1.626.78.607 2.21.954l3.534.867q2.775.672 4.14 2.016 1.366 1.322 1.366 3.36 0 1.842-.78 3.273-.78 1.43-2.146 2.427t-3.122 1.496q-1.734.52-3.663.52m12.985-.52 3.794-22.89h3.685l-3.794 22.89zm6.373-27.356q-1.04 0-1.647-.737t-.456-1.777q.174-1.04 1.02-1.778.866-.737 1.907-.737t1.647.737q.629.737.455 1.778-.151 1.04-1.018 1.777t-1.908.737m16.995 4.465-.52 3.165h-12.4l.52-3.165zm-7.284-6.242h3.685l-3.901 23.584q-.217 1.322.238 1.864.477.52 1.886.52h2.124l-.52 3.165h-2.471q-2.948 0-4.184-1.279-1.235-1.3-.824-3.88zm26.533 29.653q-2.341 0-4.184-.693-1.82-.716-2.883-2.146-1.04-1.431-1.04-3.599v-.455l.043-.477h3.642q-.13 2.038.975 3.122 1.127 1.084 3.425 1.084 1.582 0 2.948-.52t2.211-1.475q.867-.953.867-2.232 0-.998-.78-1.583-.759-.607-2.081-.932l-3.555-.867q-2.71-.672-4.14-2.081-1.41-1.409-1.41-3.512 0-2.297 1.28-3.988 1.278-1.713 3.381-2.645 2.124-.932 4.574-.932 3.36 0 5.462 1.67 2.103 1.668 2.103 4.595 0 .282-.022.542t-.065.563h-3.598q.303-1.972-.824-3.078-1.127-1.127-3.121-1.127-1.583 0-2.84.585-1.235.586-1.95 1.561-.716.954-.716 2.081 0 .997.759 1.626.78.607 2.21.954l3.534.867q2.775.672 4.14 2.016 1.366 1.322 1.366 3.36 0 1.842-.78 3.273-.78 1.43-2.146 2.427t-3.122 1.496q-1.734.52-3.663.52m22.565 0q-2.774 0-4.834-1.17-2.037-1.192-3.143-3.317t-1.105-4.942q0-2.688.867-5.267.888-2.58 2.536-4.661 1.669-2.103 3.988-3.338 2.32-1.236 5.203-1.236 1.95 0 3.533.607 1.604.585 2.731 1.67 1.15 1.061 1.735 2.514.606 1.452.541 3.186h-3.728q-.022-1.019-.325-1.864-.304-.845-.91-1.452-.586-.629-1.496-.976t-2.19-.347q-2.08 0-3.706.933-1.626.932-2.753 2.536-1.127 1.582-1.713 3.555-.585 1.972-.585 4.053 0 1.908.607 3.295t1.82 2.146q1.236.737 3.036.737 1.279 0 2.34-.325 1.063-.325 1.908-.932.867-.629 1.496-1.474.65-.867 1.105-1.908h3.794q-.52 1.691-1.54 3.143-1.018 1.453-2.427 2.537t-3.143 1.69q-1.713.607-3.642.607m19.51-13.916-2.212 13.396h-3.685l5.354-32.298h3.685l-2.492 14.957h-1.128q1.106-2.06 2.428-3.382t2.883-1.95q1.56-.651 3.36-.651 2.32 0 4.097 1.019 1.8.997 2.645 3.013.867 2.016.346 5.072l-2.362 14.22h-3.685l2.319-13.96q.499-2.97-.694-4.465-1.17-1.518-3.75-1.518-1.669 0-3.165.672-1.474.672-2.514 2.125-1.04 1.43-1.43 3.75m27.962 13.916q-2.644 0-4.682-1.018-2.016-1.02-3.165-3.187-1.127-2.168-1.127-5.57 0-3.187.954-5.789.954-2.622 2.666-4.487 1.734-1.864 4.054-2.861 2.32-1.019 5.029-1.019 2.34 0 4.075.759 1.756.737 2.731 2.168.976 1.43.976 3.468 0 2.08-1.106 3.533-1.084 1.43-3.295 2.298-2.19.867-5.527 1.279-3.339.39-7.847.39l.52-3.121q3.967 0 6.59-.26t4.14-.78q1.539-.543 2.168-1.367.65-.823.65-1.929 0-1.452-1.127-2.276t-3.317-.824q-2.298 0-3.945.933-1.647.91-2.71 2.47-1.04 1.561-1.539 3.534t-.498 4.097q0 1.604.455 3.035.477 1.43 1.69 2.32 1.215.888 3.404.888 2.515 0 4.292-1.127 1.8-1.128 2.601-2.905h3.685q-1.192 3.273-3.988 5.31-2.797 2.038-6.807 2.038m22.74-.086q-3.924 0-6.157-2.558t-2.233-6.742q0-2.688.802-5.245.824-2.58 2.363-4.661t3.728-3.317q2.212-1.235 4.964-1.235 1.54 0 2.883.455 1.344.434 2.342 1.322 1.018.867 1.539 2.146h.021l2.125-12.897h3.685l-5.333 32.298h-3.598l.542-3.403h-.022q-1.04 1.365-2.276 2.21-1.214.846-2.58 1.236-1.365.39-2.796.39m.65-3.317q2.059 0 3.685-.932t2.774-2.493q1.149-1.582 1.756-3.533t.607-3.989q0-2.883-1.452-4.53-1.431-1.67-4.076-1.67-2.08 0-3.685.955-1.604.953-2.71 2.557-1.105 1.583-1.69 3.577-.564 1.973-.564 4.054 0 2.97 1.453 4.487 1.452 1.517 3.901 1.517m23.887 3.317q-2.297 0-4.053-.997-1.756-1.02-2.558-3.035-.802-2.038-.304-5.073l2.363-14.22h3.685l-2.32 13.96q-.476 2.97.694 4.487 1.193 1.496 3.75 1.496 1.67 0 3.144-.672 1.495-.672 2.536-2.124 1.062-1.453 1.43-3.75l2.212-13.397h3.685l-3.794 22.891h-3.598l.91-5.55h1.04q-1.625 3.079-3.88 4.531-2.232 1.453-4.942 1.453m24.994-32.732-5.355 32.298h-3.685l5.355-32.298zm9.69 32.818q-2.645 0-4.683-1.018-2.016-1.02-3.165-3.187-1.127-2.168-1.127-5.57 0-3.187.954-5.789.954-2.622 2.666-4.487 1.734-1.864 4.054-2.861 2.319-1.019 5.029-1.019 2.34 0 4.075.759 1.756.737 2.731 2.168.975 1.43.975 3.468 0 2.08-1.105 3.533-1.084 1.43-3.295 2.298-2.19.867-5.527 1.279-3.339.39-7.847.39l.52-3.121q3.967 0 6.59-.26t4.14-.78q1.539-.543 2.167-1.367.65-.823.65-1.929 0-1.452-1.126-2.276-1.128-.824-3.317-.824-2.298 0-3.945.933-1.648.91-2.71 2.47-1.04 1.561-1.539 3.534t-.498 4.097q0 1.604.455 3.035.477 1.43 1.69 2.32 1.215.888 3.404.888 2.514 0 4.292-1.127 1.8-1.128 2.601-2.905h3.685q-1.192 3.273-3.988 5.31-2.797 2.038-6.807 2.038m21.958 0q-2.341 0-4.184-.693-1.82-.716-2.883-2.146-1.04-1.431-1.04-3.599v-.455l.043-.477h3.642q-.13 2.038.975 3.122 1.127 1.084 3.425 1.084 1.582 0 2.948-.52t2.211-1.475q.867-.953.867-2.232 0-.998-.78-1.583-.759-.607-2.081-.932l-3.555-.867q-2.71-.672-4.14-2.081-1.41-1.409-1.41-3.512 0-2.297 1.28-3.988 1.278-1.713 3.381-2.645 2.124-.932 4.574-.932 3.36 0 5.462 1.67 2.103 1.668 2.103 4.595 0 .282-.022.542t-.065.563h-3.598q.303-1.972-.824-3.078-1.127-1.127-3.121-1.127-1.583 0-2.84.585-1.235.586-1.95 1.561-.716.954-.716 2.081 0 .997.759 1.626.78.607 2.21.954l3.534.867q2.775.672 4.14 2.016 1.366 1.322 1.366 3.36 0 1.842-.78 3.273-.78 1.43-2.147 2.427-1.365.998-3.121 1.496-1.734.52-3.663.52m37.847-23.41-.52 3.164h-12.4l.521-3.165zm-7.283-6.243h3.685l-3.902 23.584q-.217 1.322.239 1.864.476.52 1.885.52h2.125l-.52 3.165h-2.472q-2.948 0-4.183-1.279-1.236-1.3-.824-3.88zm16.474 29.653q-2.818 0-4.855-1.192-2.016-1.214-3.122-3.36-1.084-2.146-1.084-4.985 0-2.732.89-5.311.888-2.58 2.535-4.617 1.67-2.06 3.989-3.252 2.32-1.214 5.159-1.214 2.818 0 4.834 1.214 2.037 1.214 3.121 3.382 1.084 2.167 1.084 5.029 0 2.753-.889 5.332-.888 2.558-2.558 4.596-1.647 2.016-3.966 3.208-2.298 1.17-5.138 1.17m.109-3.338q2.146 0 3.771-.954 1.648-.975 2.753-2.58 1.128-1.625 1.691-3.576.564-1.972.564-3.945 0-1.93-.629-3.317t-1.864-2.124q-1.214-.759-2.992-.759-2.08 0-3.706.954t-2.753 2.558-1.734 3.598q-.586 1.973-.586 4.032 0 2.84 1.388 4.487 1.409 1.626 4.097 1.626m24.408 11.879.542-3.252h2.254q.715 0 1.322-.303.607-.282 1.15-.889.563-.607 1.083-1.56l1.777-3.252-5.094-22.696h3.816l2.752 13.18q.347 1.647.65 3.295.326 1.647.608 3.295h-.976q.824-1.648 1.691-3.295l1.734-3.295 7.045-13.18h4.097l-15.044 27.14q-.823 1.474-1.972 2.558-1.127 1.083-2.471 1.669-1.323.585-2.71.585zm32.775-8.54q-2.818 0-4.856-1.193-2.016-1.214-3.121-3.36-1.084-2.146-1.084-4.985 0-2.732.889-5.311.889-2.58 2.536-4.617 1.67-2.06 3.988-3.252 2.32-1.214 5.16-1.214 2.818 0 4.833 1.214 2.038 1.214 3.122 3.382 1.084 2.167 1.084 5.029 0 2.753-.889 5.332-.889 2.558-2.558 4.596-1.647 2.016-3.967 3.208-2.297 1.17-5.137 1.17m.108-3.339q2.146 0 3.772-.954 1.647-.975 2.753-2.58 1.127-1.625 1.69-3.576.564-1.972.564-3.945 0-1.93-.628-3.317-.629-1.387-1.864-2.124-1.214-.759-2.992-.759-2.08 0-3.707.954-1.625.954-2.753 2.558-1.127 1.604-1.734 3.598-.585 1.973-.585 4.032 0 2.84 1.387 4.487 1.41 1.626 4.097 1.626m23 3.252q-2.298 0-4.054-.997-1.756-1.02-2.558-3.035-.802-2.038-.304-5.073l2.363-14.22h3.685l-2.32 13.96q-.476 2.97.694 4.487 1.193 1.496 3.75 1.496 1.67 0 3.144-.672 1.495-.672 2.536-2.124 1.062-1.453 1.43-3.75L654 309.267h3.685l-3.794 22.891h-3.598l.91-5.55h1.04q-1.625 3.079-3.88 4.531-2.232 1.453-4.942 1.453m15.953-.434 3.794-22.89h3.511l-.606 3.598h.086q.932-1.778 2.471-2.862 1.54-1.083 3.685-1.083.499 0 .91.043.413.043.63.087l-.607 3.685q-.217-.065-.824-.152-.585-.108-1.387-.108-1.258 0-2.45.585-1.17.585-2.016 1.82-.845 1.236-1.17 3.187l-2.342 14.09zm34.987.52q-2.775 0-4.834-1.17-2.038-1.192-3.143-3.317-1.106-2.124-1.106-4.942 0-2.688.867-5.267.889-2.58 2.536-4.661 1.67-2.103 3.989-3.338 2.32-1.236 5.202-1.236 1.951 0 3.534.607 1.604.585 2.73 1.67 1.15 1.061 1.735 2.514.607 1.452.542 3.186h-3.728q-.022-1.019-.326-1.864-.303-.845-.91-1.452-.585-.629-1.496-.976-.91-.347-2.189-.347-2.081 0-3.707.933-1.626.932-2.753 2.536-1.127 1.582-1.712 3.555-.585 1.972-.585 4.053 0 1.908.606 3.295.607 1.387 1.821 2.146 1.236.737 3.035.737 1.279 0 2.341-.325t1.908-.932q.867-.629 1.495-1.474.65-.867 1.106-1.908h3.793q-.52 1.691-1.539 3.143-1.018 1.453-2.427 2.537t-3.144 1.69q-1.712.607-3.641.607m22.283-.086q-2.97 0-4.964-1.496-1.994-1.517-2.796-4.184-.78-2.688-.217-6.2.586-3.533 2.255-6.199 1.69-2.688 4.183-4.183 2.493-1.496 5.463-1.496 1.496 0 2.796.433 1.323.412 2.298 1.258.997.845 1.517 2.124h.044l.563-3.382h3.599l-3.794 22.891h-3.598l.563-3.468h-.043q-1.04 1.322-2.298 2.19-1.257.866-2.666 1.278-1.409.434-2.905.434m1.106-3.317q2.124 0 3.858-1.062 1.735-1.062 2.905-2.991t1.583-4.51q.433-2.6-.109-4.53-.52-1.929-1.907-2.991-1.366-1.062-3.49-1.062-1.973 0-3.664.975-1.69.976-2.883 2.883-1.17 1.908-1.647 4.726-.455 2.796.086 4.704.564 1.907 1.93 2.883 1.365.975 3.338.975m24.365-29.415-5.355 32.298h-3.685l5.355-32.298zm9.69 32.818q-2.645 0-4.683-1.018-2.016-1.02-3.165-3.187-1.127-2.168-1.127-5.57 0-3.187.954-5.789.953-2.622 2.666-4.487 1.734-1.864 4.054-2.861 2.319-1.019 5.029-1.019 2.34 0 4.075.759 1.756.737 2.731 2.168.975 1.43.975 3.468 0 2.08-1.105 3.533-1.084 1.43-3.295 2.298-2.19.867-5.527 1.279-3.339.39-7.847.39l.52-3.121q3.967 0 6.59-.26t4.14-.78q1.539-.543 2.167-1.367.65-.823.65-1.929 0-1.452-1.126-2.276-1.128-.824-3.317-.824-2.298 0-3.945.933-1.648.91-2.71 2.47-1.04 1.561-1.539 3.534t-.498 4.097q0 1.604.455 3.035.477 1.43 1.69 2.32 1.215.888 3.404.888 2.514 0 4.292-1.127 1.8-1.128 2.601-2.905h3.685q-1.192 3.273-3.988 5.31-2.797 2.038-6.807 2.038m19.725-13.786-2.19 13.266h-3.684l3.771-22.89h3.599l-.91 5.549-1.063-.109q1.648-3.1 3.815-4.487 2.19-1.387 4.812-1.387 2.363 0 4.14 1.04 1.8 1.04 2.645 3.1.846 2.038.325 5.094l-2.319 14.09h-3.685l2.32-14.09q.498-2.97-.63-4.4-1.105-1.453-3.598-1.453-1.712 0-3.251.716-1.54.693-2.623 2.167-1.084 1.475-1.474 3.794m27.291 13.7q-3.924 0-6.156-2.558-2.233-2.558-2.233-6.742 0-2.688.802-5.245.824-2.58 2.363-4.661t3.728-3.317q2.211-1.235 4.964-1.235 1.54 0 2.883.455 1.344.434 2.341 1.322 1.02.867 1.54 2.146h.021l2.124-12.897h3.685l-5.332 32.298h-3.598l.542-3.403h-.022q-1.04 1.365-2.276 2.21-1.214.846-2.58 1.236-1.365.39-2.796.39m.65-3.317q2.06 0 3.685-.932t2.775-2.493q1.149-1.582 1.756-3.533t.607-3.989q0-2.883-1.453-4.53-1.43-1.67-4.075-1.67-2.08 0-3.685.955-1.604.953-2.71 2.557-1.105 1.583-1.69 3.577-.564 1.973-.564 4.054 0 2.97 1.452 4.487 1.453 1.517 3.902 1.517m24.213 3.317q-2.97 0-4.964-1.496-1.994-1.517-2.796-4.184-.78-2.688-.217-6.2.585-3.533 2.255-6.199 1.69-2.688 4.183-4.183 2.493-1.496 5.463-1.496 1.495 0 2.796.433 1.322.412 2.298 1.258.997.845 1.517 2.124h.043l.564-3.382h3.598l-3.793 22.891h-3.598l.563-3.468h-.043q-1.04 1.322-2.298 2.19-1.257.866-2.666 1.278-1.41.434-2.905.434m1.106-3.317q2.124 0 3.858-1.062t2.905-2.991 1.582-4.51q.434-2.6-.108-4.53-.52-1.929-1.908-2.991-1.365-1.062-3.49-1.062-1.972 0-3.663.975-1.69.976-2.883 2.883-1.17 1.908-1.647 4.726-.456 2.796.086 4.704.564 1.907 1.93 2.883 1.365.975 3.338.975m15.325 2.883 3.794-22.89h3.511l-.607 3.598h.087q.932-1.778 2.471-2.862 1.54-1.083 3.685-1.083.499 0 .91.043.413.043.63.087l-.608 3.685q-.216-.065-.823-.152-.586-.108-1.388-.108-1.257 0-2.45.585-1.17.585-2.015 1.82t-1.17 3.187l-2.342 14.09zm16.128-8.67 3.641-23.628h4.032l-4.205 23.627zm.477 9.039q-1.214 0-1.93-.867-.715-.868-.52-2.081.174-1.063.997-1.756.846-.716 1.908-.716 1.214 0 1.93.867.714.868.52 2.081-.174 1.063-1.02 1.778-.823.694-1.885.694" aria-label="copy transit schedules to your calendar!" style="-inkscape-font-specification:&quot;Inter Italic&quot;;font-variation-settings:&quot;opsz&quot;32" transform="translate(-.479)"/></g></svg>