<?xml version="1.0" encoding="UTF-8" standalone="no"?>
<!-- Created with Inkscape (http://www.inkscape.org/) -->

<svg
   width="960pt"
   height="480pt"
   viewBox="0 0 959.99999 480"
   version="1.1"
   id="svg1"
   xml:space="preserve"
   inkscape:version="1.4.4 (dcaf3e7d9e, 2026-05-05)"
   sodipodi:docname="card.src.svg"
   inkscape:export-filename="card.png"
   inkscape:export-xdpi="96"
   inkscape:export-ydpi="96"
   xmlns:inkscape="http://www.inkscape.org/namespaces/inkscape"
   xmlns:sodipodi="http://sodipodi.sourceforge.net/DTD/sodipodi-0.dtd"
   xmlns:xlink="http://www.w3.org/1999/xlink"
   xmlns="http://www.w3.org/2000/svg"
   xmlns:svg="http://www.w3.org/2000/svg"><sodipodi:namedview
     id="namedview1"
     pagecolor="#ffffff"
     bordercolor="#000000"
     borderopacity="0.25"
     inkscape:showpageshadow="2"
     inkscape:pageopacity="0.0"
     inkscape:pagecheckerboard="0"
     inkscape:deskcolor="#d1d1d1"
     inkscape:document-units="mm"
     inkscape:zoom="0.80951038"
     inkscape:cx="631.86342"
     inkscape:cy="313.15225"
     inkscape:window-width="2560"
     inkscape:window-height="1371"
     inkscape:window-x="0"
     inkscape:window-y="0"
     inkscape:window-maximized="1"
     inkscape:current-layer="g1"
     showguides="false"
     showgrid="false"><sodipodi:guide
       position="143.29431,469.41007"
       orientation="0,-1"
       id="guide10"
       inkscape:locked="false" /><sodipodi:guide
       position="53.223458,465.20507"
       orientation="0,-1"
       id="guide11"
       inkscape:locked="false" /><sodipodi:guide
       position="360.34242,180.71411"
       orientation="0,-1"
       id="guide1"
       inkscape:locked="false" /></sodipodi:namedview><defs
     id="defs1"><linearGradient
       id="a"><stop
         offset="0"
         stop-color="#fff"
         id="stop1" /></linearGradient><linearGradient
       id="c"><stop
         offset=".118"
         stop-color="#d14000"
         id="stop2" /><stop
         offset=".417"
         stop-color="#b58900"
         id="stop3" /><stop
         offset=".58"
         stop-color="#749923"
         id="stop4" /><stop
         offset=".908"
         stop-color="#0084c8"
         id="stop5" /></linearGradient><linearGradient
       xlink:href="#a"
       id="g"
       x1="223.88"
       x2="288.12"
       y1="289.436"
       y2="289.436"
       gradientUnits="userSpaceOnUse" /><linearGradient
       xlink:href="#a"
       id="h"
       x1="320.021"
       x2="359.77701"
       y1="160.282"
       y2="160.282"
       gradientUnits="userSpaceOnUse" /><linearGradient
       xlink:href="#a"
       id="i"
       x1="384.258"
       x2="424.01501"
       y1="160.282"
       y2="160.282"
       gradientUnits="userSpaceOnUse" /><linearGradient
       xlink:href="#a"
       id="j"
       x1="275.65799"
       x2="468.37701"
       y1="230.334"
       y2="230.334"
       gradientUnits="userSpaceOnUse" /><linearGradient
       xlink:href="#a"
       id="k"
       x1="275.65799"
       x2="468.37799"
       y1="313.58099"
       y2="313.58099"
       gradientUnits="userSpaceOnUse" /><linearGradient
       xlink:href="#a"
       id="l"
       x1="275.65799"
       x2="468.37701"
       y1="271.957"
       y2="271.957"
       gradientUnits="userSpaceOnUse" /><linearGradient
       xlink:href="#a"
       id="m"
       x1="219.894"
       x2="292.10599"
       y1="160.282"
       y2="160.282"
       gradientUnits="userSpaceOnUse" /><linearGradient
       xlink:href="#a"
       id="n"
       x1="-111.667"
       x2="197"
       y1="164.66701"
       y2="164.66701"
       gradientTransform="matrix(0.4205044,0,0,0.4205044,83.596,164.552)"
       gradientUnits="userSpaceOnUse" /><linearGradient
       xlink:href="#a"
       id="o"
       x1="113.228"
       x2="185.439"
       y1="356.66699"
       y2="356.66699"
       gradientUnits="userSpaceOnUse" /><linearGradient
       xlink:href="#a"
       id="p"
       x1="27.562"
       x2="475.04401"
       y1="257.74399"
       y2="257.74399"
       gradientUnits="userSpaceOnUse" /><linearGradient
       xlink:href="#a"
       id="q"
       x1="113.228"
       x2="185.439"
       y1="356.66699"
       y2="356.66699"
       gradientTransform="translate(223.843)"
       gradientUnits="userSpaceOnUse" /><linearGradient
       xlink:href="#c"
       id="d"
       x1="34.228001"
       x2="468.37799"
       y1="245.48399"
       y2="245.48399"
       gradientUnits="userSpaceOnUse" /><filter
       id="e"
       width="1"
       height="1"
       x="0"
       y="0"
       color-interpolation-filters="sRGB"><feTurbulence
         baseFrequency="0.03 0.03"
         numOctaves="3"
         result="turbulence"
         seed="48"
         type="fractalNoise"
         id="feTurbulence5" /><feDisplacementMap
         in="SourceGraphic"
         in2="turbulence"
         scale="50"
         xChannelSelector="R"
         yChannelSelector="G"
         id="feDisplacementMap5" /></filter><filter
       id="f"
       width="1.0307085"
       height="1.0241115"
       x="-0.015353215"
       y="0"
       color-interpolation-filters="sRGB"><feTurbulence
         baseFrequency="0.2 0.2"
         numOctaves="3"
         result="turbulence"
         seed="48"
         type="fractalNoise"
         id="feTurbulence6" /><feDisplacementMap
         in="SourceGraphic"
         in2="turbulence"
         scale="1.732"
         xChannelSelector="R"
         yChannelSelector="G"
         id="feDisplacementMap6" /></filter><linearGradient
       inkscape:collect="always"
       xlink:href="#c"
       id="linearGradient7"
       x1="0"
       y1="240"
       x2="960"
       y2="240"
       gradientUnits="userSpaceOnUse"
       gradientTransform="translate(0)" /><filter
       style="color-interpolation-filters:sRGB;"
       inkscape:label="Roughen"
       id="filter29"
       x="0"
       y="0"
       width="1"
       height="1"><feTurbulence
         type="fractalNoise"
         numOctaves="3"
         seed="146"
         baseFrequency="2 2"
         result="turbulence"
         id="feTurbulence29" /><feDisplacementMap
         in="SourceGraphic"
         in2="turbulence"
         scale="0.6"
         yChannelSelector="G"
         xChannelSelector="R"
         id="feDisplacementMap29" /></filter><filter
       style="color-interpolation-filters:sRGB;"
       inkscape:label="Roughen"
       id="filter34"
       x="0"
       y="0"
       width="1"
       height="1"><feTurbulence
         type="fractalNoise"
         numOctaves="3"
         seed="633"
         baseFrequency="3.2862219036697251 2"
         result="turbulence"
         id="feTurbulence34" /><feDisplacementMap
         in="SourceGraphic"
         in2="turbulence"
         scale="100"
         yChannelSelector="G"
         xChannelSelector="R"
         id="feDisplacementMap34" /></filter></defs><g
     inkscape:label="Layer 1"
     inkscape:groupmode="layer"
     id="layer1"><rect
       style="font-variation-settings:'opsz' 32, 'wght' 800;fill:url(#linearGradient7);stroke-width:0.1725;paint-order:fill markers stroke;filter:url(#filter34)"
       id="rect1"
       width="960"
       height="480"
       x="-4.4312655e-13"
       y="-1.6466025e-13" /><g
       id="text1"
       style="font-size:36px;font-family:'Noto Color Emoji';-inkscape-font-specification:'Noto Color Emoji, Normal';letter-spacing:-1.035px;fill:#ffffff;fill-opacity:1;stroke-width:0.1725;paint-order:fill markers stroke;filter:url(#filter29)"
       aria-label="transical"
       transform="matrix(3.6504217,0,0,3.6504217,130.75463,127.32612)"><path
         style="font-family:Inter;-inkscape-font-specification:'Inter, @opsz=32,wght=800';font-feature-settings:'ss03';font-variation-settings:'opsz' 32, 'wght' 800;fill:#ffffff;fill-opacity:1"
         d="m 64.980934,19.857422 v 4.675781 H 51.937965 v -4.675781 z m -3.814453,-7.193435 v 19.5157 c 0,0.597657 0.117188,1.007813 0.351563,1.230469 0.234375,0.222657 0.691406,0.333985 1.371093,0.333985 h 1.125 0.966797 v 4.675781 H 63.539528 61.5532 c -2.226563,0 -3.861328,-0.416016 -4.904297,-1.248047 -1.03125,-0.84375 -1.546875,-2.167969 -1.546875,-3.972656 V 19.857422 16.868987 Z"
         id="path7"
         sodipodi:nodetypes="ccccccsssccccscsccc" /><path
         style="font-family:Inter;-inkscape-font-specification:'Inter, @opsz=32,wght=800';font-variation-settings:'opsz' 32, 'wght' 800;fill:#ffffff;fill-opacity:1"
         d="m 66.371716,38.419922 v -18.5625 h 5.853515 v 3.269531 h 0.05274 q 0.509765,-1.775391 1.582031,-2.548828 1.089844,-0.791016 2.953125,-0.791016 0.492187,0 0.878906,0.01758 0.404297,0 0.773438,0.01758 v 4.992187 q -0.333985,-0.01758 -1.03711,-0.03516 -0.685547,-0.01758 -1.353515,-0.01758 -1.072266,0 -1.898438,0.492187 -0.826172,0.47461 -1.300781,1.40625 -0.457031,0.931641 -0.457031,2.25 v 9.509766 z m 18.675708,0.316406 q -1.863281,0 -3.304687,-0.597656 -1.423828,-0.615235 -2.25,-1.828125 -0.808594,-1.230469 -0.808594,-3.076172 0,-1.564453 0.5625,-2.619141 0.5625,-1.072265 1.546875,-1.740234 1.001953,-0.667969 2.302734,-1.001953 1.31836,-0.351563 2.794922,-0.47461 1.652344,-0.140625 2.654297,-0.298828 1.001953,-0.175781 1.441406,-0.474609 0.439454,-0.316406 0.439454,-0.878906 v -0.08789 q 0,-0.5625 -0.316407,-0.966797 -0.316406,-0.421875 -0.896484,-0.65039 -0.580078,-0.246094 -1.371094,-0.246094 -0.84375,0 -1.458984,0.263672 -0.615235,0.246093 -0.966797,0.720703 -0.351563,0.457031 -0.421875,1.089844 h -5.625 q 0.140625,-2.021485 1.177734,-3.445313 1.03711,-1.441406 2.917969,-2.197266 1.898438,-0.773437 4.587891,-0.773437 2.021484,0 3.568359,0.439453 1.564453,0.421875 2.636719,1.265625 1.072265,0.826172 1.617187,2.039063 0.544922,1.195312 0.544922,2.724609 v 12.498047 h -5.90625 V 35.81836 h -0.07031 q -0.5625,1.001953 -1.31836,1.652344 -0.755859,0.632813 -1.757812,0.949219 -1.001953,0.316406 -2.320313,0.316406 z m 1.845703,-3.955078 q 1.001954,0 1.810547,-0.386719 0.826172,-0.386719 1.300782,-1.054687 0.474609,-0.685547 0.474609,-1.59961 v -1.6875 q -0.246094,0.105469 -0.580078,0.210938 -0.333985,0.105469 -0.75586,0.193359 -0.404296,0.08789 -0.896484,0.175781 -0.492187,0.08789 -1.054687,0.19336 -0.808594,0.123047 -1.441407,0.386719 -0.615234,0.263671 -0.984375,0.703125 -0.351562,0.421875 -0.351562,1.037109 0,0.580078 0.316406,0.984375 0.316406,0.404297 0.861328,0.632812 0.5625,0.210938 1.300781,0.210938 z m 17.914223,-6.451172 v 10.089844 h -6.046879 v -18.5625 h 5.976559 v 4.974609 h -0.89648 q 0.86133,-2.460937 2.49609,-3.919922 1.63477,-1.458984 4.30664,-1.458984 2.02149,0 3.44532,0.878906 1.42382,0.861328 2.17968,2.496094 0.75586,1.634766 0.75586,3.919922 v 11.671875 h -6.04687 v -10.40625 q 0,-1.652344 -0.79102,-2.513672 -0.79101,-0.878906 -2.23242,-0.878906 -0.94922,0 -1.66992,0.404297 -0.70313,0.404296 -1.08984,1.230468 -0.38672,0.808594 -0.38672,2.074219 z m 22.7482,10.546875 q -2.56641,0 -4.55273,-0.773437 -1.98633,-0.773438 -3.16407,-2.214844 -1.17773,-1.441406 -1.35351,-3.410156 h 5.95898 q 0.14063,1.019531 0.91406,1.634765 0.79102,0.597656 2.10938,0.597656 1.24805,0 1.95117,-0.439453 0.70313,-0.439453 0.70313,-1.142578 0,-0.615234 -0.58008,-0.984375 -0.5625,-0.386719 -1.66992,-0.580078 l -3.35743,-0.597656 q -2.74218,-0.492188 -4.18359,-1.88086 -1.42383,-1.388671 -1.42383,-3.585937 0,-1.828125 0.98438,-3.181641 1.00195,-1.353515 2.86523,-2.091797 1.88086,-0.755859 4.46485,-0.755859 2.60156,0 4.5,0.791016 1.89843,0.773437 2.95312,2.214843 1.07227,1.423829 1.125,3.410157 h -5.57227 q -0.0176,-0.984375 -0.80859,-1.617188 -0.77344,-0.65039 -1.98633,-0.65039 -1.17773,0 -1.8457,0.457031 -0.65039,0.457031 -0.65039,1.142578 0,0.580078 0.52734,0.966797 0.52735,0.386719 1.47657,0.5625 l 3.72656,0.685547 q 2.88281,0.527343 4.23633,1.757812 1.37109,1.230469 1.37109,3.304688 0,1.898437 -1.10742,3.339843 -1.08985,1.441407 -3.0586,2.25 -1.95117,0.791016 -4.55273,0.791016 z"
         id="path8" /><path
         style="font-size:46px;font-family:Rokkitt;-inkscape-font-specification:'Rokkitt, @wght=725';font-variation-settings:'wght' 725;fill:#ffffff;fill-opacity:1"
         d="m 137.82031,38.419922 v -4.094 h 2.576 v -10.258 h -2.806 v -4.048 h 8.694 v 14.306 h 2.3 v 4.094 z"
         id="path9"
         sodipodi:nodetypes="ccccccccccc" /><path
         style="font-family:Inter;-inkscape-font-specification:'Inter, @opsz=32,wght=800';font-variation-settings:'opsz' 32, 'wght' 800;fill:#ffffff;fill-opacity:1"
         d="m 158.15299,38.841797 q -2.86523,0 -5.02734,-1.212891 -2.16211,-1.230469 -3.375,-3.410156 -1.19531,-2.179688 -1.19531,-5.080078 0,-2.882813 1.19531,-5.0625 1.21289,-2.197266 3.375,-3.410156 2.16211,-1.230469 5.02734,-1.230469 1.9336,0 3.55078,0.5625 1.63477,0.5625 2.83008,1.599609 1.21289,1.019531 1.91602,2.44336 0.70312,1.40625 0.80859,3.111328 h -5.83594 q -0.0703,-0.650391 -0.3164,-1.195313 -0.2461,-0.544922 -0.66797,-0.93164 -0.4043,-0.386719 -0.94922,-0.580079 -0.54492,-0.210937 -1.21289,-0.210937 -1.125,0 -1.93359,0.597656 -0.8086,0.580078 -1.23047,1.6875 -0.42188,1.107422 -0.42188,2.619141 0,1.511719 0.42188,2.61914 0.42187,1.107422 1.23047,1.705079 0.80859,0.580078 1.93359,0.580078 0.66797,0 1.21289,-0.19336 0.54492,-0.210937 0.93164,-0.597656 0.4043,-0.404297 0.65039,-0.949219 0.24609,-0.5625 0.33399,-1.230468 h 5.85351 q -0.0527,1.705078 -0.73828,3.128906 -0.68555,1.40625 -1.89844,2.460937 -1.21289,1.03711 -2.86523,1.617188 -1.63477,0.5625 -3.60352,0.5625 z m 16.58885,-0.105469 q -1.86328,0 -3.30468,-0.597656 -1.42383,-0.615235 -2.25,-1.828125 -0.8086,-1.230469 -0.8086,-3.076172 0,-1.564453 0.5625,-2.619141 0.5625,-1.072265 1.54688,-1.740234 1.00195,-0.667969 2.30273,-1.001953 1.31836,-0.351563 2.79492,-0.47461 1.65235,-0.140625 2.6543,-0.298828 1.00195,-0.175781 1.44141,-0.474609 0.43945,-0.316406 0.43945,-0.878906 v -0.08789 q 0,-0.5625 -0.31641,-0.966797 -0.3164,-0.421875 -0.89648,-0.65039 -0.58008,-0.246094 -1.37109,-0.246094 -0.84375,0 -1.45899,0.263672 -0.61523,0.246093 -0.9668,0.720703 -0.35156,0.457031 -0.42187,1.089844 h -5.625 q 0.14062,-2.021485 1.17773,-3.445313 1.03711,-1.441406 2.91797,-2.197266 1.89844,-0.773437 4.58789,-0.773437 2.02149,0 3.56836,0.439453 1.56446,0.421875 2.63672,1.265625 1.07227,0.826172 1.61719,2.039063 0.54492,1.195312 0.54492,2.724609 v 12.498047 h -5.90625 V 35.81836 h -0.0703 q -0.5625,1.001953 -1.31836,1.652344 -0.75586,0.632813 -1.75781,0.949219 -1.00196,0.316406 -2.32032,0.316406 z m 1.84571,-3.955078 q 1.00195,0 1.81054,-0.386719 0.82618,-0.386719 1.30079,-1.054687 0.4746,-0.685547 0.4746,-1.59961 v -1.6875 q -0.24609,0.105469 -0.58007,0.210938 -0.33399,0.105469 -0.75586,0.193359 -0.4043,0.08789 -0.89649,0.175781 -0.49218,0.08789 -1.05468,0.19336 -0.8086,0.123047 -1.44141,0.386719 -0.61524,0.263671 -0.98438,0.703125 -0.35156,0.421875 -0.35156,1.037109 0,0.580078 0.31641,0.984375 0.3164,0.404297 0.86133,0.632812 0.5625,0.210938 1.30078,0.210938 z m 17.91421,-22.552734 v 26.191406 h -6.04687 V 12.228516 Z"
         id="path10" /><circle
         style="font-variation-settings:'opsz' 32, 'wght' 800;fill:#ffffff;fill-opacity:1;stroke:none;stroke-width:0.197913;stroke-opacity:1;paint-order:fill markers stroke"
         id="path1"
         cx="143.29079"
         cy="14.062588"
         r="3.4726651" /></g><g
       filter="url(#f)"
       transform="matrix(0.39489882,0,0,0.39489882,108.45526,123.30952)"
       id="g16"><path
         fill="url(#g)"
         d="M 238.936,223.667 H 288.12 V 355.205 H 223.88 V 239.082 a 15.056,15.415 0 0 1 15.056,-15.415"
         id="path8-8"
         style="fill:url(#g)" /><path
         fill="none"
         stroke="url(#h)"
         stroke-width="13.333"
         d="m 336.725,132.871 h 6.348 c 5.56,0 10.037,4.528 10.037,10.153 v 34.517 c 0,5.624 -4.476,10.152 -10.037,10.152 h -6.348 c -5.561,0 -10.038,-4.528 -10.038,-10.152 v -34.517 c 0,-5.625 4.477,-10.153 10.038,-10.153 z"
         id="path9-3"
         style="stroke:url(#h)" /><path
         fill="none"
         stroke="url(#i)"
         stroke-width="13.333"
         d="m 400.963,132.871 h 6.348 c 5.56,0 10.037,4.528 10.037,10.153 v 34.517 c 0,5.624 -4.477,10.152 -10.037,10.152 h -6.348 c -5.561,0 -10.038,-4.528 -10.038,-10.152 v -34.517 c 0,-5.625 4.477,-10.153 10.038,-10.153 z"
         id="path10-5"
         style="stroke:url(#i)" /><path
         fill="none"
         stroke="url(#j)"
         stroke-width="13.333"
         d="m 275.658,230.334 h 192.72"
         id="path11"
         style="stroke:url(#j)" /><path
         fill="none"
         stroke="url(#k)"
         stroke-width="13.333"
         d="m 275.658,313.581 h 192.72"
         id="path12"
         style="stroke:url(#k)" /><path
         fill="none"
         stroke="url(#l)"
         stroke-width="13.333"
         d="m 275.658,271.957 h 192.72"
         id="path13"
         style="stroke:url(#l)" /><ellipse
         cx="256"
         cy="160.282"
         fill="url(#m)"
         rx="36.105999"
         ry="36.518002"
         id="ellipse13"
         style="fill:url(#m)" /><path
         fill="none"
         stroke="url(#n)"
         stroke-width="13.333"
         d="m 143.592,187.162 -88.207,89.215 a 62.8,62.8 0 0 0 46.152,20.213 62.795,62.795 0 0 0 62.797,-62.795 62.8,62.8 0 0 0 -20.742,-46.633 z"
         paint-order="fill markers stroke"
         id="path14"
         style="stroke:url(#n)" /><circle
         cx="149.33299"
         cy="356.66699"
         r="29.771999"
         fill="none"
         stroke="url(#o)"
         stroke-width="12.667"
         paint-order="fill markers stroke"
         id="circle14"
         style="stroke:url(#o)" /><path
         fill="none"
         stroke="url(#p)"
         stroke-width="13.333"
         d="m 179.07,355.205 h 249.159 a 40.15,40.609 0 0 0 40.149,-40.608 V 200.89 a 40.15,40.609 0 0 0 -40.15,-40.608 h -10.88 v 17.26 c 0,5.624 -4.476,10.151 -10.036,10.151 h -6.35 c -5.56,0 -10.036,-4.527 -10.036,-10.15 v -17.26 H 353.11 v 17.26 c 0,5.623 -4.476,10.15 -10.036,10.15 h -6.35 c -5.56,0 -10.036,-4.527 -10.036,-10.15 v -17.26 H 186.8 a 40.15,40.609 0 0 0 -28.392,11.893 L 45.988,285.88 a 40.15,40.609 0 0 0 28.39,69.325 h 45.219"
         id="path15"
         style="stroke:url(#p)" /><path
         fill="none"
         stroke="url(#q)"
         stroke-width="12.667"
         d="m 402.913,355.205 a 30,30 0 0 1 0.035,1.462 29.77,29.77 0 0 1 -29.772,29.772 29.77,29.77 0 0 1 -29.772,-29.772 30,30 0 0 1 0.036,-1.462"
         paint-order="fill markers stroke"
         id="path16"
         style="stroke:url(#q)" /></g><g
       id="g1"
       transform="translate(-0.4786735)"><path
         style="font-style:italic;font-size:44.394px;font-family:Inter;-inkscape-font-specification:'Inter Italic';font-variation-settings:'opsz' 32;letter-spacing:0px;opacity:0.17295024;mix-blend-mode:color-burn;fill:#1f00ff;fill-opacity:1;stroke-width:0.153159;paint-order:fill markers stroke"
         d="m 106.45113,333.85635 q -2.77463,0 -4.83392,-1.17055 -2.037613,-1.19222 -3.143128,-3.31654 -1.105515,-2.12432 -1.105515,-4.9423 0,-2.68792 0.867071,-5.26746 0.888747,-2.57953 2.536172,-4.6605 1.66911,-2.10264 3.98853,-3.33822 2.31941,-1.23557 5.20242,-1.23557 1.95091,0 3.53331,0.60695 1.60408,0.58527 2.73127,1.66911 1.14887,1.06216 1.73414,2.5145 0.60695,1.45234 0.54192,3.18648 h -3.7284 q -0.0217,-1.0188 -0.32515,-1.8642 -0.30348,-0.84539 -0.91042,-1.45234 -0.58528,-0.62863 -1.4957,-0.97546 -0.91043,-0.34682 -2.18935,-0.34682 -2.08097,0 -3.70673,0.9321 -1.62576,0.9321 -2.75295,2.53618 -1.12719,1.5824 -1.71246,3.55499 -0.58527,1.97258 -0.58527,4.05355 0,1.90755 0.60695,3.29487 0.60694,1.38731 1.82084,2.146 1.23558,0.73701 3.03475,0.73701 1.27893,0 2.34109,-0.32516 1.06216,-0.32515 1.90755,-0.9321 0.86707,-0.62862 1.4957,-1.47402 0.6503,-0.86707 1.10551,-1.90755 h 3.79344 q -0.52024,1.69079 -1.53905,3.14313 -1.01881,1.45234 -2.4278,2.53618 -1.40899,1.08384 -3.14313,1.69079 -1.71246,0.60695 -3.64169,0.60695 z m 23.19413,0 q -2.81798,0 -4.8556,-1.19222 -2.01594,-1.2139 -3.12145,-3.3599 -1.08384,-2.146 -1.08384,-4.98566 0,-2.73127 0.88875,-5.3108 0.88875,-2.57954 2.53618,-4.61715 1.66911,-2.05929 3.98852,-3.25152 2.31942,-1.21389 5.15907,-1.21389 2.81798,0 4.83392,1.21389 2.03761,1.2139 3.12145,3.38158 1.08384,2.16767 1.08384,5.02901 0,2.75294 -0.88875,5.33248 -0.88874,2.55786 -2.55785,4.59547 -1.64744,2.01594 -3.96685,3.20816 -2.29774,1.17055 -5.13739,1.17055 z m 0.10838,-3.33822 q 2.146,0 3.77176,-0.95378 1.64743,-0.97546 2.75295,-2.57954 1.12719,-1.62575 1.69078,-3.57666 0.5636,-1.97259 0.5636,-3.94517 0,-1.92923 -0.62863,-3.31654 -0.62862,-1.38732 -1.8642,-2.12433 -1.2139,-0.75868 -2.99139,-0.75868 -2.08097,0 -3.70673,0.95377 -1.62575,0.95378 -2.75295,2.55786 -1.12719,1.60408 -1.73414,3.59834 -0.58527,1.97259 -0.58527,4.03188 0,2.83966 1.38731,4.48709 1.40899,1.62576 4.09691,1.62576 z m 13.13612,11.87886 5.28913,-31.95154 h 3.59834 l -0.52024,3.31654 h 0.0217 q 0.91043,-1.32228 2.146,-2.146 1.23558,-0.82371 2.64457,-1.2139 1.40899,-0.39018 2.83965,-0.39018 2.62289,0 4.48709,1.17055 1.88588,1.14887 2.88301,3.22983 1.01881,2.08097 1.01881,4.89895 0,2.66624 -0.82372,5.24578 -0.80204,2.57953 -2.34109,4.6605 -1.53905,2.08097 -3.7284,3.31654 -2.18935,1.23558 -4.96398,1.23558 -1.53905,0 -2.83966,-0.45521 -1.3006,-0.45521 -2.29773,-1.34396 -0.99713,-0.91042 -1.60408,-2.27606 h -0.0217 l -2.10264,12.70258 z m 12.07395,-11.94389 q 2.08097,0 3.68505,-0.95378 1.62576,-0.95378 2.73127,-2.53618 1.10552,-1.60408 1.66911,-3.57667 0.5636,-1.99426 0.5636,-4.05355 0,-2.99139 -1.45234,-4.50877 -1.45235,-1.51737 -3.90182,-1.51737 -2.10265,0 -3.75008,0.97545 -1.62576,0.95378 -2.77463,2.55786 -1.12719,1.58241 -1.71246,3.53331 -0.58527,1.95091 -0.58527,3.90182 0,2.88301 1.45234,4.53044 1.45234,1.64744 4.07523,1.64744 z m 12.3124,11.94389 0.54192,-3.25151 h 2.25438 q 0.71533,0 1.32228,-0.30348 0.60695,-0.2818 1.14887,-0.88875 0.5636,-0.60694 1.08384,-1.56072 l 1.77749,-3.25152 -5.09404,-22.69556 h 3.81511 l 2.75295,13.17947 q 0.34683,1.64743 0.6503,3.29486 0.32516,1.64744 0.60695,3.29487 h -0.97545 q 0.82372,-1.64743 1.69079,-3.29487 0.86707,-1.64743 1.73414,-3.29486 l 7.04494,-13.17947 h 4.09691 l -15.04367,27.1393 q -0.82372,1.47402 -1.97258,2.55786 -1.1272,1.08383 -2.47115,1.66911 -1.32229,0.58527 -2.7096,0.58527 -0.5636,0 -1.12719,0 -0.5636,0 -1.12719,0 z m 48.92444,-31.95154 -0.52024,3.1648 H 203.2812 l 0.52024,-3.1648 z m -7.28339,-6.24291 h 3.68505 l -3.90182,23.58431 q -0.21677,1.32229 0.23845,1.86421 0.47689,0.52024 1.88587,0.52024 0.49857,0 1.06217,0 0.58527,0 1.06216,0 l -0.52025,3.1648 q -0.56359,0 -1.23557,0 -0.67198,0 -1.23558,0 -2.94803,0 -4.18361,-1.27892 -1.23558,-1.30061 -0.82372,-3.88014 z m 7.32675,29.13356 3.79343,-22.89065 h 3.51163 l -0.60694,3.59834 h 0.0867 q 0.9321,-1.77749 2.47115,-2.86133 1.53905,-1.08384 3.68505,-1.08384 0.49857,0 0.91043,0.0434 0.41185,0.0434 0.62862,0.0867 l -0.60695,3.68505 q -0.21677,-0.065 -0.82371,-0.15174 -0.58528,-0.10838 -1.38732,-0.10838 -1.25725,0 -2.44947,0.58527 -1.17055,0.58527 -2.01594,1.82085 -0.84539,1.23557 -1.17054,3.18648 l -2.34109,14.08989 z m 22.54383,0.43354 q -2.96971,0 -4.96398,-1.4957 -1.99426,-1.51737 -2.7963,-4.18361 -0.78036,-2.68792 -0.21677,-6.19955 0.58528,-3.53332 2.25439,-6.19956 1.69078,-2.68791 4.18361,-4.18361 2.49283,-1.4957 5.46254,-1.4957 1.4957,0 2.79631,0.43354 1.32228,0.41186 2.29773,1.25725 0.99713,0.84539 1.51738,2.12432 h 0.0434 l 0.56359,-3.38157 h 3.59835 l -3.79344,22.89065 h -3.59834 l 0.5636,-3.46828 h -0.0434 q -1.04048,1.32229 -2.29773,2.18936 -1.25725,0.86707 -2.66624,1.27892 -1.40899,0.43354 -2.90469,0.43354 z m 1.10552,-3.31654 q 2.12432,0 3.85846,-1.06217 1.73414,-1.06216 2.90468,-2.99139 1.17055,-1.92923 1.58241,-4.50876 0.43353,-2.60121 -0.10839,-4.53045 -0.52024,-1.92923 -1.90755,-2.99139 -1.36564,-1.06216 -3.48996,-1.06216 -1.97258,0 -3.66337,0.97545 -1.69079,0.97546 -2.88301,2.88301 -1.17054,1.90756 -1.64743,4.72554 -0.45522,2.7963 0.0867,4.70385 0.5636,1.90756 1.92923,2.88301 1.36564,0.97546 3.33823,0.97546 z m 21.19986,-10.38317 -2.18935,13.26617 h -3.68505 l 3.77176,-22.89065 h 3.59834 l -0.91042,5.54925 -1.06216,-0.10839 q 1.64743,-3.09977 3.8151,-4.48708 2.18936,-1.38732 4.81224,-1.38732 2.36277,0 4.14027,1.04049 1.79917,1.04048 2.64456,3.09977 0.84539,2.03762 0.32515,5.09404 l -2.31941,14.08989 h -3.68505 l 2.31941,-14.08989 q 0.49857,-2.96971 -0.62862,-4.40038 -1.10552,-1.45234 -3.59835,-1.45234 -1.71246,0 -3.25151,0.71533 -1.53905,0.69366 -2.62289,2.16768 -1.08383,1.47402 -1.47402,3.79343 z m 26.51068,13.78642 q -2.34109,0 -4.18362,-0.69366 -1.82084,-0.71533 -2.883,-2.146 -1.04049,-1.43066 -1.04049,-3.59834 0,-0.23844 0,-0.45521 0.0217,-0.23845 0.0434,-0.47689 h 3.64169 q -0.13006,2.03761 0.97545,3.12145 1.1272,1.08384 3.42493,1.08384 1.58241,0 2.94804,-0.52024 1.36564,-0.52024 2.21103,-1.47402 0.86707,-0.95378 0.86707,-2.23271 0,-0.99713 -0.78036,-1.5824 -0.75869,-0.60695 -2.08097,-0.9321 l -3.55499,-0.86707 q -2.70959,-0.67198 -4.14026,-2.08097 -1.40899,-1.40899 -1.40899,-3.51164 0,-2.29773 1.27893,-3.98852 1.27893,-1.71246 3.38157,-2.64456 2.12433,-0.9321 4.5738,-0.9321 3.3599,0 5.46254,1.66911 2.10265,1.66911 2.10265,4.59547 0,0.2818 -0.0217,0.54192 -0.0217,0.26012 -0.065,0.56359 h -3.59834 q 0.30347,-1.97258 -0.82372,-3.0781 -1.12719,-1.12719 -3.12145,-1.12719 -1.5824,0 -2.83966,0.58528 -1.23557,0.58527 -1.9509,1.56072 -0.71534,0.95378 -0.71534,2.08097 0,0.99713 0.75869,1.62576 0.78036,0.60695 2.21103,0.95377 l 3.53331,0.86708 q 2.77463,0.67197 4.14026,2.01593 1.36564,1.32229 1.36564,3.3599 0,1.84253 -0.78037,3.27319 -0.78036,1.43067 -2.146,2.4278 -1.36563,0.99713 -3.12145,1.49569 -1.73414,0.52025 -3.66337,0.52025 z m 12.98437,-0.52025 3.79343,-22.89065 h 3.68505 l -3.79343,22.89065 z m 6.37297,-27.35606 q -1.04049,0 -1.64744,-0.73701 -0.60695,-0.73701 -0.45521,-1.7775 0.17341,-1.04048 1.01881,-1.77749 0.86707,-0.73701 1.90755,-0.73701 1.04049,0 1.64744,0.73701 0.62862,0.73701 0.45521,1.77749 -0.15174,1.04049 -1.01881,1.7775 -0.86707,0.73701 -1.90755,0.73701 z m 16.99458,4.46541 -0.52024,3.1648 h -12.3991 l 0.52024,-3.1648 z m -7.28339,-6.24291 h 3.68505 l -3.90182,23.58431 q -0.21676,1.32229 0.23845,1.86421 0.47689,0.52024 1.88588,0.52024 0.49856,0 1.06216,0 0.58527,0 1.06216,0 l -0.52024,3.1648 q -0.5636,0 -1.23558,0 -0.67198,0 -1.23557,0 -2.94804,0 -4.18362,-1.27892 -1.23557,-1.30061 -0.82371,-3.88014 z m 26.53235,29.65381 q -2.34109,0 -4.18362,-0.69366 -1.82085,-0.71533 -2.88301,-2.146 -1.04048,-1.43066 -1.04048,-3.59834 0,-0.23844 0,-0.45521 0.0217,-0.23845 0.0433,-0.47689 h 3.6417 q -0.13006,2.03761 0.97545,3.12145 1.12719,1.08384 3.42493,1.08384 1.5824,0 2.94804,-0.52024 1.36563,-0.52024 2.21103,-1.47402 0.86707,-0.95378 0.86707,-2.23271 0,-0.99713 -0.78037,-1.5824 -0.75868,-0.60695 -2.08096,-0.9321 l -3.55499,-0.86707 q -2.7096,-0.67198 -4.14026,-2.08097 -1.40899,-1.40899 -1.40899,-3.51164 0,-2.29773 1.27893,-3.98852 1.27892,-1.71246 3.38157,-2.64456 2.12432,-0.9321 4.5738,-0.9321 3.35989,0 5.46254,1.66911 2.10264,1.66911 2.10264,4.59547 0,0.2818 -0.0217,0.54192 -0.0217,0.26012 -0.065,0.56359 h -3.59834 q 0.30347,-1.97258 -0.82372,-3.0781 -1.12719,-1.12719 -3.12145,-1.12719 -1.58241,0 -2.83966,0.58528 -1.23558,0.58527 -1.95091,1.56072 -0.71533,0.95378 -0.71533,2.08097 0,0.99713 0.75869,1.62576 0.78036,0.60695 2.21102,0.95377 l 3.53332,0.86708 q 2.77462,0.67197 4.14026,2.01593 1.36563,1.32229 1.36563,3.3599 0,1.84253 -0.78036,3.27319 -0.78036,1.43067 -2.146,2.4278 -1.36564,0.99713 -3.12145,1.49569 -1.73414,0.52025 -3.66337,0.52025 z m 22.56551,0 q -2.77463,0 -4.83392,-1.17055 -2.03762,-1.19222 -3.14313,-3.31654 -1.10552,-2.12432 -1.10552,-4.9423 0,-2.68792 0.86707,-5.26746 0.88875,-2.57953 2.53619,-4.6605 1.66911,-2.10264 3.98852,-3.33822 2.31941,-1.23557 5.20242,-1.23557 1.95091,0 3.53331,0.60695 1.60408,0.58527 2.73127,1.66911 1.14887,1.06216 1.73415,2.5145 0.60694,1.45234 0.54191,3.18648 h -3.7284 q -0.0217,-1.0188 -0.32515,-1.8642 -0.30347,-0.84539 -0.91042,-1.45234 -0.58528,-0.62863 -1.4957,-0.97546 -0.91042,-0.34682 -2.18935,-0.34682 -2.08097,0 -3.70673,0.9321 -1.62576,0.9321 -2.75295,2.53618 -1.12719,1.5824 -1.71246,3.55499 -0.58527,1.97258 -0.58527,4.05355 0,1.90755 0.60695,3.29487 0.60695,1.38731 1.82084,2.146 1.23558,0.73701 3.03475,0.73701 1.27893,0 2.34109,-0.32516 1.06216,-0.32515 1.90755,-0.9321 0.86708,-0.62862 1.4957,-1.47402 0.6503,-0.86707 1.10552,-1.90755 h 3.79343 q -0.52024,1.69079 -1.53905,3.14313 -1.01881,1.45234 -2.4278,2.53618 -1.40899,1.08384 -3.14313,1.69079 -1.71246,0.60695 -3.64169,0.60695 z m 19.50907,-13.91648 -2.21103,13.39623 h -3.68505 l 5.35416,-32.29836 h 3.68505 l -2.49283,14.95696 h -1.12719 q 1.10552,-2.05929 2.4278,-3.38158 1.32228,-1.32228 2.88301,-1.9509 1.56072,-0.65031 3.35989,-0.65031 2.31942,0 4.09691,1.01881 1.79917,0.99713 2.64457,3.01307 0.86707,2.01594 0.34682,5.07236 l -2.36276,14.21995 h -3.68505 l 2.31941,-13.95983 q 0.49857,-2.96971 -0.69365,-4.46541 -1.17055,-1.51737 -3.75008,-1.51737 -1.66911,0 -3.16481,0.67198 -1.47402,0.67198 -2.5145,2.12432 -1.04049,1.43067 -1.43067,3.75008 z m 27.96302,13.91648 q -2.64456,0 -4.68218,-1.01881 -2.01593,-1.01881 -3.1648,-3.18648 -1.12719,-2.16768 -1.12719,-5.57093 0,-3.18648 0.95377,-5.7877 0.95378,-2.62288 2.66624,-4.48708 1.73415,-1.86421 4.05356,-2.86134 2.31941,-1.0188 5.02901,-1.0188 2.34109,0 4.07523,0.75868 1.75581,0.73701 2.73127,2.16768 0.97545,1.43066 0.97545,3.46828 0,2.08097 -1.10551,3.53331 -1.08384,1.43067 -3.29487,2.29774 -2.18935,0.86707 -5.52757,1.27893 -3.33822,0.39018 -7.84699,0.39018 l 0.52024,-3.12146 q 3.96685,0 6.58974,-0.26012 2.62289,-0.26012 4.14026,-0.78036 1.53905,-0.54192 2.16767,-1.36564 0.65031,-0.82371 0.65031,-1.92923 0,-1.45234 -1.12719,-2.27606 -1.1272,-0.82371 -3.31655,-0.82371 -2.29773,0 -3.94517,0.9321 -1.64743,0.91042 -2.70959,2.47115 -1.04049,1.56072 -1.53905,3.53331 -0.49857,1.97258 -0.49857,4.09691 0,1.60408 0.45521,3.03474 0.47689,1.43067 1.69079,2.31942 1.2139,0.88874 3.40325,0.88874 2.51451,0 4.292,-1.12719 1.79917,-1.12719 2.60121,-2.90468 h 3.68505 q -1.19222,3.27319 -3.98852,5.3108 -2.79631,2.03762 -6.80651,2.03762 z m 22.73891,-0.0867 q -3.92349,0 -6.1562,-2.55786 -2.2327,-2.55785 -2.2327,-6.74147 0,-2.68792 0.80204,-5.24577 0.82371,-2.57954 2.36276,-4.66051 1.53905,-2.08097 3.72841,-3.31654 2.21103,-1.23558 4.96397,-1.23558 1.53905,0 2.88301,0.45521 1.34396,0.43354 2.34109,1.32229 1.01881,0.86707 1.53905,2.146 h 0.0217 l 2.12432,-12.89767 h 3.68505 l -5.33248,32.29836 h -3.59834 l 0.54192,-3.40325 h -0.0217 q -1.04049,1.36564 -2.27606,2.21103 -1.2139,0.8454 -2.57953,1.23558 -1.36564,0.39018 -2.79631,0.39018 z m 0.65031,-3.31654 q 2.05929,0 3.68504,-0.9321 1.62576,-0.93211 2.77463,-2.49283 1.14887,-1.58241 1.75582,-3.53331 0.60695,-1.95091 0.60695,-3.98853 0,-2.88301 -1.45235,-4.53044 -1.43066,-1.66911 -4.07523,-1.66911 -2.08097,0 -3.68505,0.95378 -1.60408,0.95377 -2.70959,2.55786 -1.10552,1.5824 -1.69079,3.57666 -0.56359,1.97259 -0.56359,4.05355 0,2.96972 1.45234,4.48709 1.45234,1.51738 3.90182,1.51738 z m 23.88779,3.31654 q -2.29774,0 -4.05355,-0.99713 -1.75582,-1.01881 -2.55786,-3.03475 -0.80204,-2.03761 -0.30347,-5.07236 l 2.36276,-14.21995 h 3.68505 l -2.31941,13.95983 q -0.47689,2.96972 0.69365,4.48709 1.19223,1.4957 3.75008,1.4957 1.66911,0 3.14313,-0.67198 1.4957,-0.67198 2.53618,-2.12433 1.06217,-1.45234 1.43067,-3.75008 l 2.21103,-13.39623 h 3.68505 l -3.79343,22.89065 h -3.59835 l 0.91043,-5.54925 h 1.04048 q -1.62575,3.0781 -3.88014,4.53045 -2.2327,1.45234 -4.9423,1.45234 z m 24.99331,-32.7319 -5.35416,32.29836 h -3.68505 l 5.35416,-32.29836 z m 9.68952,32.81861 q -2.64456,0 -4.68218,-1.01881 -2.01594,-1.01881 -3.1648,-3.18648 -1.1272,-2.16768 -1.1272,-5.57093 0,-3.18648 0.95378,-5.7877 0.95378,-2.62288 2.66624,-4.48708 1.73414,-1.86421 4.05356,-2.86134 2.31941,-1.0188 5.02901,-1.0188 2.34109,0 4.07523,0.75868 1.75581,0.73701 2.73127,2.16768 0.97545,1.43066 0.97545,3.46828 0,2.08097 -1.10551,3.53331 -1.08384,1.43067 -3.29487,2.29774 -2.18935,0.86707 -5.52757,1.27893 -3.33822,0.39018 -7.84699,0.39018 l 0.52024,-3.12146 q 3.96685,0 6.58974,-0.26012 2.62288,-0.26012 4.14026,-0.78036 1.53905,-0.54192 2.16767,-1.36564 0.65031,-0.82371 0.65031,-1.92923 0,-1.45234 -1.1272,-2.27606 -1.12719,-0.82371 -3.31654,-0.82371 -2.29774,0 -3.94517,0.9321 -1.64743,0.91042 -2.70959,2.47115 -1.04049,1.56072 -1.53905,3.53331 -0.49857,1.97258 -0.49857,4.09691 0,1.60408 0.45521,3.03474 0.47689,1.43067 1.69079,2.31942 1.2139,0.88874 3.40325,0.88874 2.5145,0 4.292,-1.12719 1.79917,-1.12719 2.60121,-2.90468 h 3.68505 q -1.19222,3.27319 -3.98852,5.3108 -2.79631,2.03762 -6.80651,2.03762 z m 21.95855,0 q -2.34109,0 -4.18362,-0.69366 -1.82084,-0.71533 -2.883,-2.146 -1.04049,-1.43066 -1.04049,-3.59834 0,-0.23844 0,-0.45521 0.0217,-0.23845 0.0433,-0.47689 h 3.6417 q -0.13006,2.03761 0.97545,3.12145 1.1272,1.08384 3.42493,1.08384 1.58241,0 2.94804,-0.52024 1.36564,-0.52024 2.21103,-1.47402 0.86707,-0.95378 0.86707,-2.23271 0,-0.99713 -0.78036,-1.5824 -0.75869,-0.60695 -2.08097,-0.9321 l -3.55499,-0.86707 q -2.70959,-0.67198 -4.14026,-2.08097 -1.40899,-1.40899 -1.40899,-3.51164 0,-2.29773 1.27893,-3.98852 1.27893,-1.71246 3.38157,-2.64456 2.12433,-0.9321 4.5738,-0.9321 3.3599,0 5.46254,1.66911 2.10265,1.66911 2.10265,4.59547 0,0.2818 -0.0217,0.54192 -0.0217,0.26012 -0.065,0.56359 h -3.59834 q 0.30347,-1.97258 -0.82372,-3.0781 -1.12719,-1.12719 -3.12145,-1.12719 -1.5824,0 -2.83966,0.58528 -1.23557,0.58527 -1.9509,1.56072 -0.71534,0.95378 -0.71534,2.08097 0,0.99713 0.75869,1.62576 0.78036,0.60695 2.21103,0.95377 l 3.53331,0.86708 q 2.77462,0.67197 4.14026,2.01593 1.36564,1.32229 1.36564,3.3599 0,1.84253 -0.78037,3.27319 -0.78036,1.43067 -2.146,2.4278 -1.36563,0.99713 -3.12145,1.49569 -1.73414,0.52025 -3.66337,0.52025 z m 37.8476,-23.4109 -0.52024,3.1648 h -12.3991 l 0.52024,-3.1648 z m -7.28339,-6.24291 h 3.68505 l -3.90181,23.58431 q -0.21677,1.32229 0.23844,1.86421 0.47689,0.52024 1.88588,0.52024 0.49856,0 1.06216,0 0.58527,0 1.06216,0 l -0.52024,3.1648 q -0.5636,0 -1.23558,0 -0.67198,0 -1.23557,0 -2.94804,0 -4.18362,-1.27892 -1.23557,-1.30061 -0.82371,-3.88014 z m 16.47435,29.65381 q -2.81798,0 -4.85559,-1.19222 -2.01594,-1.2139 -3.12145,-3.3599 -1.08384,-2.146 -1.08384,-4.98566 0,-2.73127 0.88875,-5.3108 0.88874,-2.57954 2.53618,-4.61715 1.66911,-2.05929 3.98852,-3.25152 2.31941,-1.21389 5.15907,-1.21389 2.81798,0 4.83391,1.21389 2.03762,1.2139 3.12146,3.38158 1.08384,2.16767 1.08384,5.02901 0,2.75294 -0.88875,5.33248 -0.88875,2.55786 -2.55786,4.59547 -1.64743,2.01594 -3.96685,3.20816 -2.29773,1.17055 -5.13739,1.17055 z m 0.10839,-3.33822 q 2.146,0 3.77175,-0.95378 1.64744,-0.97546 2.75295,-2.57954 1.12719,-1.62575 1.69079,-3.57666 0.56359,-1.97259 0.56359,-3.94517 0,-1.92923 -0.62862,-3.31654 -0.62863,-1.38732 -1.8642,-2.12433 -1.2139,-0.75868 -2.9914,-0.75868 -2.08096,0 -3.70672,0.95377 -1.62576,0.95378 -2.75295,2.55786 -1.12719,1.60408 -1.73414,3.59834 -0.58527,1.97259 -0.58527,4.03188 0,2.83966 1.38731,4.48709 1.40899,1.62576 4.09691,1.62576 z m 24.40802,11.87886 0.54192,-3.25151 h 2.25439 q 0.71533,0 1.32228,-0.30348 0.60695,-0.2818 1.14887,-0.88875 0.56359,-0.60694 1.08383,-1.56072 l 1.7775,-3.25152 -5.09404,-22.69556 h 3.81511 l 2.75295,13.17947 q 0.34683,1.64743 0.6503,3.29486 0.32515,1.64744 0.60695,3.29487 h -0.97545 q 0.82371,-1.64743 1.69078,-3.29487 0.86707,-1.64743 1.73414,-3.29486 l 7.04495,-13.17947 h 4.09691 l -15.04367,27.1393 q -0.82372,1.47402 -1.97259,2.55786 -1.12719,1.08383 -2.47115,1.66911 -1.32228,0.58527 -2.70959,0.58527 -0.5636,0 -1.12719,0 -0.5636,0 -1.1272,0 z m 32.77528,-8.54064 q -2.81798,0 -4.85559,-1.19222 -2.01594,-1.2139 -3.12146,-3.3599 -1.08383,-2.146 -1.08383,-4.98566 0,-2.73127 0.88874,-5.3108 0.88875,-2.57954 2.53618,-4.61715 1.66911,-2.05929 3.98853,-3.25152 2.31941,-1.21389 5.15906,-1.21389 2.81798,0 4.83392,1.21389 2.03762,1.2139 3.12146,3.38158 1.08383,2.16767 1.08383,5.02901 0,2.75294 -0.88874,5.33248 -0.88875,2.55786 -2.55786,4.59547 -1.64744,2.01594 -3.96685,3.20816 -2.29773,1.17055 -5.13739,1.17055 z m 0.10838,-3.33822 q 2.146,0 3.77176,-0.95378 1.64743,-0.97546 2.75295,-2.57954 1.12719,-1.62575 1.69079,-3.57666 0.56359,-1.97259 0.56359,-3.94517 0,-1.92923 -0.62863,-3.31654 -0.62862,-1.38732 -1.8642,-2.12433 -1.21389,-0.75868 -2.99139,-0.75868 -2.08097,0 -3.70672,0.95377 -1.62576,0.95378 -2.75295,2.55786 -1.12719,1.60408 -1.73414,3.59834 -0.58528,1.97259 -0.58528,4.03188 0,2.83966 1.38732,4.48709 1.40899,1.62576 4.0969,1.62576 z m 22.999,3.25151 q -2.29774,0 -4.05355,-0.99713 -1.75582,-1.01881 -2.55786,-3.03475 -0.80204,-2.03761 -0.30347,-5.07236 l 2.36276,-14.21995 h 3.68505 l -2.31941,13.95983 q -0.47689,2.96972 0.69365,4.48709 1.19223,1.4957 3.75008,1.4957 1.66911,0 3.14313,-0.67198 1.4957,-0.67198 2.53618,-2.12433 1.06217,-1.45234 1.43067,-3.75008 l 2.21103,-13.39623 h 3.68505 l -3.79343,22.89065 h -3.59835 l 0.91043,-5.54925 h 1.04048 q -1.62575,3.0781 -3.88014,4.53045 -2.2327,1.45234 -4.9423,1.45234 z m 15.95413,-0.43354 3.79343,-22.89065 h 3.51164 l -0.60695,3.59834 h 0.0867 q 0.9321,-1.77749 2.47115,-2.86133 1.53905,-1.08384 3.68505,-1.08384 0.49856,0 0.91042,0.0434 0.41186,0.0434 0.62863,0.0867 l -0.60695,3.68505 q -0.21677,-0.065 -0.82372,-0.15174 -0.58527,-0.10838 -1.38731,-0.10838 -1.25725,0 -2.44948,0.58527 -1.17054,0.58527 -2.01593,1.82085 -0.8454,1.23557 -1.17055,3.18648 l -2.34109,14.08989 z m 34.98628,0.52025 q -2.77462,0 -4.83392,-1.17055 -2.03761,-1.19222 -3.14313,-3.31654 -1.10551,-2.12432 -1.10551,-4.9423 0,-2.68792 0.86707,-5.26746 0.88875,-2.57953 2.53618,-4.6605 1.66911,-2.10264 3.98852,-3.33822 2.31942,-1.23557 5.20243,-1.23557 1.9509,0 3.53331,0.60695 1.60408,0.58527 2.73127,1.66911 1.14887,1.06216 1.73414,2.5145 0.60695,1.45234 0.54192,3.18648 h -3.7284 q -0.0217,-1.0188 -0.32516,-1.8642 -0.30347,-0.84539 -0.91042,-1.45234 -0.58527,-0.62863 -1.4957,-0.97546 -0.91042,-0.34682 -2.18935,-0.34682 -2.08097,0 -3.70672,0.9321 -1.62576,0.9321 -2.75295,2.53618 -1.12719,1.5824 -1.71247,3.55499 -0.58527,1.97258 -0.58527,4.05355 0,1.90755 0.60695,3.29487 0.60695,1.38731 1.82085,2.146 1.23557,0.73701 3.03474,0.73701 1.27893,0 2.34109,-0.32516 1.06217,-0.32515 1.90756,-0.9321 0.86707,-0.62862 1.4957,-1.47402 0.6503,-0.86707 1.10551,-1.90755 h 3.79343 q -0.52024,1.69079 -1.53905,3.14313 -1.0188,1.45234 -2.42779,2.53618 -1.40899,1.08384 -3.14313,1.69079 -1.71247,0.60695 -3.6417,0.60695 z m 22.28373,-0.0867 q -2.96972,0 -4.96398,-1.4957 -1.99426,-1.51737 -2.7963,-4.18361 -0.78036,-2.68792 -0.21677,-6.19955 0.58527,-3.53332 2.25439,-6.19956 1.69078,-2.68791 4.18361,-4.18361 2.49283,-1.4957 5.46254,-1.4957 1.4957,0 2.7963,0.43354 1.32229,0.41186 2.29774,1.25725 0.99713,0.84539 1.51737,2.12432 h 0.0434 l 0.56359,-3.38157 h 3.59835 l -3.79344,22.89065 h -3.59834 l 0.5636,-3.46828 h -0.0434 q -1.04048,1.32229 -2.29773,2.18936 -1.25726,0.86707 -2.66624,1.27892 -1.40899,0.43354 -2.90469,0.43354 z m 1.10551,-3.31654 q 2.12433,0 3.85847,-1.06217 1.73414,-1.06216 2.90468,-2.99139 1.17055,-1.92923 1.58241,-4.50876 0.43353,-2.60121 -0.10839,-4.53045 -0.52024,-1.92923 -1.90755,-2.99139 -1.36564,-1.06216 -3.48996,-1.06216 -1.97259,0 -3.66337,0.97545 -1.69079,0.97546 -2.88301,2.88301 -1.17055,1.90756 -1.64744,4.72554 -0.45521,2.7963 0.0867,4.70385 0.5636,1.90756 1.92923,2.88301 1.36564,0.97546 3.33822,0.97546 z m 24.36468,-29.41536 -5.35416,32.29836 h -3.68505 l 5.35416,-32.29836 z m 9.68949,32.81861 q -2.64456,0 -4.68218,-1.01881 -2.01594,-1.01881 -3.1648,-3.18648 -1.1272,-2.16768 -1.1272,-5.57093 0,-3.18648 0.95378,-5.7877 0.95378,-2.62288 2.66624,-4.48708 1.73414,-1.86421 4.05356,-2.86134 2.31941,-1.0188 5.029,-1.0188 2.34109,0 4.07523,0.75868 1.75582,0.73701 2.73128,2.16768 0.97545,1.43066 0.97545,3.46828 0,2.08097 -1.10551,3.53331 -1.08384,1.43067 -3.29487,2.29774 -2.18935,0.86707 -5.52757,1.27893 -3.33823,0.39018 -7.84699,0.39018 l 0.52024,-3.12146 q 3.96685,0 6.58974,-0.26012 2.62288,-0.26012 4.14026,-0.78036 1.53905,-0.54192 2.16767,-1.36564 0.6503,-0.82371 0.6503,-1.92923 0,-1.45234 -1.12719,-2.27606 -1.12719,-0.82371 -3.31654,-0.82371 -2.29774,0 -3.94517,0.9321 -1.64743,0.91042 -2.7096,2.47115 -1.04048,1.56072 -1.53905,3.53331 -0.49856,1.97258 -0.49856,4.09691 0,1.60408 0.45521,3.03474 0.47689,1.43067 1.69079,2.31942 1.2139,0.88874 3.40325,0.88874 2.5145,0 4.292,-1.12719 1.79917,-1.12719 2.60121,-2.90468 h 3.68505 q -1.19222,3.27319 -3.98853,5.3108 -2.7963,2.03762 -6.8065,2.03762 z m 19.72584,-13.78642 -2.18935,13.26617 h -3.68505 l 3.77176,-22.89065 h 3.59834 l -0.91043,5.54925 -1.06216,-0.10839 q 1.64744,-3.09977 3.81511,-4.48708 2.18935,-1.38732 4.81224,-1.38732 2.36277,0 4.14026,1.04049 1.79917,1.04048 2.64457,3.09977 0.84539,2.03762 0.32515,5.09404 l -2.31941,14.08989 h -3.68505 l 2.31941,-14.08989 q 0.49857,-2.96971 -0.62863,-4.40038 -1.10551,-1.45234 -3.59834,-1.45234 -1.71246,0 -3.25151,0.71533 -1.53905,0.69366 -2.62289,2.16768 -1.08384,1.47402 -1.47402,3.79343 z m 27.29102,13.69971 q -3.92349,0 -6.15619,-2.55786 -2.23271,-2.55785 -2.23271,-6.74147 0,-2.68792 0.80204,-5.24577 0.82372,-2.57954 2.36277,-4.66051 1.53905,-2.08097 3.7284,-3.31654 2.21103,-1.23558 4.96398,-1.23558 1.53905,0 2.88301,0.45521 1.34395,0.43354 2.34109,1.32229 1.0188,0.86707 1.53904,2.146 h 0.0217 l 2.12432,-12.89767 h 3.68505 l -5.33248,32.29836 h -3.59834 l 0.54192,-3.40325 h -0.0217 q -1.04048,1.36564 -2.27606,2.21103 -1.2139,0.8454 -2.57953,1.23558 -1.36564,0.39018 -2.79631,0.39018 z m 0.65031,-3.31654 q 2.05929,0 3.68505,-0.9321 1.62575,-0.93211 2.77462,-2.49283 1.14887,-1.58241 1.75582,-3.53331 0.60695,-1.95091 0.60695,-3.98853 0,-2.88301 -1.45234,-4.53044 -1.43067,-1.66911 -4.07524,-1.66911 -2.08096,0 -3.68504,0.95378 -1.60408,0.95377 -2.7096,2.55786 -1.10551,1.5824 -1.69079,3.57666 -0.56359,1.97259 -0.56359,4.05355 0,2.96972 1.45234,4.48709 1.45234,1.51738 3.90182,1.51738 z m 24.21294,3.31654 q -2.96971,0 -4.96397,-1.4957 -1.99426,-1.51737 -2.79631,-4.18361 -0.78036,-2.68792 -0.21676,-6.19955 0.58527,-3.53332 2.25438,-6.19956 1.69079,-2.68791 4.18361,-4.18361 2.49283,-1.4957 5.46255,-1.4957 1.49569,0 2.7963,0.43354 1.32228,0.41186 2.29774,1.25725 0.99713,0.84539 1.51737,2.12432 h 0.0434 l 0.5636,-3.38157 h 3.59834 l -3.79343,22.89065 h -3.59834 l 0.56359,-3.46828 h -0.0434 q -1.04049,1.32229 -2.29774,2.18936 -1.25725,0.86707 -2.66624,1.27892 -1.40899,0.43354 -2.90469,0.43354 z m 1.10552,-3.31654 q 2.12432,0 3.85846,-1.06217 1.73414,-1.06216 2.90469,-2.99139 1.17054,-1.92923 1.5824,-4.50876 0.43354,-2.60121 -0.10838,-4.53045 -0.52024,-1.92923 -1.90756,-2.99139 -1.36563,-1.06216 -3.48996,-1.06216 -1.97258,0 -3.66337,0.97545 -1.69078,0.97546 -2.88301,2.88301 -1.17054,1.90756 -1.64743,4.72554 -0.45521,2.7963 0.0867,4.70385 0.56359,1.90756 1.92923,2.88301 1.36563,0.97546 3.33822,0.97546 z m 15.32547,2.883 3.79343,-22.89065 h 3.51163 l -0.60695,3.59834 h 0.0867 q 0.9321,-1.77749 2.47115,-2.86133 1.53905,-1.08384 3.68505,-1.08384 0.49857,0 0.91042,0.0434 0.41186,0.0434 0.62863,0.0867 l -0.60695,3.68505 q -0.21677,-0.065 -0.82372,-0.15174 -0.58527,-0.10838 -1.38731,-0.10838 -1.25725,0 -2.44947,0.58527 -1.17055,0.58527 -2.01594,1.82085 -0.84539,1.23557 -1.17055,3.18648 l -2.34109,14.08989 z m 16.12755,-8.6707 3.64169,-23.62766 h 4.03188 l -4.20529,23.62766 z m 0.47688,9.03921 q -1.21389,0 -1.92923,-0.86707 -0.71533,-0.86707 -0.52024,-2.08097 0.17341,-1.06216 0.99713,-1.75582 0.84539,-0.71533 1.90756,-0.71533 1.21389,0 1.92923,0.86707 0.71533,0.86707 0.52024,2.08097 -0.17341,1.06216 -1.01881,1.77749 -0.82372,0.69366 -1.88588,0.69366 z"
         id="text92"
         aria-label="copy transit schedules to your calendar!" /><path
         style="font-style:italic;font-size:44.394px;font-family:Inter;-inkscape-font-specification:'Inter Italic';font-variation-settings:'opsz' 32;letter-spacing:0px;fill:#ffffff;stroke-width:0.153159;paint-order:fill markers stroke"
         d="m 105.27312,332.67835 q -2.77462,0 -4.83391,-1.17054 -2.037618,-1.19222 -3.143133,-3.31655 -1.105515,-2.12432 -1.105515,-4.9423 0,-2.68791 0.867071,-5.26745 0.888747,-2.57953 2.53618,-4.6605 1.669107,-2.10265 3.988527,-3.33822 2.31941,-1.23558 5.20242,-1.23558 1.95091,0 3.53331,0.60695 1.60408,0.58527 2.73127,1.66911 1.14887,1.06216 1.73414,2.51451 0.60695,1.45234 0.54192,3.18648 h -3.7284 q -0.0217,-1.01881 -0.32515,-1.8642 -0.30348,-0.8454 -0.91043,-1.45234 -0.58527,-0.62863 -1.49569,-0.97546 -0.91043,-0.34683 -2.18935,-0.34683 -2.08097,0 -3.70673,0.9321 -1.62576,0.9321 -2.75295,2.53618 -1.12719,1.58241 -1.71246,3.55499 -0.585275,1.97259 -0.585275,4.05356 0,1.90755 0.606945,3.29486 0.60695,1.38732 1.82085,2.146 1.23558,0.73701 3.03475,0.73701 1.27893,0 2.34109,-0.32515 1.06216,-0.32515 1.90755,-0.9321 0.86707,-0.62862 1.4957,-1.47402 0.6503,-0.86707 1.10551,-1.90755 h 3.79344 q -0.52025,1.69078 -1.53905,3.14313 -1.01881,1.45234 -2.4278,2.53618 -1.40899,1.08384 -3.14313,1.69078 -1.71246,0.60695 -3.6417,0.60695 z m 23.19414,0 q -2.81798,0 -4.8556,-1.19222 -2.01594,-1.2139 -3.12145,-3.3599 -1.08384,-2.14599 -1.08384,-4.98565 0,-2.73127 0.88875,-5.31081 0.88875,-2.57953 2.53618,-4.61715 1.66911,-2.05929 3.98852,-3.25151 2.31942,-1.2139 5.15907,-1.2139 2.81798,0 4.83392,1.2139 2.03761,1.2139 3.12145,3.38158 1.08384,2.16767 1.08384,5.029 0,2.75295 -0.88875,5.33249 -0.88875,2.55785 -2.55786,4.59547 -1.64743,2.01594 -3.96684,3.20816 -2.29774,1.17054 -5.13739,1.17054 z m 0.10838,-3.33822 q 2.146,0 3.77176,-0.95377 1.64743,-0.97546 2.75294,-2.57954 1.1272,-1.62576 1.69079,-3.57666 0.5636,-1.97259 0.5636,-3.94517 0,-1.92924 -0.62863,-3.31655 -0.62863,-1.38731 -1.8642,-2.12432 -1.2139,-0.75869 -2.99139,-0.75869 -2.08097,0 -3.70673,0.95378 -1.62576,0.95378 -2.75295,2.55786 -1.12719,1.60408 -1.73414,3.59834 -0.58527,1.97259 -0.58527,4.03188 0,2.83965 1.38731,4.48709 1.40899,1.62575 4.09691,1.62575 z m 13.13612,11.87887 5.28913,-31.95155 h 3.59834 l -0.52025,3.31655 h 0.0217 q 0.91043,-1.32228 2.146,-2.146 1.23558,-0.82372 2.64457,-1.2139 1.40898,-0.39018 2.83965,-0.39018 2.62289,0 4.48709,1.17054 1.88588,1.14887 2.88301,3.22984 1.01881,2.08097 1.01881,4.89895 0,2.66624 -0.82372,5.24577 -0.80204,2.57954 -2.34109,4.66051 -1.53905,2.08097 -3.7284,3.31654 -2.18936,1.23558 -4.96398,1.23558 -1.53905,0 -2.83966,-0.45522 -1.3006,-0.45521 -2.29773,-1.34395 -0.99713,-0.91043 -1.60408,-2.27606 h -0.0217 l -2.10264,12.70258 z m 12.07395,-11.9439 q 2.08097,0 3.68505,-0.95377 1.62576,-0.95378 2.73127,-2.53619 1.10552,-1.60408 1.66911,-3.57666 0.5636,-1.99426 0.5636,-4.05355 0,-2.9914 -1.45235,-4.50877 -1.45234,-1.51737 -3.90181,-1.51737 -2.10265,0 -3.75008,0.97545 -1.62576,0.95378 -2.77463,2.55786 -1.12719,1.5824 -1.71246,3.53331 -0.58527,1.95091 -0.58527,3.90182 0,2.88301 1.45234,4.53044 1.45234,1.64743 4.07523,1.64743 z m 12.3124,11.9439 0.54192,-3.25152 h 2.25438 q 0.71533,0 1.32228,-0.30347 0.60695,-0.2818 1.14887,-0.88875 0.56359,-0.60695 1.08384,-1.56073 l 1.77749,-3.25151 -5.09404,-22.69557 h 3.81511 l 2.75295,13.17947 q 0.34683,1.64744 0.6503,3.29487 0.32515,1.64743 0.60695,3.29487 h -0.97545 q 0.82372,-1.64744 1.69079,-3.29487 0.86707,-1.64743 1.73414,-3.29487 l 7.04494,-13.17947 h 4.09691 l -15.04367,27.13931 q -0.82372,1.47402 -1.97259,2.55785 -1.12719,1.08384 -2.47115,1.66911 -1.32228,0.58528 -2.70959,0.58528 -0.5636,0 -1.12719,0 -0.5636,0 -1.12719,0 z m 48.92444,-31.95155 -0.52024,3.16481 H 202.1032 l 0.52024,-3.16481 z m -7.28339,-6.2429 h 3.68505 l -3.90182,23.58431 q -0.21677,1.32228 0.23845,1.8642 0.47688,0.52024 1.88587,0.52024 0.49857,0 1.06216,0 0.58528,0 1.06217,0 l -0.52025,3.16481 q -0.56359,0 -1.23557,0 -0.67198,0 -1.23558,0 -2.94804,0 -4.18361,-1.27893 -1.23558,-1.3006 -0.82372,-3.88014 z m 7.32675,29.13356 3.79343,-22.89066 h 3.51163 l -0.60695,3.59835 h 0.0867 q 0.9321,-1.7775 2.47115,-2.86134 1.53905,-1.08383 3.68505,-1.08383 0.49857,0 0.91042,0.0433 0.41186,0.0434 0.62863,0.0867 l -0.60695,3.68505 q -0.21677,-0.065 -0.82372,-0.15174 -0.58527,-0.10838 -1.38731,-0.10838 -1.25725,0 -2.44947,0.58527 -1.17055,0.58527 -2.01594,1.82085 -0.84539,1.23557 -1.17055,3.18648 l -2.34109,14.08989 z m 22.54383,0.43354 q -2.96972,0 -4.96398,-1.4957 -1.99426,-1.51737 -2.7963,-4.18361 -0.78036,-2.68792 -0.21677,-6.19956 0.58528,-3.53331 2.25439,-6.19955 1.69078,-2.68792 4.18361,-4.18361 2.49283,-1.4957 5.46254,-1.4957 1.4957,0 2.79631,0.43353 1.32228,0.41186 2.29773,1.25726 0.99713,0.84539 1.51737,2.12432 h 0.0434 l 0.56359,-3.38158 h 3.59835 l -3.79344,22.89066 h -3.59834 l 0.5636,-3.46828 h -0.0434 q -1.04048,1.32228 -2.29773,2.18935 -1.25726,0.86707 -2.66624,1.27893 -1.40899,0.43354 -2.90469,0.43354 z m 1.10551,-3.31655 q 2.12433,0 3.85847,-1.06216 1.73414,-1.06216 2.90468,-2.99139 1.17055,-1.92923 1.58241,-4.50877 0.43353,-2.60121 -0.10839,-4.53044 -0.52024,-1.92923 -1.90755,-2.99139 -1.36564,-1.06216 -3.48996,-1.06216 -1.97258,0 -3.66337,0.97545 -1.69079,0.97546 -2.88301,2.88301 -1.17055,1.90755 -1.64743,4.72553 -0.45522,2.79631 0.0867,4.70386 0.5636,1.90755 1.92923,2.88301 1.36564,0.97545 3.33822,0.97545 z m 21.19987,-10.38316 -2.18935,13.26617 h -3.68505 l 3.77176,-22.89066 h 3.59834 l -0.91042,5.54925 -1.06217,-0.10838 q 1.64744,-3.09978 3.81511,-4.48709 2.18936,-1.38731 4.81224,-1.38731 2.36277,0 4.14026,1.04048 1.79918,1.04049 2.64457,3.09978 0.84539,2.03762 0.32515,5.09404 l -2.31941,14.08989 h -3.68505 l 2.31941,-14.08989 q 0.49857,-2.96972 -0.62862,-4.40038 -1.10552,-1.45235 -3.59835,-1.45235 -1.71246,0 -3.25151,0.71534 -1.53905,0.69365 -2.62289,2.16767 -1.08384,1.47402 -1.47402,3.79344 z m 26.51068,13.78641 q -2.34109,0 -4.18362,-0.69365 -1.82084,-0.71534 -2.883,-2.146 -1.04049,-1.43067 -1.04049,-3.59834 0,-0.23845 0,-0.45522 0.0217,-0.23844 0.0433,-0.47688 h 3.6417 q -0.13006,2.03761 0.97545,3.12145 1.1272,1.08384 3.42493,1.08384 1.5824,0 2.94804,-0.52025 1.36564,-0.52024 2.21103,-1.47401 0.86707,-0.95378 0.86707,-2.23271 0,-0.99713 -0.78036,-1.5824 -0.75869,-0.60695 -2.08097,-0.9321 l -3.55499,-0.86708 q -2.70959,-0.67197 -4.14026,-2.08096 -1.40899,-1.40899 -1.40899,-3.51164 0,-2.29774 1.27893,-3.98852 1.27893,-1.71247 3.38157,-2.64457 2.12433,-0.9321 4.5738,-0.9321 3.3599,0 5.46254,1.66911 2.10265,1.66911 2.10265,4.59548 0,0.28179 -0.0217,0.54191 -0.0217,0.26013 -0.065,0.5636 h -3.59834 q 0.30347,-1.97258 -0.82372,-3.0781 -1.12719,-1.12719 -3.12145,-1.12719 -1.5824,0 -2.83966,0.58527 -1.23557,0.58527 -1.95091,1.56073 -0.71533,0.95378 -0.71533,2.08097 0,0.99713 0.75869,1.62575 0.78036,0.60695 2.21103,0.95378 l 3.53331,0.86707 q 2.77462,0.67198 4.14026,2.01594 1.36564,1.32228 1.36564,3.3599 0,1.84252 -0.78037,3.27319 -0.78036,1.43066 -2.146,2.4278 -1.36563,0.99713 -3.12145,1.49569 -1.73414,0.52024 -3.66337,0.52024 z m 12.98437,-0.52024 3.79343,-22.89066 h 3.68505 l -3.79343,22.89066 z m 6.37296,-27.35607 q -1.04048,0 -1.64743,-0.73701 -0.60695,-0.73701 -0.45521,-1.77749 0.17341,-1.04049 1.01881,-1.7775 0.86707,-0.73701 1.90755,-0.73701 1.04049,0 1.64743,0.73701 0.62863,0.73701 0.45522,1.7775 -0.15174,1.04048 -1.01881,1.77749 -0.86707,0.73701 -1.90756,0.73701 z m 16.99459,4.46541 -0.52024,3.16481 h -12.39911 l 0.52025,-3.16481 z m -7.28339,-6.2429 h 3.68505 l -3.90182,23.58431 q -0.21676,1.32228 0.23845,1.8642 0.47689,0.52024 1.88588,0.52024 0.49856,0 1.06216,0 0.58527,0 1.06216,0 l -0.52024,3.16481 q -0.5636,0 -1.23558,0 -0.67198,0 -1.23557,0 -2.94804,0 -4.18362,-1.27893 -1.23557,-1.3006 -0.82372,-3.88014 z m 26.53234,29.6538 q -2.34109,0 -4.18361,-0.69365 -1.82085,-0.71534 -2.88301,-2.146 -1.04048,-1.43067 -1.04048,-3.59834 0,-0.23845 0,-0.45522 0.0217,-0.23844 0.0433,-0.47688 h 3.6417 q -0.13007,2.03761 0.97545,3.12145 1.12719,1.08384 3.42493,1.08384 1.5824,0 2.94804,-0.52025 1.36563,-0.52024 2.21103,-1.47401 0.86707,-0.95378 0.86707,-2.23271 0,-0.99713 -0.78037,-1.5824 -0.75868,-0.60695 -2.08097,-0.9321 l -3.55498,-0.86708 q -2.7096,-0.67197 -4.14027,-2.08096 -1.40898,-1.40899 -1.40898,-3.51164 0,-2.29774 1.27892,-3.98852 1.27893,-1.71247 3.38158,-2.64457 2.12432,-0.9321 4.57379,-0.9321 3.3599,0 5.46255,1.66911 2.10264,1.66911 2.10264,4.59548 0,0.28179 -0.0217,0.54191 -0.0217,0.26013 -0.065,0.5636 H 349.18 q 0.30348,-1.97258 -0.82371,-3.0781 -1.12719,-1.12719 -3.12146,-1.12719 -1.5824,0 -2.83965,0.58527 -1.23558,0.58527 -1.95091,1.56073 -0.71533,0.95378 -0.71533,2.08097 0,0.99713 0.75868,1.62575 0.78037,0.60695 2.21103,0.95378 l 3.53332,0.86707 q 2.77462,0.67198 4.14026,2.01594 1.36563,1.32228 1.36563,3.3599 0,1.84252 -0.78036,3.27319 -0.78036,1.43066 -2.146,2.4278 -1.36564,0.99713 -3.12145,1.49569 -1.73414,0.52024 -3.66338,0.52024 z m 22.56552,0 q -2.77463,0 -4.83392,-1.17054 -2.03762,-1.19222 -3.14313,-3.31655 -1.10552,-2.12432 -1.10552,-4.9423 0,-2.68791 0.86707,-5.26745 0.88875,-2.57953 2.53618,-4.6605 1.66912,-2.10265 3.98853,-3.33822 2.31941,-1.23558 5.20242,-1.23558 1.95091,0 3.53331,0.60695 1.60408,0.58527 2.73127,1.66911 1.14887,1.06216 1.73414,2.51451 0.60695,1.45234 0.54192,3.18648 h -3.7284 q -0.0217,-1.01881 -0.32515,-1.8642 -0.30348,-0.8454 -0.91042,-1.45234 -0.58528,-0.62863 -1.4957,-0.97546 -0.91042,-0.34683 -2.18935,-0.34683 -2.08097,0 -3.70673,0.9321 -1.62576,0.9321 -2.75295,2.53618 -1.12719,1.58241 -1.71246,3.55499 -0.58527,1.97259 -0.58527,4.05356 0,1.90755 0.60695,3.29486 0.60694,1.38732 1.82084,2.146 1.23558,0.73701 3.03475,0.73701 1.27893,0 2.34109,-0.32515 1.06216,-0.32515 1.90755,-0.9321 0.86707,-0.62862 1.4957,-1.47402 0.6503,-0.86707 1.10551,-1.90755 h 3.79344 q -0.52024,1.69078 -1.53905,3.14313 -1.01881,1.45234 -2.4278,2.53618 -1.40899,1.08384 -3.14313,1.69078 -1.71246,0.60695 -3.64169,0.60695 z m 19.50907,-13.91648 -2.21103,13.39624 h -3.68505 l 5.35416,-32.29837 h 3.68505 l -2.49283,14.95696 h -1.12719 q 1.10551,-2.05929 2.4278,-3.38157 1.32228,-1.32228 2.88301,-1.95091 1.56072,-0.6503 3.35989,-0.6503 2.31942,0 4.09691,1.01881 1.79917,0.99713 2.64457,3.01307 0.86707,2.01594 0.34682,5.07236 l -2.36276,14.21995 h -3.68505 l 2.31941,-13.95983 q 0.49857,-2.96972 -0.69366,-4.46541 -1.17054,-1.51738 -3.75007,-1.51738 -1.66911,0 -3.16481,0.67198 -1.47402,0.67198 -2.51451,2.12433 -1.04048,1.43066 -1.43066,3.75007 z m 27.96302,13.91648 q -2.64456,0 -4.68218,-1.0188 -2.01594,-1.01881 -3.1648,-3.18649 -1.12719,-2.16767 -1.12719,-5.57092 0,-3.18649 0.95377,-5.7877 0.95378,-2.62289 2.66624,-4.48709 1.73414,-1.8642 4.05356,-2.86133 2.31941,-1.01881 5.02901,-1.01881 2.34109,0 4.07523,0.75869 1.75581,0.73701 2.73127,2.16767 0.97545,1.43067 0.97545,3.46829 0,2.08097 -1.10551,3.53331 -1.08384,1.43066 -3.29487,2.29773 -2.18935,0.86707 -5.52757,1.27893 -3.33822,0.39018 -7.84699,0.39018 l 0.52024,-3.12145 q 3.96685,0 6.58974,-0.26012 2.62288,-0.26012 4.14026,-0.78036 1.53905,-0.54192 2.16767,-1.36564 0.65031,-0.82372 0.65031,-1.92923 0,-1.45234 -1.1272,-2.27606 -1.12719,-0.82372 -3.31654,-0.82372 -2.29774,0 -3.94517,0.9321 -1.64743,0.91043 -2.70959,2.47115 -1.04049,1.56073 -1.53905,3.53332 -0.49857,1.97258 -0.49857,4.0969 0,1.60408 0.45521,3.03475 0.47689,1.43067 1.69079,2.31941 1.2139,0.88875 3.40325,0.88875 2.5145,0 4.292,-1.12719 1.79917,-1.12719 2.60121,-2.90469 h 3.68505 q -1.19222,3.27319 -3.98852,5.31081 -2.79631,2.03761 -6.80651,2.03761 z m 22.73891,-0.0867 q -3.92349,0 -6.1562,-2.55786 -2.2327,-2.55786 -2.2327,-6.74147 0,-2.68792 0.80204,-5.24578 0.82371,-2.57953 2.36276,-4.6605 1.53905,-2.08097 3.72841,-3.31655 2.21103,-1.23557 4.96397,-1.23557 1.53905,0 2.88301,0.45521 1.34396,0.43354 2.34109,1.32228 1.01881,0.86707 1.53905,2.146 h 0.0217 l 2.12432,-12.89767 h 3.68505 l -5.33248,32.29837 h -3.59834 l 0.54191,-3.40325 h -0.0217 q -1.04049,1.36564 -2.27606,2.21103 -1.2139,0.84539 -2.57954,1.23558 -1.36563,0.39018 -2.7963,0.39018 z m 0.6503,-3.31655 q 2.0593,0 3.68505,-0.9321 1.62576,-0.9321 2.77463,-2.49283 1.14887,-1.5824 1.75582,-3.53331 0.60695,-1.9509 0.60695,-3.98852 0,-2.88301 -1.45235,-4.53044 -1.43066,-1.66911 -4.07523,-1.66911 -2.08097,0 -3.68505,0.95377 -1.60408,0.95378 -2.70959,2.55786 -1.10552,1.58241 -1.69079,3.57667 -0.56359,1.97258 -0.56359,4.05355 0,2.96972 1.45234,4.48709 1.45234,1.51737 3.90181,1.51737 z m 23.8878,3.31655 q -2.29774,0 -4.05355,-0.99713 -1.75582,-1.01881 -2.55786,-3.03475 -0.80204,-2.03762 -0.30348,-5.07236 l 2.36277,-14.21996 h 3.68505 l -2.31941,13.95984 q -0.47689,2.96971 0.69365,4.48709 1.19222,1.49569 3.75008,1.49569 1.66911,0 3.14313,-0.67198 1.4957,-0.67198 2.53618,-2.12432 1.06216,-1.45234 1.43067,-3.75008 l 2.21103,-13.39624 h 3.68505 l -3.79344,22.89066 h -3.59834 l 0.91043,-5.54925 h 1.04048 q -1.62576,3.0781 -3.88014,4.53044 -2.2327,1.45235 -4.9423,1.45235 z m 24.99331,-32.73191 -5.35416,32.29837 h -3.68505 l 5.35416,-32.29837 z m 9.68952,32.81861 q -2.64456,0 -4.68218,-1.0188 -2.01594,-1.01881 -3.1648,-3.18649 -1.1272,-2.16767 -1.1272,-5.57092 0,-3.18649 0.95378,-5.7877 0.95378,-2.62289 2.66624,-4.48709 1.73414,-1.8642 4.05356,-2.86133 2.31941,-1.01881 5.029,-1.01881 2.34109,0 4.07523,0.75869 1.75582,0.73701 2.73128,2.16767 0.97545,1.43067 0.97545,3.46829 0,2.08097 -1.10551,3.53331 -1.08384,1.43066 -3.29487,2.29773 -2.18935,0.86707 -5.52757,1.27893 -3.33823,0.39018 -7.84699,0.39018 l 0.52024,-3.12145 q 3.96685,0 6.58974,-0.26012 2.62288,-0.26012 4.14026,-0.78036 1.53905,-0.54192 2.16767,-1.36564 0.6503,-0.82372 0.6503,-1.92923 0,-1.45234 -1.12719,-2.27606 -1.12719,-0.82372 -3.31654,-0.82372 -2.29774,0 -3.94517,0.9321 -1.64743,0.91043 -2.7096,2.47115 -1.04048,1.56073 -1.53905,3.53332 -0.49856,1.97258 -0.49856,4.0969 0,1.60408 0.45521,3.03475 0.47689,1.43067 1.69079,2.31941 1.2139,0.88875 3.40325,0.88875 2.5145,0 4.292,-1.12719 1.79917,-1.12719 2.60121,-2.90469 h 3.68505 q -1.19222,3.27319 -3.98853,5.31081 -2.7963,2.03761 -6.8065,2.03761 z m 21.95855,0 q -2.34109,0 -4.18362,-0.69365 -1.82084,-0.71534 -2.88301,-2.146 -1.04048,-1.43067 -1.04048,-3.59834 0,-0.23845 0,-0.45522 0.0217,-0.23844 0.0433,-0.47688 h 3.6417 q -0.13006,2.03761 0.97545,3.12145 1.12719,1.08384 3.42493,1.08384 1.5824,0 2.94804,-0.52025 1.36564,-0.52024 2.21103,-1.47401 0.86707,-0.95378 0.86707,-2.23271 0,-0.99713 -0.78036,-1.5824 -0.75869,-0.60695 -2.08097,-0.9321 l -3.55499,-0.86708 q -2.7096,-0.67197 -4.14026,-2.08096 -1.40899,-1.40899 -1.40899,-3.51164 0,-2.29774 1.27893,-3.98852 1.27893,-1.71247 3.38157,-2.64457 2.12432,-0.9321 4.5738,-0.9321 3.3599,0 5.46254,1.66911 2.10265,1.66911 2.10265,4.59548 0,0.28179 -0.0217,0.54191 -0.0217,0.26013 -0.065,0.5636 h -3.5983 q 0.30347,-1.97258 -0.82372,-3.0781 -1.12719,-1.12719 -3.12145,-1.12719 -1.58241,0 -2.83966,0.58527 -1.23557,0.58527 -1.95091,1.56073 -0.71533,0.95378 -0.71533,2.08097 0,0.99713 0.75869,1.62575 0.78036,0.60695 2.21103,0.95378 l 3.53331,0.86707 q 2.77462,0.67198 4.14026,2.01594 1.36564,1.32228 1.36564,3.3599 0,1.84252 -0.78037,3.27319 -0.78036,1.43066 -2.146,2.4278 -1.36563,0.99713 -3.12145,1.49569 -1.73414,0.52024 -3.66337,0.52024 z m 37.8476,-23.4109 -0.52024,3.16481 h -12.3991 l 0.52024,-3.16481 z m -7.28339,-6.2429 h 3.68505 l -3.90181,23.58431 q -0.21677,1.32228 0.23844,1.8642 0.47689,0.52024 1.88588,0.52024 0.49856,0 1.06216,0 0.58527,0 1.06216,0 l -0.52024,3.16481 q -0.5636,0 -1.23558,0 -0.67198,0 -1.23557,0 -2.94804,0 -4.18362,-1.27893 -1.23557,-1.3006 -0.82371,-3.88014 z m 16.47435,29.6538 q -2.81798,0 -4.85559,-1.19222 -2.01594,-1.2139 -3.12146,-3.3599 -1.08383,-2.14599 -1.08383,-4.98565 0,-2.73127 0.88874,-5.31081 0.88875,-2.57953 2.53618,-4.61715 1.66912,-2.05929 3.98853,-3.25151 2.31941,-1.2139 5.15907,-1.2139 2.81798,0 4.83391,1.2139 2.03762,1.2139 3.12146,3.38158 1.08384,2.16767 1.08384,5.029 0,2.75295 -0.88875,5.33249 -0.88875,2.55785 -2.55786,4.59547 -1.64743,2.01594 -3.96685,3.20816 -2.29773,1.17054 -5.13739,1.17054 z m 0.10839,-3.33822 q 2.14599,0 3.77175,-0.95377 1.64744,-0.97546 2.75295,-2.57954 1.12719,-1.62576 1.69079,-3.57666 0.56359,-1.97259 0.56359,-3.94517 0,-1.92924 -0.62862,-3.31655 -0.62863,-1.38731 -1.8642,-2.12432 -1.2139,-0.75869 -2.9914,-0.75869 -2.08097,0 -3.70672,0.95378 -1.62576,0.95378 -2.75295,2.55786 -1.12719,1.60408 -1.73414,3.59834 -0.58527,1.97259 -0.58527,4.03188 0,2.83965 1.38731,4.48709 1.40899,1.62575 4.09691,1.62575 z m 24.40802,11.87887 0.54192,-3.25152 h 2.25439 q 0.71533,0 1.32228,-0.30347 0.60695,-0.2818 1.14887,-0.88875 0.56359,-0.60695 1.08383,-1.56073 l 1.7775,-3.25151 -5.09404,-22.69557 h 3.81511 l 2.75295,13.17947 q 0.34683,1.64744 0.6503,3.29487 0.32515,1.64743 0.60695,3.29487 h -0.97545 q 0.82371,-1.64744 1.69078,-3.29487 0.86707,-1.64743 1.73414,-3.29487 l 7.04495,-13.17947 h 4.09691 l -15.04367,27.13931 q -0.82372,1.47402 -1.97259,2.55785 -1.12719,1.08384 -2.47115,1.66911 -1.32228,0.58528 -2.70959,0.58528 -0.5636,0 -1.12719,0 -0.5636,0 -1.1272,0 z m 32.77528,-8.54065 q -2.81798,0 -4.85559,-1.19222 -2.01594,-1.2139 -3.12146,-3.3599 -1.08384,-2.14599 -1.08384,-4.98565 0,-2.73127 0.88875,-5.31081 0.88875,-2.57953 2.53618,-4.61715 1.66911,-2.05929 3.98853,-3.25151 2.31941,-1.2139 5.15906,-1.2139 2.81798,0 4.83392,1.2139 2.03762,1.2139 3.12145,3.38158 1.08384,2.16767 1.08384,5.029 0,2.75295 -0.88874,5.33249 -0.88875,2.55785 -2.55786,4.59547 -1.64744,2.01594 -3.96685,3.20816 -2.29774,1.17054 -5.13739,1.17054 z m 0.10838,-3.33822 q 2.146,0 3.77176,-0.95377 1.64743,-0.97546 2.75295,-2.57954 1.12719,-1.62576 1.69078,-3.57666 0.5636,-1.97259 0.5636,-3.94517 0,-1.92924 -0.62863,-3.31655 -0.62862,-1.38731 -1.8642,-2.12432 -1.2139,-0.75869 -2.99139,-0.75869 -2.08097,0 -3.70673,0.95378 -1.62575,0.95378 -2.75294,2.55786 -1.1272,1.60408 -1.73414,3.59834 -0.58528,1.97259 -0.58528,4.03188 0,2.83965 1.38732,4.48709 1.40898,1.62575 4.0969,1.62575 z m 22.999,3.25152 q -2.29774,0 -4.05355,-0.99713 -1.75582,-1.01881 -2.55786,-3.03475 -0.80204,-2.03762 -0.30348,-5.07236 l 2.36277,-14.21996 h 3.68505 l -2.31941,13.95984 q -0.47689,2.96971 0.69365,4.48709 1.19222,1.49569 3.75008,1.49569 1.66911,0 3.14313,-0.67198 1.4957,-0.67198 2.53618,-2.12432 1.06216,-1.45234 1.43067,-3.75008 l 2.21103,-13.39624 h 3.68505 l -3.79344,22.89066 h -3.59834 l 0.91043,-5.54925 h 1.04048 q -1.62576,3.0781 -3.88014,4.53044 -2.2327,1.45235 -4.9423,1.45235 z m 15.95413,-0.43354 3.79343,-22.89066 h 3.51164 l -0.60695,3.59835 h 0.0867 q 0.9321,-1.7775 2.47115,-2.86134 1.53905,-1.08383 3.68505,-1.08383 0.49856,0 0.91042,0.0433 0.41186,0.0434 0.62863,0.0867 l -0.60695,3.68505 q -0.21677,-0.065 -0.82372,-0.15174 -0.58527,-0.10838 -1.38731,-0.10838 -1.25725,0 -2.44948,0.58527 -1.17054,0.58527 -2.01594,1.82085 -0.84539,1.23557 -1.17054,3.18648 l -2.34109,14.08989 z m 34.98628,0.52024 q -2.77463,0 -4.83392,-1.17054 -2.03761,-1.19222 -3.14313,-3.31655 -1.10551,-2.12432 -1.10551,-4.9423 0,-2.68791 0.86707,-5.26745 0.88875,-2.57953 2.53618,-4.6605 1.66911,-2.10265 3.98852,-3.33822 2.31942,-1.23558 5.20242,-1.23558 1.95091,0 3.53332,0.60695 1.60408,0.58527 2.73127,1.66911 1.14887,1.06216 1.73414,2.51451 0.60695,1.45234 0.54192,3.18648 h -3.72841 q -0.0217,-1.01881 -0.32515,-1.8642 -0.30347,-0.8454 -0.91042,-1.45234 -0.58527,-0.62863 -1.4957,-0.97546 -0.91042,-0.34683 -2.18935,-0.34683 -2.08097,0 -3.70673,0.9321 -1.62575,0.9321 -2.75294,2.53618 -1.12719,1.58241 -1.71247,3.55499 -0.58527,1.97259 -0.58527,4.05356 0,1.90755 0.60695,3.29486 0.60695,1.38732 1.82085,2.146 1.23557,0.73701 3.03474,0.73701 1.27893,0 2.34109,-0.32515 1.06216,-0.32515 1.90756,-0.9321 0.86707,-0.62862 1.49569,-1.47402 0.65031,-0.86707 1.10552,-1.90755 h 3.79343 q -0.52024,1.69078 -1.53905,3.14313 -1.01881,1.45234 -2.4278,2.53618 -1.40898,1.08384 -3.14313,1.69078 -1.71246,0.60695 -3.64169,0.60695 z m 22.28373,-0.0867 q -2.96972,0 -4.96398,-1.4957 -1.99426,-1.51737 -2.7963,-4.18361 -0.78036,-2.68792 -0.21677,-6.19956 0.58527,-3.53331 2.25438,-6.19955 1.69079,-2.68792 4.18362,-4.18361 2.49283,-1.4957 5.46254,-1.4957 1.4957,0 2.7963,0.43353 1.32229,0.41186 2.29774,1.25726 0.99713,0.84539 1.51737,2.12432 h 0.0434 l 0.56359,-3.38158 h 3.59834 l -3.79343,22.89066 h -3.59834 l 0.5636,-3.46828 h -0.0434 q -1.04048,1.32228 -2.29773,2.18935 -1.25726,0.86707 -2.66625,1.27893 -1.40899,0.43354 -2.90468,0.43354 z m 1.10551,-3.31655 q 2.12433,0 3.85847,-1.06216 1.73414,-1.06216 2.90468,-2.99139 1.17055,-1.92923 1.58241,-4.50877 0.43353,-2.60121 -0.10839,-4.53044 -0.52024,-1.92923 -1.90755,-2.99139 -1.36564,-1.06216 -3.48996,-1.06216 -1.97259,0 -3.66337,0.97545 -1.69079,0.97546 -2.88301,2.88301 -1.17055,1.90755 -1.64744,4.72553 -0.45521,2.79631 0.0867,4.70386 0.5636,1.90755 1.92923,2.88301 1.36564,0.97545 3.33822,0.97545 z m 24.36468,-29.41536 -5.35416,32.29837 h -3.68505 l 5.35416,-32.29837 z m 9.68949,32.81861 q -2.64456,0 -4.68218,-1.0188 -2.01594,-1.01881 -3.16481,-3.18649 -1.12719,-2.16767 -1.12719,-5.57092 0,-3.18649 0.95378,-5.7877 0.95378,-2.62289 2.66624,-4.48709 1.73414,-1.8642 4.05356,-2.86133 2.31941,-1.01881 5.029,-1.01881 2.34109,0 4.07523,0.75869 1.75582,0.73701 2.73128,2.16767 0.97545,1.43067 0.97545,3.46829 0,2.08097 -1.10552,3.53331 -1.08383,1.43066 -3.29486,2.29773 -2.18936,0.86707 -5.52758,1.27893 -3.33822,0.39018 -7.84698,0.39018 l 0.52024,-3.12145 q 3.96685,0 6.58973,-0.26012 2.62289,-0.26012 4.14027,-0.78036 1.53904,-0.54192 2.16767,-1.36564 0.6503,-0.82372 0.6503,-1.92923 0,-1.45234 -1.12719,-2.27606 -1.12719,-0.82372 -3.31654,-0.82372 -2.29774,0 -3.94517,0.9321 -1.64744,0.91043 -2.7096,2.47115 -1.04048,1.56073 -1.53905,3.53332 -0.49856,1.97258 -0.49856,4.0969 0,1.60408 0.45521,3.03475 0.47689,1.43067 1.69079,2.31941 1.2139,0.88875 3.40325,0.88875 2.5145,0 4.292,-1.12719 1.79917,-1.12719 2.60121,-2.90469 h 3.68505 q -1.19223,3.27319 -3.98853,5.31081 -2.7963,2.03761 -6.8065,2.03761 z m 19.72584,-13.78641 -2.18935,13.26617 h -3.68505 l 3.77175,-22.89066 h 3.59835 l -0.91043,5.54925 -1.06216,-0.10838 q 1.64744,-3.09978 3.81511,-4.48709 2.18935,-1.38731 4.81224,-1.38731 2.36277,0 4.14026,1.04048 1.79917,1.04049 2.64457,3.09978 0.84539,2.03762 0.32515,5.09404 l -2.31941,14.08989 h -3.68505 l 2.31941,-14.08989 q 0.49856,-2.96972 -0.62863,-4.40038 -1.10551,-1.45235 -3.59834,-1.45235 -1.71246,0 -3.25151,0.71534 -1.53905,0.69365 -2.62289,2.16767 -1.08384,1.47402 -1.47402,3.79344 z m 27.29102,13.69971 q -3.92349,0 -6.1562,-2.55786 -2.2327,-2.55786 -2.2327,-6.74147 0,-2.68792 0.80204,-5.24578 0.82372,-2.57953 2.36277,-4.6605 1.53905,-2.08097 3.7284,-3.31655 2.21103,-1.23557 4.96398,-1.23557 1.53905,0 2.883,0.45521 1.34396,0.43354 2.34109,1.32228 1.01881,0.86707 1.53905,2.146 h 0.0217 l 2.12432,-12.89767 h 3.68505 l -5.33248,32.29837 h -3.59834 l 0.54192,-3.40325 h -0.0217 q -1.04048,1.36564 -2.27606,2.21103 -1.2139,0.84539 -2.57953,1.23558 -1.36564,0.39018 -2.79631,0.39018 z m 0.65031,-3.31655 q 2.05929,0 3.68505,-0.9321 1.62575,-0.9321 2.77462,-2.49283 1.14887,-1.5824 1.75582,-3.53331 0.60695,-1.9509 0.60695,-3.98852 0,-2.88301 -1.45235,-4.53044 -1.43066,-1.66911 -4.07523,-1.66911 -2.08096,0 -3.68504,0.95377 -1.60409,0.95378 -2.7096,2.55786 -1.10551,1.58241 -1.69079,3.57667 -0.56359,1.97258 -0.56359,4.05355 0,2.96972 1.45234,4.48709 1.45234,1.51737 3.90182,1.51737 z m 24.21294,3.31655 q -2.96971,0 -4.96397,-1.4957 -1.99427,-1.51737 -2.79631,-4.18361 -0.78036,-2.68792 -0.21676,-6.19956 0.58527,-3.53331 2.25438,-6.19955 1.69079,-2.68792 4.18361,-4.18361 2.49283,-1.4957 5.46255,-1.4957 1.49569,0 2.7963,0.43353 1.32228,0.41186 2.29773,1.25726 0.99714,0.84539 1.51738,2.12432 h 0.0433 l 0.5636,-3.38158 h 3.59834 l -3.79343,22.89066 h -3.59835 l 0.5636,-3.46828 h -0.0434 q -1.04049,1.32228 -2.29774,2.18935 -1.25725,0.86707 -2.66624,1.27893 -1.40899,0.43354 -2.90469,0.43354 z m 1.10552,-3.31655 q 2.12432,0 3.85846,-1.06216 1.73414,-1.06216 2.90469,-2.99139 1.17054,-1.92923 1.5824,-4.50877 0.43354,-2.60121 -0.10838,-4.53044 -0.52025,-1.92923 -1.90756,-2.99139 -1.36563,-1.06216 -3.48996,-1.06216 -1.97258,0 -3.66337,0.97545 -1.69079,0.97546 -2.88301,2.88301 -1.17054,1.90755 -1.64743,4.72553 -0.45521,2.79631 0.0867,4.70386 0.56359,1.90755 1.92923,2.88301 1.36563,0.97545 3.33822,0.97545 z m 15.32546,2.88301 3.79344,-22.89066 h 3.51163 l -0.60695,3.59835 h 0.0867 q 0.9321,-1.7775 2.47115,-2.86134 1.53905,-1.08383 3.68505,-1.08383 0.49856,0 0.91042,0.0433 0.41186,0.0434 0.62863,0.0867 l -0.60695,3.68505 q -0.21677,-0.065 -0.82372,-0.15174 -0.58527,-0.10838 -1.38731,-0.10838 -1.25725,0 -2.44947,0.58527 -1.17055,0.58527 -2.01594,1.82085 -0.8454,1.23557 -1.17055,3.18648 l -2.34109,14.08989 z m 16.12755,-8.6707 3.6417,-23.62767 h 4.03188 l -4.20529,23.62767 z m 0.47689,9.03921 q -1.2139,0 -1.92923,-0.86707 -0.71533,-0.86707 -0.52024,-2.08097 0.17341,-1.06216 0.99713,-1.75582 0.84539,-0.71533 1.90755,-0.71533 1.2139,0 1.92924,0.86707 0.71533,0.86707 0.52024,2.08097 -0.17342,1.06216 -1.01881,1.77749 -0.82372,0.69366 -1.88588,0.69366 z"
         id="text34"
         aria-label="copy transit schedules to your calendar!" /></g><g
       id="g3"
       transform="translate(13.10249,-438.93342)"><text
         xml:space="preserve"
         style="font-style:normal;font-variant:normal;font-weight:normal;font-stretch:normal;font-size:44.394px;font-family:Inter;-inkscape-font-specification:'Inter, @opsz=32';font-variant-ligatures:normal;font-variant-caps:normal;font-variant-numeric:normal;font-variant-east-asian:normal;font-variation-settings:'opsz' 32;letter-spacing:0px;writing-mode:lr-tb;direction:ltr;opacity:0.248168;mix-blend-mode:color-burn;fill:#000000;fill-opacity:1;stroke-width:0.153159;paint-order:fill markers stroke"
         x="95.697044"
         y="333.00854"
         id="text2"><tspan
           sodipodi:role="line"
           id="tspan1"
           style="font-style:italic;font-variant:normal;font-weight:normal;font-stretch:normal;font-size:44.394px;font-family:Inter;-inkscape-font-specification:'Inter Italic';font-variant-ligatures:normal;font-variant-caps:normal;font-variant-numeric:normal;font-variant-east-asian:normal;letter-spacing:0px;fill:#000000;fill-opacity:1;stroke-width:0.153159"
           x="95.697044"
           y="333.00854">copy transit schedules to your calendar!</tspan></text><text
         xml:space="preserve"
         style="font-style:normal;font-variant:normal;font-weight:normal;font-stretch:normal;font-size:44.394px;font-family:Inter;-inkscape-font-specification:'Inter, @opsz=32';font-variant-ligatures:normal;font-variant-caps:normal;font-variant-numeric:normal;font-variant-east-asian:normal;font-variation-settings:'opsz' 32;letter-spacing:0px;writing-mode:lr-tb;direction:ltr;fill:#ffffff;fill-opacity:1;stroke-width:0.153159;paint-order:fill markers stroke"
         x="94.846603"
         y="332.15811"
         id="text3"><tspan
           sodipodi:role="line"
           id="tspan2"
           style="font-style:italic;font-variant:normal;font-weight:normal;font-stretch:normal;font-size:44.394px;font-family:Inter;-inkscape-font-specification:'Inter Italic';font-variant-ligatures:normal;font-variant-caps:normal;font-variant-numeric:normal;font-variant-east-asian:normal;letter-spacing:0px;stroke-width:0.153159"
           x="94.846603"
           y="332.15811">copy transit schedules to your calendar!</tspan></text></g></g></svg>
