<svg xmlns="http://www.w3.org/2000/svg" xmlns:xlink="http://www.w3.org/1999/xlink" width="512" height="512"><defs><linearGradient id="a"><stop offset="0" stop-color="#fff"/></linearGradient><linearGradient id="c"><stop offset=".118" stop-color="#d14000"/><stop offset=".417" stop-color="#b58900"/><stop offset=".58" stop-color="#749923"/><stop offset=".908" stop-color="#0084c8"/></linearGradient><linearGradient xlink:href="#a" id="g" x1="223.88" x2="288.12" y1="289.436" y2="289.436" gradientUnits="userSpaceOnUse"/><linearGradient xlink:href="#a" id="h" x1="320.021" x2="359.777" y1="160.282" y2="160.282" gradientUnits="userSpaceOnUse"/><linearGradient xlink:href="#a" id="i" x1="384.258" x2="424.015" y1="160.282" y2="160.282" gradientUnits="userSpaceOnUse"/><linearGradient xlink:href="#a" id="j" x1="275.658" x2="468.377" y1="230.334" y2="230.334" gradientUnits="userSpaceOnUse"/><linearGradient xlink:href="#a" id="k" x1="275.658" x2="468.378" y1="313.581" y2="313.581" gradientUnits="userSpaceOnUse"/><linearGradient xlink:href="#a" id="l" x1="275.658" x2="468.377" y1="271.957" y2="271.957" gradientUnits="userSpaceOnUse"/><linearGradient xlink:href="#a" id="m" x1="219.894" x2="292.106" y1="160.282" y2="160.282" gradientUnits="userSpaceOnUse"/><linearGradient xlink:href="#a" id="n" x1="-111.667" x2="197" y1="164.667" y2="164.667" gradientTransform="translate(83.596 164.552)scale(.4205044)" gradientUnits="userSpaceOnUse"/><linearGradient xlink:href="#a" id="o" x1="113.228" x2="185.439" y1="356.667" y2="356.667" gradientUnits="userSpaceOnUse"/><linearGradient xlink:href="#a" id="p" x1="27.562" x2="475.044" y1="257.744" y2="257.744" gradientUnits="userSpaceOnUse"/><linearGradient xlink:href="#a" id="q" x1="113.228" x2="185.439" y1="356.667" y2="356.667" gradientTransform="translate(223.843)" gradientUnits="userSpaceOnUse"/><linearGradient xlink:href="#c" id="d" x1="34.228" x2="468.378" y1="245.484" y2="245.484" gradientUnits="userSpaceOnUse"/><filter id="e" width="1" height="1" x="0" y="0" color-interpolation-filters="sRGB"><feTurbulence baseFrequency="0.03 0.03" numOctaves="3" result="turbulence" seed="48" type="fractalNoise"/><feDisplacementMap in="SourceGraphic" in2="turbulence" scale="50" xChannelSelector="R" yChannelSelector="G"/></filter><filter id="f" width="1.031" height="1.024" x="-.015" y="0" color-interpolation-filters="sRGB"><feTurbulence baseFrequency="0.2 0.2" numOctaves="3" result="turbulence" seed="48" type="fractalNoise"/><feDisplacementMap in="SourceGraphic" in2="turbulence" scale="1.732" xChannelSelector="R" yChannelSelector="G"/></filter></defs><path fill="#fff" d="M0 0h512v512H0z" paint-order="fill markers stroke"/><path fill="url(#d)" d="M0 0h512v512H0z" filter="url(#e)" transform="translate(7.666 7.666)scale(.97005335)"/><g filter="url(#f)" transform="translate(26.769 32.142)scale(.89543389)"><path fill="url(#g)" d="M238.936 223.667h49.184v131.538h-64.24V239.082a15.056 15.415 0 0 1 15.056-15.415"/><path fill="none" stroke="url(#h)" stroke-width="13.333" d="M336.725 132.871h6.348c5.56 0 10.037 4.528 10.037 10.153v34.517c0 5.624-4.476 10.152-10.037 10.152h-6.348c-5.561 0-10.038-4.528-10.038-10.152v-34.517c0-5.625 4.477-10.153 10.038-10.153z"/><path fill="none" stroke="url(#i)" stroke-width="13.333" d="M400.963 132.871h6.348c5.56 0 10.037 4.528 10.037 10.153v34.517c0 5.624-4.477 10.152-10.037 10.152h-6.348c-5.561 0-10.038-4.528-10.038-10.152v-34.517c0-5.625 4.477-10.153 10.038-10.153z"/><path fill="none" stroke="url(#j)" stroke-width="13.333" d="M275.658 230.334h192.72"/><path fill="none" stroke="url(#k)" stroke-width="13.333" d="M275.658 313.581h192.72"/><path fill="none" stroke="url(#l)" stroke-width="13.333" d="M275.658 271.957h192.72"/><ellipse cx="256" cy="160.282" fill="url(#m)" rx="36.106" ry="36.518"/><path fill="none" stroke="url(#n)" stroke-width="13.333" d="m143.592 187.162-88.207 89.215a62.8 62.8 0 0 0 46.152 20.213 62.795 62.795 0 0 0 62.797-62.795 62.8 62.8 0 0 0-20.742-46.633z" paint-order="fill markers stroke"/><circle cx="149.333" cy="356.667" r="29.772" fill="none" stroke="url(#o)" stroke-width="12.667" paint-order="fill markers stroke"/><path fill="none" stroke="url(#p)" stroke-width="13.333" d="M179.07 355.205h249.159a40.15 40.609 0 0 0 40.149-40.608V200.89a40.15 40.609 0 0 0-40.15-40.608h-10.88v17.26c0 5.624-4.476 10.151-10.036 10.151h-6.35c-5.56 0-10.036-4.527-10.036-10.15v-17.26H353.11v17.26c0 5.623-4.476 10.15-10.036 10.15h-6.35c-5.56 0-10.036-4.527-10.036-10.15v-17.26H186.8a40.15 40.609 0 0 0-28.392 11.893L45.988 285.88a40.15 40.609 0 0 0 28.39 69.325h45.219"/><path fill="none" stroke="url(#q)" stroke-width="12.667" d="M402.913 355.205a30 30 0 0 1 .035 1.462 29.77 29.77 0 0 1-29.772 29.772 29.77 29.77 0 0 1-29.772-29.772 30 30 0 0 1 .036-1.462" paint-order="fill markers stroke"/></g></svg>