<?xml version="1.0" encoding="UTF-8" standalone="no"?>
<!-- Created with Inkscape (http://www.inkscape.org/) -->

<svg
   width="200pt"
   height="48pt"
   viewBox="0 0 200 48"
   version="1.1"
   id="svg1"
   xml:space="preserve"
   inkscape:version="1.4.4 (dcaf3e7d9e, 2026-05-05)"
   sodipodi:docname="wordmark.src.svg"
   inkscape:export-filename="wordmark.svg"
   inkscape:export-xdpi="96"
   inkscape:export-ydpi="96"
   xmlns:inkscape="http://www.inkscape.org/namespaces/inkscape"
   xmlns:sodipodi="http://sodipodi.sourceforge.net/DTD/sodipodi-0.dtd"
   xmlns:xlink="http://www.w3.org/1999/xlink"
   xmlns="http://www.w3.org/2000/svg"
   xmlns:svg="http://www.w3.org/2000/svg"><sodipodi:namedview
     id="namedview1"
     pagecolor="#ffffff"
     bordercolor="#000000"
     borderopacity="0.25"
     inkscape:showpageshadow="2"
     inkscape:pageopacity="0.0"
     inkscape:pagecheckerboard="0"
     inkscape:deskcolor="#d1d1d1"
     inkscape:document-units="mm"
     inkscape:zoom="2.9405048"
     inkscape:cx="136.71122"
     inkscape:cy="59.003475"
     inkscape:window-width="2560"
     inkscape:window-height="1371"
     inkscape:window-x="0"
     inkscape:window-y="0"
     inkscape:window-maximized="1"
     inkscape:current-layer="layer1"
     showguides="true"><sodipodi:guide
       position="143.29431,37.410078"
       orientation="0,-1"
       id="guide10"
       inkscape:locked="false" /><sodipodi:guide
       position="53.223459,33.205078"
       orientation="0,-1"
       id="guide11"
       inkscape:locked="false" /></sodipodi:namedview><defs
     id="defs1"><linearGradient
       id="a"><stop
         offset="0"
         stop-color="#fff"
         id="stop1" /></linearGradient><linearGradient
       id="c"><stop
         offset=".118"
         stop-color="#d14000"
         id="stop2" /><stop
         offset=".417"
         stop-color="#b58900"
         id="stop3" /><stop
         offset=".58"
         stop-color="#749923"
         id="stop4" /><stop
         offset=".908"
         stop-color="#0084c8"
         id="stop5" /></linearGradient><linearGradient
       xlink:href="#a"
       id="g"
       x1="223.88"
       x2="288.12"
       y1="289.436"
       y2="289.436"
       gradientUnits="userSpaceOnUse" /><linearGradient
       xlink:href="#a"
       id="h"
       x1="320.021"
       x2="359.777"
       y1="160.282"
       y2="160.282"
       gradientUnits="userSpaceOnUse" /><linearGradient
       xlink:href="#a"
       id="i"
       x1="384.258"
       x2="424.015"
       y1="160.282"
       y2="160.282"
       gradientUnits="userSpaceOnUse" /><linearGradient
       xlink:href="#a"
       id="j"
       x1="275.658"
       x2="468.377"
       y1="230.334"
       y2="230.334"
       gradientUnits="userSpaceOnUse" /><linearGradient
       xlink:href="#a"
       id="k"
       x1="275.658"
       x2="468.378"
       y1="313.581"
       y2="313.581"
       gradientUnits="userSpaceOnUse" /><linearGradient
       xlink:href="#a"
       id="l"
       x1="275.658"
       x2="468.377"
       y1="271.957"
       y2="271.957"
       gradientUnits="userSpaceOnUse" /><linearGradient
       xlink:href="#a"
       id="m"
       x1="219.894"
       x2="292.106"
       y1="160.282"
       y2="160.282"
       gradientUnits="userSpaceOnUse" /><linearGradient
       xlink:href="#a"
       id="n"
       x1="-111.667"
       x2="197"
       y1="164.667"
       y2="164.667"
       gradientTransform="matrix(0.4205044,0,0,0.4205044,83.596,164.552)"
       gradientUnits="userSpaceOnUse" /><linearGradient
       xlink:href="#a"
       id="o"
       x1="113.228"
       x2="185.439"
       y1="356.667"
       y2="356.667"
       gradientUnits="userSpaceOnUse" /><linearGradient
       xlink:href="#a"
       id="p"
       x1="27.562"
       x2="475.044"
       y1="257.744"
       y2="257.744"
       gradientUnits="userSpaceOnUse" /><linearGradient
       xlink:href="#a"
       id="q"
       x1="113.228"
       x2="185.439"
       y1="356.667"
       y2="356.667"
       gradientTransform="translate(223.843)"
       gradientUnits="userSpaceOnUse" /><linearGradient
       xlink:href="#c"
       id="d"
       x1="34.228"
       x2="468.378"
       y1="245.484"
       y2="245.484"
       gradientUnits="userSpaceOnUse" /><filter
       id="e"
       width="1"
       height="1"
       x="0"
       y="0"
       color-interpolation-filters="sRGB"><feTurbulence
         baseFrequency="0.03 0.03"
         numOctaves="3"
         result="turbulence"
         seed="48"
         type="fractalNoise"
         id="feTurbulence5" /><feDisplacementMap
         in="SourceGraphic"
         in2="turbulence"
         scale="50"
         xChannelSelector="R"
         yChannelSelector="G"
         id="feDisplacementMap5" /></filter><filter
       id="f"
       width="1.0307085"
       height="1.0241115"
       x="-0.015353215"
       y="0"
       color-interpolation-filters="sRGB"><feTurbulence
         baseFrequency="0.2 0.2"
         numOctaves="3"
         result="turbulence"
         seed="48"
         type="fractalNoise"
         id="feTurbulence6" /><feDisplacementMap
         in="SourceGraphic"
         in2="turbulence"
         scale="1.732"
         xChannelSelector="R"
         yChannelSelector="G"
         id="feDisplacementMap6" /></filter></defs><g
     inkscape:label="Layer 1"
     inkscape:groupmode="layer"
     id="layer1"><rect
       style="font-variation-settings:'opsz' 32, 'wght' 800;fill:#ffffff;fill-opacity:1;stroke:none;stroke-width:0.1725;stroke-opacity:1;paint-order:fill markers stroke"
       id="rect1"
       width="200"
       height="48"
       x="0"
       y="0" /><g
       id="text1"
       style="paint-order:fill markers stroke;stroke-width:0.1725;letter-spacing:-1.035px;-inkscape-font-specification:'Noto Color Emoji, Normal';font-family:'Noto Color Emoji';font-size:36px;"
       aria-label="transical"><path
         style="font-family:Inter;-inkscape-font-specification:'Inter, @opsz=32,wght=800';font-feature-settings:'ss03';font-variation-settings:'opsz' 32, 'wght' 800"
         d="m 64.980934,19.857422 v 4.675781 H 51.937965 v -4.675781 z m -3.814453,-7.193435 v 19.5157 c 0,0.597657 0.117188,1.007813 0.351563,1.230469 0.234375,0.222657 0.691406,0.333985 1.371093,0.333985 h 1.125 0.966797 v 4.675781 H 63.539528 61.5532 c -2.226563,0 -3.861328,-0.416016 -4.904297,-1.248047 -1.03125,-0.84375 -1.546875,-2.167969 -1.546875,-3.972656 V 19.857422 16.868987 Z"
         id="path7"
         sodipodi:nodetypes="ccccccsssccccscsccc" /><path
         style="font-family:Inter;-inkscape-font-specification:'Inter, @opsz=32,wght=800';font-variation-settings:'opsz' 32, 'wght' 800"
         d="m 66.371716,38.419922 v -18.5625 h 5.853515 v 3.269531 h 0.05274 q 0.509765,-1.775391 1.582031,-2.548828 1.089844,-0.791016 2.953125,-0.791016 0.492187,0 0.878906,0.01758 0.404297,0 0.773438,0.01758 v 4.992187 q -0.333985,-0.01758 -1.03711,-0.03516 -0.685547,-0.01758 -1.353515,-0.01758 -1.072266,0 -1.898438,0.492187 -0.826172,0.47461 -1.300781,1.40625 -0.457031,0.931641 -0.457031,2.25 v 9.509766 z m 18.675708,0.316406 q -1.863281,0 -3.304687,-0.597656 -1.423828,-0.615235 -2.25,-1.828125 -0.808594,-1.230469 -0.808594,-3.076172 0,-1.564453 0.5625,-2.619141 0.5625,-1.072265 1.546875,-1.740234 1.001953,-0.667969 2.302734,-1.001953 1.31836,-0.351563 2.794922,-0.47461 1.652344,-0.140625 2.654297,-0.298828 1.001953,-0.175781 1.441406,-0.474609 0.439454,-0.316406 0.439454,-0.878906 v -0.08789 q 0,-0.5625 -0.316407,-0.966797 -0.316406,-0.421875 -0.896484,-0.65039 -0.580078,-0.246094 -1.371094,-0.246094 -0.84375,0 -1.458984,0.263672 -0.615235,0.246093 -0.966797,0.720703 -0.351563,0.457031 -0.421875,1.089844 h -5.625 q 0.140625,-2.021485 1.177734,-3.445313 1.03711,-1.441406 2.917969,-2.197266 1.898438,-0.773437 4.587891,-0.773437 2.021484,0 3.568359,0.439453 1.564453,0.421875 2.636719,1.265625 1.072265,0.826172 1.617187,2.039063 0.544922,1.195312 0.544922,2.724609 v 12.498047 h -5.90625 v -2.601563 h -0.07031 q -0.5625,1.001953 -1.31836,1.652344 -0.755859,0.632813 -1.757812,0.949219 -1.001953,0.316406 -2.320313,0.316406 z m 1.845703,-3.955078 q 1.001954,0 1.810547,-0.386719 0.826172,-0.386719 1.300782,-1.054687 0.474609,-0.685547 0.474609,-1.59961 v -1.6875 q -0.246094,0.105469 -0.580078,0.210938 -0.333985,0.105469 -0.75586,0.193359 -0.404296,0.08789 -0.896484,0.175781 -0.492187,0.08789 -1.054687,0.19336 -0.808594,0.123047 -1.441407,0.386719 -0.615234,0.263671 -0.984375,0.703125 -0.351562,0.421875 -0.351562,1.037109 0,0.580078 0.316406,0.984375 0.316406,0.404297 0.861328,0.632812 0.5625,0.210938 1.300781,0.210938 z m 17.914223,-6.451172 v 10.089844 h -6.046879 v -18.5625 h 5.976559 v 4.974609 h -0.89648 q 0.86133,-2.460937 2.49609,-3.919922 1.63477,-1.458984 4.30664,-1.458984 2.02149,0 3.44532,0.878906 1.42382,0.861328 2.17968,2.496094 0.75586,1.634766 0.75586,3.919922 v 11.671875 h -6.04687 v -10.40625 q 0,-1.652344 -0.79102,-2.513672 -0.79101,-0.878906 -2.23242,-0.878906 -0.94922,0 -1.66992,0.404297 -0.70313,0.404296 -1.08984,1.230468 -0.38672,0.808594 -0.38672,2.074219 z m 22.7482,10.546875 q -2.56641,0 -4.55273,-0.773437 -1.98633,-0.773438 -3.16407,-2.214844 -1.17773,-1.441406 -1.35351,-3.410156 h 5.95898 q 0.14063,1.019531 0.91406,1.634765 0.79102,0.597656 2.10938,0.597656 1.24805,0 1.95117,-0.439453 0.70313,-0.439453 0.70313,-1.142578 0,-0.615234 -0.58008,-0.984375 -0.5625,-0.386719 -1.66992,-0.580078 l -3.35743,-0.597656 q -2.74218,-0.492188 -4.18359,-1.88086 -1.42383,-1.388671 -1.42383,-3.585937 0,-1.828125 0.98438,-3.181641 1.00195,-1.353515 2.86523,-2.091797 1.88086,-0.755859 4.46485,-0.755859 2.60156,0 4.5,0.791016 1.89843,0.773437 2.95312,2.214843 1.07227,1.423829 1.125,3.410157 h -5.57227 q -0.0176,-0.984375 -0.80859,-1.617188 -0.77344,-0.65039 -1.98633,-0.65039 -1.17773,0 -1.8457,0.457031 -0.65039,0.457031 -0.65039,1.142578 0,0.580078 0.52734,0.966797 0.52735,0.386719 1.47657,0.5625 l 3.72656,0.685547 q 2.88281,0.527343 4.23633,1.757812 1.37109,1.230469 1.37109,3.304688 0,1.898437 -1.10742,3.339843 -1.08985,1.441407 -3.0586,2.25 -1.95117,0.791016 -4.55273,0.791016 z"
         id="path8" /><path
         style="font-size:46px;font-family:Rokkitt;-inkscape-font-specification:'Rokkitt, @wght=725';font-variation-settings:'wght' 725"
         d="m 137.82031,38.419922 v -4.094 h 2.576 v -10.258 h -2.806 v -4.048 h 8.694 v 14.306 h 2.3 v 4.094 z"
         id="path9"
         sodipodi:nodetypes="ccccccccccc" /><path
         style="font-family:Inter;-inkscape-font-specification:'Inter, @opsz=32,wght=800';font-variation-settings:'opsz' 32, 'wght' 800"
         d="m 158.15299,38.841797 q -2.86523,0 -5.02734,-1.212891 -2.16211,-1.230469 -3.375,-3.410156 -1.19531,-2.179688 -1.19531,-5.080078 0,-2.882813 1.19531,-5.0625 1.21289,-2.197266 3.375,-3.410156 2.16211,-1.230469 5.02734,-1.230469 1.9336,0 3.55078,0.5625 1.63477,0.5625 2.83008,1.599609 1.21289,1.019531 1.91602,2.44336 0.70312,1.40625 0.80859,3.111328 h -5.83594 q -0.0703,-0.650391 -0.3164,-1.195313 -0.2461,-0.544922 -0.66797,-0.93164 -0.4043,-0.386719 -0.94922,-0.580079 -0.54492,-0.210937 -1.21289,-0.210937 -1.125,0 -1.93359,0.597656 -0.8086,0.580078 -1.23047,1.6875 -0.42188,1.107422 -0.42188,2.619141 0,1.511719 0.42188,2.61914 0.42187,1.107422 1.23047,1.705079 0.80859,0.580078 1.93359,0.580078 0.66797,0 1.21289,-0.19336 0.54492,-0.210937 0.93164,-0.597656 0.4043,-0.404297 0.65039,-0.949219 0.24609,-0.5625 0.33399,-1.230468 h 5.85351 q -0.0527,1.705078 -0.73828,3.128906 -0.68555,1.40625 -1.89844,2.460937 -1.21289,1.03711 -2.86523,1.617188 -1.63477,0.5625 -3.60352,0.5625 z m 16.58885,-0.105469 q -1.86328,0 -3.30468,-0.597656 -1.42383,-0.615235 -2.25,-1.828125 -0.8086,-1.230469 -0.8086,-3.076172 0,-1.564453 0.5625,-2.619141 0.5625,-1.072265 1.54688,-1.740234 1.00195,-0.667969 2.30273,-1.001953 1.31836,-0.351563 2.79492,-0.47461 1.65235,-0.140625 2.6543,-0.298828 1.00195,-0.175781 1.44141,-0.474609 0.43945,-0.316406 0.43945,-0.878906 v -0.08789 q 0,-0.5625 -0.31641,-0.966797 -0.3164,-0.421875 -0.89648,-0.65039 -0.58008,-0.246094 -1.37109,-0.246094 -0.84375,0 -1.45899,0.263672 -0.61523,0.246093 -0.9668,0.720703 -0.35156,0.457031 -0.42187,1.089844 h -5.625 q 0.14062,-2.021485 1.17773,-3.445313 1.03711,-1.441406 2.91797,-2.197266 1.89844,-0.773437 4.58789,-0.773437 2.02149,0 3.56836,0.439453 1.56446,0.421875 2.63672,1.265625 1.07227,0.826172 1.61719,2.039063 0.54492,1.195312 0.54492,2.724609 v 12.498047 h -5.90625 v -2.601563 h -0.0703 q -0.5625,1.001953 -1.31836,1.652344 -0.75586,0.632813 -1.75781,0.949219 -1.00196,0.316406 -2.32032,0.316406 z m 1.84571,-3.955078 q 1.00195,0 1.81054,-0.386719 0.82618,-0.386719 1.30079,-1.054687 0.4746,-0.685547 0.4746,-1.59961 v -1.6875 q -0.24609,0.105469 -0.58007,0.210938 -0.33399,0.105469 -0.75586,0.193359 -0.4043,0.08789 -0.89649,0.175781 -0.49218,0.08789 -1.05468,0.19336 -0.8086,0.123047 -1.44141,0.386719 -0.61524,0.263671 -0.98438,0.703125 -0.35156,0.421875 -0.35156,1.037109 0,0.580078 0.31641,0.984375 0.3164,0.404297 0.86133,0.632812 0.5625,0.210938 1.30078,0.210938 z m 17.91421,-22.552734 v 26.191406 h -6.04687 V 12.228516 Z"
         id="path10" /><circle
         style="font-variation-settings:'opsz' 32, 'wght' 800;fill:#000000;stroke:none;stroke-width:0.197913;paint-order:fill markers stroke;stroke-opacity:1;fill-opacity:1"
         id="path1"
         cx="143.29079"
         cy="14.062588"
         r="3.4726651" /></g><text
       xml:space="preserve"
       style="font-size:36px;font-family:'Noto Color Emoji';-inkscape-font-specification:'Noto Color Emoji, Normal';letter-spacing:-1.035px;writing-mode:lr-tb;direction:ltr;fill:#000000;stroke-width:0.1725;paint-order:fill markers stroke"
       x="51.603981"
       y="-14.603985"
       id="text7"><tspan
         sodipodi:role="line"
         id="tspan7"
         style="font-style:normal;font-variant:normal;font-weight:normal;font-stretch:normal;font-size:36px;font-family:Inter;-inkscape-font-specification:'Inter, @opsz=32,wght=800';font-variant-ligatures:normal;font-variant-caps:normal;font-variant-numeric:normal;font-variant-east-asian:normal;font-variation-settings:'opsz' 32, 'wght' 800;letter-spacing:-1.035px;stroke-width:0.1725"
         x="51.603981"
         y="-14.603985"
         dx="0 0 0 0 0 0 -0.92000002"
         dy="0 0 0 0 0 0 0"><tspan
   style="font-style:normal;font-variant:normal;font-weight:normal;font-stretch:normal;font-size:36px;font-family:Inter;-inkscape-font-specification:'Inter, @opsz=32,wght=800';font-variant-ligatures:normal;font-variant-caps:normal;font-variant-numeric:normal;font-variant-east-asian:normal;font-feature-settings:'ss03';font-variation-settings:'opsz' 32, 'wght' 800;letter-spacing:-1.035px"
   id="tspan5">t</tspan>rans<tspan
   style="font-style:normal;font-variant:normal;font-weight:normal;font-stretch:normal;font-size:46px;font-family:Rokkitt;-inkscape-font-specification:'Rokkitt, @wght=725';font-variant-ligatures:normal;font-variant-caps:normal;font-variant-numeric:normal;font-variant-east-asian:normal;font-variation-settings:'wght' 725;letter-spacing:-1.035px"
   id="tspan6"
   dx="0.87"
   dy="0">i</tspan>cal</tspan></text><g
       id="g11"
       transform="matrix(0.08776703,0,0,0.08776703,1.5316392,1.5316392)"><path
         fill="#ffffff"
         d="M 0,0 H 512 V 512 H 0 Z"
         paint-order="fill markers stroke"
         id="path6" /><path
         fill="url(#d)"
         d="M 0,0 H 512 V 512 H 0 Z"
         filter="url(#e)"
         transform="matrix(0.97005335,0,0,0.97005335,7.666,7.666)"
         id="path7-0"
         style="fill:url(#d)" /><g
         filter="url(#f)"
         transform="matrix(0.89543389,0,0,0.89543389,26.769,32.142)"
         id="g16"><path
           fill="url(#g)"
           d="M 238.936,223.667 H 288.12 V 355.205 H 223.88 V 239.082 a 15.056,15.415 0 0 1 15.056,-15.415"
           id="path8-8"
           style="fill:url(#g)" /><path
           fill="none"
           stroke="url(#h)"
           stroke-width="13.333"
           d="m 336.725,132.871 h 6.348 c 5.56,0 10.037,4.528 10.037,10.153 v 34.517 c 0,5.624 -4.476,10.152 -10.037,10.152 h -6.348 c -5.561,0 -10.038,-4.528 -10.038,-10.152 v -34.517 c 0,-5.625 4.477,-10.153 10.038,-10.153 z"
           id="path9-3"
           style="stroke:url(#h)" /><path
           fill="none"
           stroke="url(#i)"
           stroke-width="13.333"
           d="m 400.963,132.871 h 6.348 c 5.56,0 10.037,4.528 10.037,10.153 v 34.517 c 0,5.624 -4.477,10.152 -10.037,10.152 h -6.348 c -5.561,0 -10.038,-4.528 -10.038,-10.152 v -34.517 c 0,-5.625 4.477,-10.153 10.038,-10.153 z"
           id="path10-5"
           style="stroke:url(#i)" /><path
           fill="none"
           stroke="url(#j)"
           stroke-width="13.333"
           d="m 275.658,230.334 h 192.72"
           id="path11"
           style="stroke:url(#j)" /><path
           fill="none"
           stroke="url(#k)"
           stroke-width="13.333"
           d="m 275.658,313.581 h 192.72"
           id="path12"
           style="stroke:url(#k)" /><path
           fill="none"
           stroke="url(#l)"
           stroke-width="13.333"
           d="m 275.658,271.957 h 192.72"
           id="path13"
           style="stroke:url(#l)" /><ellipse
           cx="256"
           cy="160.282"
           fill="url(#m)"
           rx="36.105999"
           ry="36.518002"
           id="ellipse13"
           style="fill:url(#m)" /><path
           fill="none"
           stroke="url(#n)"
           stroke-width="13.333"
           d="m 143.592,187.162 -88.207,89.215 a 62.8,62.8 0 0 0 46.152,20.213 62.795,62.795 0 0 0 62.797,-62.795 62.8,62.8 0 0 0 -20.742,-46.633 z"
           paint-order="fill markers stroke"
           id="path14"
           style="stroke:url(#n)" /><circle
           cx="149.33299"
           cy="356.66699"
           r="29.771999"
           fill="none"
           stroke="url(#o)"
           stroke-width="12.667"
           paint-order="fill markers stroke"
           id="circle14"
           style="stroke:url(#o)" /><path
           fill="none"
           stroke="url(#p)"
           stroke-width="13.333"
           d="m 179.07,355.205 h 249.159 a 40.15,40.609 0 0 0 40.149,-40.608 V 200.89 a 40.15,40.609 0 0 0 -40.15,-40.608 h -10.88 v 17.26 c 0,5.624 -4.476,10.151 -10.036,10.151 h -6.35 c -5.56,0 -10.036,-4.527 -10.036,-10.15 v -17.26 H 353.11 v 17.26 c 0,5.623 -4.476,10.15 -10.036,10.15 h -6.35 c -5.56,0 -10.036,-4.527 -10.036,-10.15 v -17.26 H 186.8 a 40.15,40.609 0 0 0 -28.392,11.893 L 45.988,285.88 a 40.15,40.609 0 0 0 28.39,69.325 h 45.219"
           id="path15"
           style="stroke:url(#p)" /><path
           fill="none"
           stroke="url(#q)"
           stroke-width="12.667"
           d="m 402.913,355.205 a 30,30 0 0 1 0.035,1.462 29.77,29.77 0 0 1 -29.772,29.772 29.77,29.77 0 0 1 -29.772,-29.772 30,30 0 0 1 0.036,-1.462"
           paint-order="fill markers stroke"
           id="path16"
           style="stroke:url(#q)" /></g></g></g></svg>
