<svg xmlns="http://www.w3.org/2000/svg" xmlns:xlink="http://www.w3.org/1999/xlink" xml:space="preserve" width="200pt" height="64" viewBox="0 0 200 48"><defs><linearGradient id="a"><stop offset="0" stop-color="#fff"/></linearGradient><linearGradient id="b"><stop offset=".118" stop-color="#d14000"/><stop offset=".417" stop-color="#b58900"/><stop offset=".58" stop-color="#749923"/><stop offset=".908" stop-color="#0084c8"/></linearGradient><linearGradient xlink:href="#a" id="g" x1="223.88" x2="288.12" y1="289.436" y2="289.436" gradientUnits="userSpaceOnUse"/><linearGradient xlink:href="#a" id="h" x1="320.021" x2="359.777" y1="160.282" y2="160.282" gradientUnits="userSpaceOnUse"/><linearGradient xlink:href="#a" id="i" x1="384.258" x2="424.015" y1="160.282" y2="160.282" gradientUnits="userSpaceOnUse"/><linearGradient xlink:href="#a" id="j" x1="275.658" x2="468.377" y1="230.334" y2="230.334" gradientUnits="userSpaceOnUse"/><linearGradient xlink:href="#a" id="k" x1="275.658" x2="468.378" y1="313.581" y2="313.581" gradientUnits="userSpaceOnUse"/><linearGradient xlink:href="#a" id="l" x1="275.658" x2="468.377" y1="271.957" y2="271.957" gradientUnits="userSpaceOnUse"/><linearGradient xlink:href="#a" id="m" x1="219.894" x2="292.106" y1="160.282" y2="160.282" gradientUnits="userSpaceOnUse"/><linearGradient xlink:href="#a" id="n" x1="-111.667" x2="197" y1="164.667" y2="164.667" gradientTransform="translate(83.596 164.552)scale(.4205044)" gradientUnits="userSpaceOnUse"/><linearGradient xlink:href="#a" id="o" x1="113.228" x2="185.439" y1="356.667" y2="356.667" gradientUnits="userSpaceOnUse"/><linearGradient xlink:href="#a" id="p" x1="27.562" x2="475.044" y1="257.744" y2="257.744" gradientUnits="userSpaceOnUse"/><linearGradient xlink:href="#a" id="q" x1="113.228" x2="185.439" y1="356.667" y2="356.667" gradientTransform="translate(223.843)" gradientUnits="userSpaceOnUse"/><linearGradient xlink:href="#b" id="c" x1="34.228" x2="468.378" y1="245.484" y2="245.484" gradientUnits="userSpaceOnUse"/><filter id="e" width="1" height="1" x="0" y="0" color-interpolation-filters="sRGB"><feTurbulence baseFrequency="0.03 0.03" numOctaves="3" result="turbulence" seed="48" type="fractalNoise"/><feDisplacementMap in="SourceGraphic" in2="turbulence" scale="50" xChannelSelector="R" yChannelSelector="G"/></filter><filter id="f" width="1.031" height="1.024" x="-.015" y="0" color-interpolation-filters="sRGB"><feTurbulence baseFrequency="0.2 0.2" numOctaves="3" result="turbulence" seed="48" type="fractalNoise"/><feDisplacementMap in="SourceGraphic" in2="turbulence" scale="1.732" xChannelSelector="R" yChannelSelector="G"/></filter></defs><path fill="#fff" d="M0 0h200v48H0z" paint-order="fill markers stroke" style="font-variation-settings:&quot;opsz&quot;32,&quot;wght&quot;800"/><g stroke-width=".172" aria-label="transical" font-family="Noto Color Emoji" font-size="36" letter-spacing="-1.035" paint-order="fill markers stroke" style="-inkscape-font-specification:&quot;Noto Color Emoji, Normal&quot;"><path d="M64.98 19.857v4.676H51.939v-4.676zm-3.814-7.193V32.18q0 .896.352 1.23.351.334 1.371.334h2.092v4.676h-3.428q-3.34 0-4.904-1.248-1.547-1.266-1.547-3.973V16.87Z" font-family="Inter" style="-inkscape-font-specification:&quot;Inter, @opsz=32,wght=800&quot;;font-feature-settings:&quot;ss03&quot;;font-variation-settings:&quot;opsz&quot;32,&quot;wght&quot;800"/><path d="M66.372 38.42V19.857h5.853v3.27h.053q.51-1.775 1.582-2.549 1.09-.79 2.953-.79.492 0 .879.017.404 0 .773.017v4.992q-.334-.017-1.037-.035-.685-.017-1.353-.017-1.072 0-1.899.492-.826.475-1.3 1.406-.457.932-.457 2.25v9.51zm18.675.316q-1.863 0-3.304-.597-1.424-.616-2.25-1.828-.809-1.23-.809-3.077 0-1.564.563-2.619.562-1.072 1.547-1.74 1.001-.668 2.302-1.002 1.319-.352 2.795-.475 1.653-.14 2.654-.298 1.002-.176 1.442-.475.44-.316.44-.879v-.088q0-.562-.317-.967-.316-.421-.897-.65-.58-.246-1.37-.246-.844 0-1.46.264-.615.246-.966.72-.352.457-.422 1.09H79.37q.14-2.021 1.177-3.445 1.038-1.442 2.918-2.197 1.899-.774 4.588-.774 2.022 0 3.569.44 1.564.421 2.636 1.265 1.073.826 1.618 2.04.544 1.195.544 2.724V38.42h-5.906v-2.602h-.07q-.563 1.002-1.318 1.653-.756.633-1.758.949t-2.32.316m1.846-3.955q1.002 0 1.81-.386.827-.387 1.301-1.055.475-.686.475-1.6v-1.687q-.246.105-.58.21-.334.106-.756.194-.404.088-.896.176-.493.088-1.055.193-.809.123-1.441.387-.616.264-.985.703-.351.422-.351 1.037 0 .58.316.984.316.405.861.633.563.211 1.301.211m17.914-6.45V38.42H98.76V19.857h5.977v4.975h-.896q.86-2.46 2.496-3.92 1.634-1.459 4.306-1.459 2.022 0 3.446.879 1.423.861 2.18 2.496.755 1.635.755 3.92V38.42h-6.047V28.014q0-1.653-.79-2.514-.792-.879-2.233-.879-.95 0-1.67.404-.703.405-1.09 1.23-.387.81-.387 2.075m22.749 10.546q-2.567 0-4.553-.773-1.987-.774-3.164-2.215-1.178-1.442-1.354-3.41h5.96q.14 1.019.913 1.634.791.598 2.11.598 1.248 0 1.95-.44.704-.439.704-1.142 0-.615-.58-.984-.563-.387-1.67-.58l-3.357-.598q-2.743-.492-4.184-1.881-1.424-1.389-1.424-3.586 0-1.828.984-3.182 1.002-1.353 2.866-2.091 1.88-.756 4.465-.756 2.601 0 4.5.79 1.898.774 2.953 2.216 1.072 1.423 1.125 3.41h-5.573q-.017-.985-.808-1.617-.774-.65-1.987-.65-1.177 0-1.845.456-.65.457-.65 1.143 0 .58.527.967.527.386 1.476.562l3.727.686q2.883.527 4.236 1.757 1.371 1.23 1.371 3.305 0 1.899-1.107 3.34-1.09 1.441-3.059 2.25-1.95.791-4.552.791" font-family="Inter" style="-inkscape-font-specification:&quot;Inter, @opsz=32,wght=800&quot;;font-variation-settings:&quot;opsz&quot;32,&quot;wght&quot;800"/><path d="M137.82 38.42v-4.094h2.576V24.068h-2.806V20.02h8.694v14.306h2.3v4.094z" font-family="Rokkitt" font-size="46" style="-inkscape-font-specification:&quot;Rokkitt, @wght=725&quot;;font-variation-settings:&quot;wght&quot;725"/><path d="M158.153 38.842q-2.865 0-5.027-1.213-2.162-1.23-3.375-3.41-1.196-2.18-1.196-5.08 0-2.883 1.196-5.063 1.213-2.197 3.375-3.41 2.162-1.23 5.027-1.23 1.934 0 3.55.562 1.636.563 2.83 1.6 1.214 1.02 1.917 2.443.703 1.406.808 3.111h-5.835q-.07-.65-.317-1.195-.246-.545-.668-.932-.404-.386-.95-.58-.544-.21-1.212-.21-1.125 0-1.934.597-.808.58-1.23 1.688-.422 1.107-.422 2.619 0 1.511.422 2.619.422 1.107 1.23 1.705.809.58 1.934.58.668 0 1.213-.193.545-.211.932-.598.404-.404.65-.95.246-.562.334-1.23h5.853q-.052 1.705-.738 3.13-.685 1.405-1.898 2.46-1.213 1.037-2.865 1.617-1.635.563-3.604.563m16.589-.106q-1.863 0-3.305-.597-1.424-.616-2.25-1.828-.808-1.23-.808-3.077 0-1.564.562-2.619.563-1.072 1.547-1.74 1.002-.668 2.303-1.002 1.318-.352 2.795-.475 1.652-.14 2.654-.298 1.002-.176 1.441-.475.44-.316.44-.879v-.088q0-.562-.317-.967-.316-.421-.896-.65-.58-.246-1.371-.246-.844 0-1.46.264-.614.246-.966.72-.352.457-.422 1.09h-5.625q.14-2.021 1.178-3.445 1.037-1.442 2.918-2.197 1.898-.774 4.588-.774 2.021 0 3.568.44 1.565.421 2.637 1.265 1.072.826 1.617 2.04.545 1.195.545 2.724V38.42h-5.906v-2.602h-.07q-.563 1.002-1.319 1.653-.756.633-1.758.949t-2.32.316m1.846-3.955q1.001 0 1.81-.386.826-.387 1.3-1.055.475-.686.475-1.6v-1.687q-.246.105-.58.21-.334.106-.755.194-.405.088-.897.176t-1.055.193q-.808.123-1.441.387-.615.264-.984.703-.352.422-.352 1.037 0 .58.316.984.317.405.862.633.562.211 1.3.211m17.914-22.552v26.19h-6.047V12.23Z" font-family="Inter" style="-inkscape-font-specification:&quot;Inter, @opsz=32,wght=800&quot;;font-variation-settings:&quot;opsz&quot;32,&quot;wght&quot;800"/><circle cx="143.291" cy="14.063" r="3.473" style="font-variation-settings:&quot;opsz&quot;32,&quot;wght&quot;800"/></g><path fill="#fff" d="M1.532 1.532h44.936v44.936H1.532Z" paint-order="fill markers stroke"/><path fill="url(#c)" d="M0 0h512v512H0Z" filter="url(#e)" transform="translate(2.204 2.204)scale(.0851387)"/><g filter="url(#f)" transform="translate(3.881 4.353)scale(.07858957)"><path fill="url(#g)" d="M238.936 223.667h49.184v131.538h-64.24V239.082a15.056 15.415 0 0 1 15.056-15.415"/><path fill="none" stroke="url(#h)" stroke-width="13.333" d="M336.725 132.871h6.348c5.56 0 10.037 4.528 10.037 10.153v34.517c0 5.624-4.476 10.152-10.037 10.152h-6.348c-5.561 0-10.038-4.528-10.038-10.152v-34.517c0-5.625 4.477-10.153 10.038-10.153z"/><path fill="none" stroke="url(#i)" stroke-width="13.333" d="M400.963 132.871h6.348c5.56 0 10.037 4.528 10.037 10.153v34.517c0 5.624-4.477 10.152-10.037 10.152h-6.348c-5.561 0-10.038-4.528-10.038-10.152v-34.517c0-5.625 4.477-10.153 10.038-10.153z"/><path fill="none" stroke="url(#j)" stroke-width="13.333" d="M275.658 230.334h192.72"/><path fill="none" stroke="url(#k)" stroke-width="13.333" d="M275.658 313.581h192.72"/><path fill="none" stroke="url(#l)" stroke-width="13.333" d="M275.658 271.957h192.72"/><ellipse cx="256" cy="160.282" fill="url(#m)" rx="36.106" ry="36.518"/><path fill="none" stroke="url(#n)" stroke-width="13.333" d="m143.592 187.162-88.207 89.215a62.8 62.8 0 0 0 46.152 20.213 62.795 62.795 0 0 0 62.797-62.795 62.8 62.8 0 0 0-20.742-46.633z" paint-order="fill markers stroke"/><circle cx="149.333" cy="356.667" r="29.772" fill="none" stroke="url(#o)" stroke-width="12.667" paint-order="fill markers stroke"/><path fill="none" stroke="url(#p)" stroke-width="13.333" d="M179.07 355.205h249.159a40.15 40.609 0 0 0 40.149-40.608V200.89a40.15 40.609 0 0 0-40.15-40.608h-10.88v17.26c0 5.624-4.476 10.151-10.036 10.151h-6.35c-5.56 0-10.036-4.527-10.036-10.15v-17.26H353.11v17.26c0 5.623-4.476 10.15-10.036 10.15h-6.35c-5.56 0-10.036-4.527-10.036-10.15v-17.26H186.8a40.15 40.609 0 0 0-28.392 11.893L45.988 285.88a40.15 40.609 0 0 0 28.39 69.325h45.219"/><path fill="none" stroke="url(#q)" stroke-width="12.667" d="M402.913 355.205a30 30 0 0 1 .035 1.462 29.77 29.77 0 0 1-29.772 29.772 29.77 29.77 0 0 1-29.772-29.772 30 30 0 0 1 .036-1.462" paint-order="fill markers stroke"/></g></svg>